<?xml version="1.0" standalone="yes"?>

<svg version="1.1" viewBox="0.0 0.0 884.3622047244095 275.73228346456693" fill="none" stroke="none" stroke-linecap="square" stroke-miterlimit="10" xmlns="http://www.w3.org/2000/svg" xmlns:xlink="http://www.w3.org/1999/xlink"><clipPath id="p.0"><path d="m0 0l884.3622 0l0 275.73227l-884.3622 0l0 -275.73227z" clip-rule="nonzero"></path></clipPath><g clip-path="url(#p.0)"><path fill="#000000" fill-opacity="0.0" d="m0 0l884.3622 0l0 275.73227l-884.3622 0z" fill-rule="nonzero"></path><path fill="#000000" fill-opacity="0.0" d="m93.9462 207.09186l64.50394 0l0 30.141739l-64.50394 0z" fill-rule="nonzero"></path><path stroke="#595959" stroke-width="2.0" stroke-linejoin="round" stroke-linecap="butt" d="m93.9462 207.09186l64.50394 0l0 30.141739l-64.50394 0z" fill-rule="nonzero"></path><path fill="#ff9900" d="m127.77821 208.85826l28.34645 0l0 26.614182l-28.34645 0z" fill-rule="nonzero"></path><path fill="#4a86e8" d="m95.77821 208.85826l28.346458 0l0 26.614182l-28.346458 0z" fill-rule="nonzero"></path><path fill="#000000" fill-opacity="0.0" d="m125.79265 204.46982l0 -35.968506" fill-rule="nonzero"></path><path stroke="#595959" stroke-width="2.0" stroke-linejoin="round" stroke-linecap="butt" d="m125.79265 204.46982l0 -23.968506" fill-rule="evenodd"></path><path fill="#595959" stroke="#595959" stroke-width="2.0" stroke-linecap="butt" d="m129.09612 180.50131l-3.3034668 -9.076202l-3.3034592 9.076202z" fill-rule="evenodd"></path><path fill="#000000" fill-opacity="0.0" d="m77.4462 113.0105l96.220474 0l0 52.7874l-96.220474 0z" fill-rule="nonzero"></path><path stroke="#595959" stroke-width="2.0" stroke-linejoin="round" stroke-linecap="butt" d="m77.4462 113.0105l96.220474 0l0 52.7874l-96.220474 0z" fill-rule="nonzero"></path><path fill="#cccccc" d="m79.43044 115.00661l92.18897 0l0 48.598434l-92.18897 0z" fill-rule="nonzero"></path><path fill="#000000" d="m106.81551 146.22581l0 -13.59375l6.03125 0q1.8125 0 2.75 0.359375q0.953125 0.359375 1.515625 1.296875q0.5625 0.921875 0.5625 2.046875q0 1.453125 -0.9375 2.453125q-0.921875 0.984375 -2.890625 1.25q0.71875 0.34375 1.09375 0.671875q0.78125 0.734375 1.484375 1.8125l2.375 3.703125l-2.265625 0l-1.796875 -2.828125q-0.796875 -1.21875 -1.3125 -1.875q-0.5 -0.65625 -0.90625 -0.90625q-0.40625 -0.265625 -0.8125 -0.359375q-0.3125 -0.078125 -1.015625 -0.078125l-2.078125 0l0 6.046875l-1.796875 0zm1.796875 -7.59375l3.859375 0q1.234375 0 1.921875 -0.25q0.703125 -0.265625 1.0625 -0.828125q0.375 -0.5625 0.375 -1.21875q0 -0.96875 -0.703125 -1.578125q-0.703125 -0.625 -2.21875 -0.625l-4.296875 0l0 4.5zm11.629196 7.59375l0 -13.59375l1.84375 0l7.1406326 10.671875l0 -10.671875l1.71875 0l0 13.59375l-1.84375 0l-7.1406326 -10.6875l0 10.6875l-1.71875 0zm13.472954 0l0 -13.59375l1.84375 0l7.140625 10.671875l0 -10.671875l1.71875 0l0 13.59375l-1.84375 0l-7.140625 -10.6875l0 10.6875l-1.71875 0z" fill-rule="nonzero"></path><path fill="#000000" fill-opacity="0.0" d="m76.091866 139.11166l-23.181103 0.1889801" fill-rule="nonzero"></path><path stroke="#cccccc" stroke-width="2.0" stroke-linejoin="round" stroke-linecap="butt" d="m64.09226 139.20949l-11.1814995 0.091156006" fill-rule="evenodd"></path><path fill="#cccccc" stroke="#cccccc" stroke-width="2.0" stroke-linecap="butt" d="m64.119194 142.51285l9.048965 -3.3773346l-9.102829 -3.22937z" fill-rule="evenodd"></path><path fill="#ffffff" d="m76.091866 137.33214l2.6771622 0l0 3.5590668l-2.6771622 0z" fill-rule="nonzero"></path><path fill="#ffffff" d="m76.091866 140.27133l2.6771698 0l0 1.0393677l-2.6771698 0z" fill-rule="nonzero"></path><path fill="#000000" fill-opacity="0.0" d="m53.9466 139.49594l0 -49.637787" fill-rule="nonzero"></path><path stroke="#cccccc" stroke-width="2.0" stroke-linejoin="round" stroke-linecap="butt" d="m53.9466 139.49594l0 -49.637787" fill-rule="nonzero"></path><path fill="#000000" fill-opacity="0.0" d="m123.23622 90.45407l-70.267715 0" fill-rule="nonzero"></path><path stroke="#cccccc" stroke-width="2.0" stroke-linejoin="round" stroke-linecap="butt" d="m123.23622 90.45407l-70.267715 0" fill-rule="nonzero"></path><path fill="#000000" fill-opacity="0.0" d="m172.63173 139.30582l25.574799 0" fill-rule="nonzero"></path><path stroke="#cccccc" stroke-width="2.0" stroke-linejoin="round" stroke-linecap="butt" d="m172.63173 139.30582l25.574799 0" fill-rule="nonzero"></path><path fill="#ffffff" d="m175.16429 137.33383l-2.6771698 0l0 1.0393677l2.6771698 0z" fill-rule="nonzero"></path><path fill="#ffffff" d="m175.16429 140.27133l-2.6771698 0l0 1.0393677l2.6771698 0z" fill-rule="nonzero"></path><path fill="#000000" fill-opacity="0.0" d="m197.30956 139.49594l0 -49.637787" fill-rule="nonzero"></path><path stroke="#cccccc" stroke-width="2.0" stroke-linejoin="round" stroke-linecap="butt" d="m197.30956 139.49594l0 -49.637787" fill-rule="nonzero"></path><path fill="#000000" fill-opacity="0.0" d="m127.92388 90.45407l70.3937 0" fill-rule="nonzero"></path><path stroke="#cccccc" stroke-width="2.0" stroke-linejoin="round" stroke-linecap="butt" d="m127.92388 90.45407l70.3937 0" fill-rule="nonzero"></path><path fill="#000000" fill-opacity="0.0" d="m125.55643 113.0105l0 -44.220474" fill-rule="nonzero"></path><path stroke="#595959" stroke-width="2.0" stroke-linejoin="round" stroke-linecap="butt" d="m125.55643 113.0105l0 -32.220474" fill-rule="evenodd"></path><path fill="#595959" stroke="#595959" stroke-width="2.0" stroke-linecap="butt" d="m128.8599 80.79002l-3.3034668 -9.076195l-3.3034592 9.076195z" fill-rule="evenodd"></path><path fill="#e06666" d="m111.61942 36.97638l28.346458 0l0 26.61417l-28.346458 0z" fill-rule="nonzero"></path><path fill="#000000" fill-opacity="0.0" d="m109.4462 35.09186l32.503937 0l0 30.141735l-32.503937 0z" fill-rule="nonzero"></path><path stroke="#595959" stroke-width="2.0" stroke-linejoin="round" stroke-linecap="butt" d="m109.4462 35.09186l32.503937 0l0 30.141735l-32.503937 0z" fill-rule="nonzero"></path><path fill="#000000" fill-opacity="0.0" d="m-2.1993272 205.35957l102.58267 0l0 33.606308l-102.58267 0z" fill-rule="nonzero"></path><path fill="#4a86e8" d="m31.568575 210.42899q0 1.734375 -1.1875 2.671875q-1.171875 0.921875 -3.375 0.921875l-1.34375 0l0 4.5l-1.328125 0l0 -11.421875l2.953125 0q4.28125 0 4.28125 3.328125zm-5.90625 2.453125l1.1875 0q1.765625 0 2.546875 -0.5625q0.796875 -0.578125 0.796875 -1.828125q0 -1.140625 -0.75 -1.6875q-0.734375 -0.5625 -2.296875 -0.5625l-1.484375 0l0 4.640625zm13.367189 5.640625l-0.25 -1.21875l-0.0625 0q-0.640625 0.796875 -1.28125 1.09375q-0.640625 0.28125 -1.59375 0.28125q-1.265625 0 -2.0 -0.65625q-0.71875 -0.65625 -0.71875 -1.875q0 -2.59375 4.15625 -2.71875l1.453125 -0.046875l0 -0.53125q0 -1.0 -0.4375 -1.484375q-0.4375 -0.484375 -1.390625 -0.484375q-1.0625 0 -2.421875 0.65625l-0.390625 -0.984375q0.625 -0.34375 1.375 -0.53125q0.765625 -0.203125 1.515625 -0.203125q1.53125 0 2.265625 0.6875q0.75 0.671875 0.75 2.171875l0 5.84375l-0.96875 0zm-2.921875 -0.921875q1.203125 0 1.890625 -0.65625q0.703125 -0.671875 0.703125 -1.859375l0 -0.78125l-1.296875 0.0625q-1.546875 0.046875 -2.234375 0.484375q-0.6875 0.421875 -0.6875 1.3125q0 0.703125 0.421875 1.078125q0.4375 0.359375 1.203125 0.359375zm9.3203125 0q0.34375 0 0.65625 -0.046875q0.328125 -0.046875 0.515625 -0.109375l0 1.0q-0.203125 0.109375 -0.625 0.171875q-0.40625 0.0625 -0.734375 0.0625q-2.484375 0 -2.484375 -2.625l0 -5.09375l-1.21875 0l0 -0.625l1.21875 -0.53125l0.546875 -1.828125l0.75 0l0 1.984375l2.484375 0l0 1.0l-2.484375 0l0 5.046875q0 0.765625 0.359375 1.1875q0.375 0.40625 1.015625 0.40625zm4.1796875 0.921875l-1.296875 0l0 -8.5625l1.296875 0l0 8.5625zm-1.40625 -10.890625q0 -0.4375 0.21875 -0.640625q0.21875 -0.21875 0.546875 -0.21875q0.3125 0 0.53125 0.21875q0.234375 0.203125 0.234375 0.640625q0 0.4375 -0.234375 0.65625q-0.21875 0.21875 -0.53125 0.21875q-0.328125 0 -0.546875 -0.21875q-0.21875 -0.21875 -0.21875 -0.65625zm7.78125 11.046875q-1.90625 0 -3.0 -1.15625q-1.09375 -1.15625 -1.09375 -3.21875q0 -2.0625 1.015625 -3.28125q1.015625 -1.21875 2.734375 -1.21875q1.609375 0 2.546875 1.0625q0.9375 1.046875 0.9375 2.78125l0 0.828125l-5.890625 0q0.03125 1.5 0.75 2.28125q0.734375 0.78125 2.046875 0.78125q1.375 0 2.734375 -0.578125l0 1.15625q-0.6875 0.296875 -1.3125 0.421875q-0.609375 0.140625 -1.46875 0.140625zm-0.359375 -7.796875q-1.03125 0 -1.640625 0.671875q-0.609375 0.671875 -0.71875 1.859375l4.46875 0q0 -1.21875 -0.546875 -1.875q-0.546875 -0.65625 -1.5625 -0.65625zm11.570309 7.640625l0 -5.546875q0 -1.046875 -0.484375 -1.5625q-0.46875 -0.515625 -1.484375 -0.515625q-1.34375 0 -1.96875 0.734375q-0.625 0.71875 -0.625 2.390625l0 4.5l-1.2968712 0l0 -8.5625l1.0624962 0l0.203125 1.171875l0.0625 0q0.40625 -0.640625 1.125 -0.984375q0.71875 -0.34375 1.59375 -0.34375q1.546875 0 2.328125 0.75q0.78125 0.734375 0.78125 2.375l0 5.59375l-1.296875 0zm6.7265625 -0.921875q0.34375 0 0.65625 -0.046875q0.328125 -0.046875 0.515625 -0.109375l0 1.0q-0.203125 0.109375 -0.625 0.171875q-0.40625 0.0625 -0.734375 0.0625q-2.484375 0 -2.484375 -2.625l0 -5.09375l-1.21875 0l0 -0.625l1.21875 -0.53125l0.546875 -1.828125l0.75 0l0 1.984375l2.484375 0l0 1.0l-2.484375 0l0 5.046875q0 0.765625 0.359375 1.1875q0.375 0.40625 1.015625 0.40625z" fill-rule="nonzero"></path><path fill="#4a86e8" d="m14.666231 237.67899q-0.828125 0 -1.53125 -0.3125q-0.6875 -0.3125 -1.15625 -0.953125l-0.09375 0q0.09375 0.75 0.09375 1.4375l0 3.515625l-1.296875 0l0 -12.40625l1.0625 0l0.171875 1.171875l0.0625 0q0.5 -0.703125 1.15625 -1.015625q0.671875 -0.3125 1.53125 -0.3125q1.703125 0 2.625 1.171875q0.9375 1.15625 0.9375 3.25q0 2.109375 -0.953125 3.28125q-0.9375 1.171875 -2.609375 1.171875zm-0.1875 -7.78125q-1.3125 0 -1.90625 0.734375q-0.578125 0.71875 -0.59375 2.3125l0 0.28125q0 1.8125 0.59375 2.59375q0.609375 0.765625 1.9375 0.765625q1.109375 0 1.734375 -0.890625q0.640625 -0.90625 0.640625 -2.484375q0 -1.59375 -0.640625 -2.453125q-0.625 -0.859375 -1.765625 -0.859375zm11.8671875 7.625l0 -5.546875q0 -1.046875 -0.484375 -1.5625q-0.46875 -0.515625 -1.484375 -0.515625q-1.34375 0 -1.96875 0.734375q-0.625 0.734375 -0.625 2.40625l0 4.484375l-1.296875 0l0 -12.15625l1.296875 0l0 3.671875q0 0.671875 -0.0625 1.109375l0.078125 0q0.390625 -0.625 1.09375 -0.96875q0.703125 -0.359375 1.609375 -0.359375q1.578125 0 2.359375 0.75q0.78125 0.734375 0.78125 2.359375l0 5.59375l-1.296875 0zm2.6015625 -8.5625l1.390625 0l1.8750019 4.875q0.625 1.671875 0.765625 2.421875l0.0625 0q0.109375 -0.40625 0.421875 -1.359375q0.328125 -0.96875 2.125 -5.9375l1.390625 0l-3.671875 9.75q-0.546875 1.453125 -1.28125 2.046875q-0.7343769 0.609375 -1.7968769 0.609375q-0.59375 0 -1.171875 -0.125l0 -1.046875q0.4375 0.09375 0.96875 0.09375q1.328125 0 1.90625 -1.5l0.4687519 -1.21875l-3.453127 -8.609375zm14.953127 6.21875q0 1.203125 -0.890625 1.859375q-0.890625 0.640625 -2.5 0.640625q-1.703125 0 -2.65625 -0.546875l0 -1.203125q0.609375 0.3125 1.3125 0.5q0.71875 0.171875 1.375 0.171875q1.015625 0 1.5625 -0.3125q0.546875 -0.328125 0.546875 -1.0q0 -0.5 -0.4375 -0.84375q-0.4375 -0.359375 -1.6875 -0.84375q-1.203125 -0.453125 -1.703125 -0.78125q-0.5 -0.328125 -0.75 -0.75q-0.25 -0.421875 -0.25 -1.015625q0 -1.046875 0.84375 -1.640625q0.859375 -0.609375 2.34375 -0.609375q1.390625 0 2.703125 0.5625l-0.453125 1.046875q-1.296875 -0.53125 -2.34375 -0.53125q-0.921875 0 -1.390625 0.296875q-0.46875 0.28125 -0.46875 0.796875q0 0.34375 0.171875 0.59375q0.1875 0.234375 0.578125 0.453125q0.390625 0.21875 1.5 0.625q1.515625 0.5625 2.046875 1.125q0.546875 0.5625 0.546875 1.40625zm3.3984375 2.34375l-1.296875 0l0 -8.5625l1.296875 0l0 8.5625zm-1.40625 -10.890625q0 -0.4375 0.21875 -0.640625q0.21875 -0.21875 0.546875 -0.21875q0.3125 0 0.53125 0.21875q0.234375 0.203125 0.234375 0.640625q0 0.4375 -0.234375 0.65625q-0.21875 0.21875 -0.53125 0.21875q-0.328125 0 -0.546875 -0.21875q-0.21875 -0.21875 -0.21875 -0.65625zm11.546875 6.59375q0 2.09375 -1.0625 3.28125q-1.046875 1.171875 -2.90625 1.171875q-1.140625 0 -2.03125 -0.53125q-0.890625 -0.546875 -1.375 -1.546875q-0.484375 -1.015625 -0.484375 -2.375q0 -2.09375 1.046875 -3.25q1.046875 -1.171875 2.90625 -1.171875q1.796875 0 2.84375 1.203125q1.0625 1.1875 1.0625 3.21875zm-6.515625 0q0 1.640625 0.65625 2.5q0.65625 0.859375 1.921875 0.859375q1.28125 0 1.9375 -0.84375q0.65625 -0.859375 0.65625 -2.515625q0 -1.625 -0.65625 -2.46875q-0.65625 -0.859375 -1.953125 -0.859375q-1.265625 0 -1.921875 0.84375q-0.640625 0.828125 -0.640625 2.484375zm10.0859375 4.296875l-1.296875 0l0 -12.15625l1.296875 0l0 12.15625zm10.140621 -4.296875q0 2.09375 -1.0625 3.28125q-1.046875 1.171875 -2.90625 1.171875q-1.140625 0 -2.03125 -0.53125q-0.890625 -0.546875 -1.375 -1.546875q-0.484375 -1.015625 -0.484375 -2.375q0 -2.09375 1.046875 -3.25q1.046875 -1.171875 2.90625 -1.171875q1.796875 0 2.84375 1.203125q1.0625 1.1875 1.0625 3.21875zm-6.515625 0q0 1.640625 0.65625 2.5q0.65625 0.859375 1.921875 0.859375q1.28125 0 1.9375 -0.84375q0.65625 -0.859375 0.65625 -2.515625q0 -1.625 -0.65625 -2.46875q-0.65625 -0.859375 -1.953125 -0.859375q-1.265625 0 -1.921875 0.84375q-0.640625 0.828125 -0.640625 2.484375zm15.8046875 -4.265625l0 0.8125l-1.59375 0.1875q0.21875 0.28125 0.390625 0.71875q0.171875 0.4375 0.171875 1.0q0 1.25 -0.859375 2.0q-0.859375 0.75 -2.359375 0.75q-0.375 0 -0.71875 -0.0625q-0.828125 0.4375 -0.828125 1.109375q0 0.34375 0.28125 0.515625q0.296875 0.171875 1.0 0.171875l1.515625 0q1.390625 0 2.140625 0.59375q0.75 0.578125 0.75 1.703125q0 1.421875 -1.140625 2.15625q-1.140625 0.75 -3.328125 0.75q-1.6875 0 -2.59375 -0.625q-0.90625 -0.625 -0.90625 -1.765625q0 -0.78125 0.5 -1.359375q0.5 -0.5625 1.40625 -0.765625q-0.328125 -0.15625 -0.5625 -0.46875q-0.21875 -0.3125 -0.21875 -0.71875q0 -0.46875 0.25 -0.8125q0.25 -0.359375 0.796875 -0.6875q-0.671875 -0.28125 -1.09375 -0.9375q-0.40625 -0.65625 -0.40625 -1.5q0 -1.40625 0.84375 -2.15625q0.84375 -0.765625 2.390625 -0.765625q0.671875 0 1.203125 0.15625l2.96875 0zm-6.828125 10.0q0 0.703125 0.578125 1.0625q0.59375 0.359375 1.6875 0.359375q1.625 0 2.40625 -0.5q0.796875 -0.484375 0.796875 -1.3125q0 -0.703125 -0.4375 -0.984375q-0.421875 -0.265625 -1.609375 -0.265625l-1.5625 0q-0.875 0 -1.375 0.421875q-0.484375 0.4375 -0.484375 1.21875zm0.703125 -7.265625q0 0.90625 0.5 1.375q0.515625 0.453125 1.421875 0.453125q1.890625 0 1.890625 -1.84375q0 -1.9375 -1.921875 -1.9375q-0.90625 0 -1.40625 0.5q-0.484375 0.484375 -0.484375 1.453125zm6.515625 -2.734375l1.390625 0l1.875 4.875q0.625 1.671875 0.765625 2.421875l0.0625 0q0.109375 -0.40625 0.421875 -1.359375q0.328125 -0.96875 2.125 -5.9375l1.390625 0l-3.671875 9.75q-0.546875 1.453125 -1.28125 2.046875q-0.734375 0.609375 -1.796875 0.609375q-0.59375 0 -1.171875 -0.125l0 -1.046875q0.4375 0.09375 0.96875 0.09375q1.328125 0 1.90625 -1.5l0.46875 -1.21875l-3.453125 -8.609375z" fill-rule="nonzero"></path><path fill="#000000" fill-opacity="0.0" d="m154.68767 205.35957l107.37007 0l0 33.606308l-107.37007 0z" fill-rule="nonzero"></path><path fill="#ff9900" d="m170.53287 228.02274l-1.328125 0l0 -10.25l-3.625 0l0 -1.171875l8.5625 0l0 1.171875l-3.609375 0l0 10.25zm9.0390625 -8.71875q0.578125 0 1.03125 0.09375l-0.1875 1.203125q-0.53125 -0.125 -0.9375 -0.125q-1.03125 0 -1.78125 0.84375q-0.734375 0.84375 -0.734375 2.109375l0 4.59375l-1.296875 0l0 -8.5625l1.078125 0l0.140625 1.578125l0.0625 0q0.484375 -0.828125 1.15625 -1.28125q0.671875 -0.453125 1.46875 -0.453125zm6.25 8.875q-1.90625 0 -3.0 -1.15625q-1.09375 -1.15625 -1.09375 -3.21875q0 -2.0625 1.015625 -3.28125q1.015625 -1.21875 2.734375 -1.21875q1.609375 0 2.546875 1.0625q0.9375 1.046875 0.9375 2.78125l0 0.828125l-5.890625 0q0.03125 1.5 0.75 2.28125q0.734375 0.78125 2.046875 0.78125q1.375 0 2.734375 -0.578125l0 1.15625q-0.6875 0.296875 -1.3125 0.421875q-0.609375 0.140625 -1.46875 0.140625zm-0.359375 -7.796875q-1.03125 0 -1.640625 0.671875q-0.609375 0.671875 -0.71875 1.859375l4.46875 0q0 -1.21875 -0.546875 -1.875q-0.546875 -0.65625 -1.5625 -0.65625zm10.9765625 7.640625l-0.25 -1.21875l-0.0625 0q-0.640625 0.796875 -1.28125 1.09375q-0.640625 0.28125 -1.59375 0.28125q-1.265625 0 -2.0 -0.65625q-0.71875 -0.65625 -0.71875 -1.875q0 -2.59375 4.15625 -2.71875l1.453125 -0.046875l0 -0.53125q0 -1.0 -0.4375 -1.484375q-0.4375 -0.484375 -1.390625 -0.484375q-1.0625 0 -2.421875 0.65625l-0.390625 -0.984375q0.625 -0.34375 1.375 -0.53125q0.765625 -0.203125 1.515625 -0.203125q1.53125 0 2.265625 0.6875q0.75 0.671875 0.75 2.171875l0 5.84375l-0.96875 0zm-2.921875 -0.921875q1.203125 0 1.890625 -0.65625q0.703125 -0.671875 0.703125 -1.859375l0 -0.78125l-1.296875 0.0625q-1.546875 0.046875 -2.234375 0.484375q-0.6875 0.421875 -0.6875 1.3125q0 0.703125 0.421875 1.078125q0.4375 0.359375 1.203125 0.359375zm9.3203125 0q0.34375 0 0.65625 -0.046875q0.328125 -0.046875 0.515625 -0.109375l0 1.0q-0.203125 0.109375 -0.625 0.171875q-0.40625 0.0625 -0.734375 0.0625q-2.484375 0 -2.484375 -2.625l0 -5.09375l-1.21875 0l0 -0.625l1.21875 -0.53125l0.546875 -1.828125l0.75 0l0 1.984375l2.484375 0l0 1.0l-2.484375 0l0 5.046875q0 0.765625 0.359375 1.1875q0.375 0.40625 1.015625 0.40625zm13.8046875 0.921875l0 -5.578125q0 -1.015625 -0.4375 -1.53125q-0.4375 -0.515625 -1.359375 -0.515625q-1.21875 0 -1.796875 0.703125q-0.578125 0.6875 -0.578125 2.140625l0 4.78125l-1.296875 0l0 -5.578125q0 -1.015625 -0.4375 -1.53125q-0.4375 -0.515625 -1.359375 -0.515625q-1.21875 0 -1.796875 0.734375q-0.5625 0.734375 -0.5625 2.390625l0 4.5l-1.296875 0l0 -8.5625l1.0625 0l0.203125 1.171875l0.0625 0q0.375 -0.625 1.03125 -0.96875q0.671875 -0.359375 1.5 -0.359375q2.015625 0 2.625 1.453125l0.0625 0q0.390625 -0.671875 1.109375 -1.0625q0.734375 -0.390625 1.65625 -0.390625q1.453125 0 2.171875 0.75q0.734375 0.734375 0.734375 2.375l0 5.59375l-1.296875 0zm7.5859375 0.15625q-1.90625 0 -3.0 -1.15625q-1.09375 -1.15625 -1.09375 -3.21875q0 -2.0625 1.015625 -3.28125q1.015625 -1.21875 2.734375 -1.21875q1.609375 0 2.546875 1.0625q0.9375 1.046875 0.9375 2.78125l0 0.828125l-5.890625 0q0.03125 1.5 0.75 2.28125q0.734375 0.78125 2.046875 0.78125q1.375 0 2.734375 -0.578125l0 1.15625q-0.6875 0.296875 -1.3125 0.421875q-0.609375 0.140625 -1.46875 0.140625zm-0.359375 -7.796875q-1.03125 0 -1.640625 0.671875q-0.609375 0.671875 -0.71875 1.859375l4.46875 0q0 -1.21875 -0.546875 -1.875q-0.546875 -0.65625 -1.5625 -0.65625zm11.5703125 7.640625l0 -5.546875q0 -1.046875 -0.484375 -1.5625q-0.46875 -0.515625 -1.484375 -0.515625q-1.34375 0 -1.96875 0.734375q-0.625 0.71875 -0.625 2.390625l0 4.5l-1.296875 0l0 -8.5625l1.0625 0l0.203125 1.171875l0.0625 0q0.40625 -0.640625 1.125 -0.984375q0.71875 -0.34375 1.59375 -0.34375q1.546875 0 2.328125 0.75q0.78125 0.734375 0.78125 2.375l0 5.59375l-1.296875 0zm6.7265625 -0.921875q0.34375 0 0.65625 -0.046875q0.328125 -0.046875 0.515625 -0.109375l0 1.0q-0.203125 0.109375 -0.625 0.171875q-0.40625 0.0625 -0.734375 0.0625q-2.484375 0 -2.484375 -2.625l0 -5.09375l-1.21875 0l0 -0.625l1.21875 -0.53125l0.546875 -1.828125l0.75 0l0 1.984375l2.484375 0l0 1.0l-2.484375 0l0 5.046875q0 0.765625 0.359375 1.1875q0.375 0.40625 1.015625 0.40625zm8.4140625 -1.421875q0 1.203125 -0.890625 1.859375q-0.890625 0.640625 -2.5 0.640625q-1.703125 0 -2.65625 -0.546875l0 -1.203125q0.609375 0.3125 1.3125 0.5q0.71875 0.171875 1.375 0.171875q1.015625 0 1.5625 -0.3125q0.546875 -0.328125 0.546875 -1.0q0 -0.5 -0.4375 -0.84375q-0.4375 -0.359375 -1.6875 -0.84375q-1.203125 -0.453125 -1.703125 -0.78125q-0.5 -0.328125 -0.75 -0.75q-0.25 -0.421875 -0.25 -1.015625q0 -1.046875 0.84375 -1.640625q0.859375 -0.609375 2.34375 -0.609375q1.390625 0 2.703125 0.5625l-0.453125 1.046875q-1.296875 -0.53125 -2.34375 -0.53125q-0.921875 0 -1.390625 0.296875q-0.46875 0.28125 -0.46875 0.796875q0 0.34375 0.171875 0.59375q0.1875 0.234375 0.578125 0.453125q0.390625 0.21875 1.5 0.625q1.515625 0.5625 2.046875 1.125q0.546875 0.5625 0.546875 1.40625z" fill-rule="nonzero"></path><path fill="#000000" fill-opacity="0.0" d="m10.816273 27.496063l107.37007 0l0 44.220474l-107.37007 0z" fill-rule="nonzero"></path><path fill="#e06666" d="m46.977875 37.872547q0 1.734375 -1.1875 2.671875q-1.171875 0.921875 -3.375 0.921875l-1.34375 0l0 4.5l-1.328125 0l0 -11.421875l2.953125 0q4.28125 0 4.28125 3.328125zm-5.90625 2.453125l1.1875 0q1.765625 0 2.546875 -0.5625q0.796875 -0.578125 0.796875 -1.828125q0 -1.140625 -0.75 -1.6875q-0.734375 -0.5625 -2.296875 -0.5625l-1.484375 0l0 4.640625zm13.3671875 5.640625l-0.25 -1.21875l-0.0625 0q-0.640625 0.796875 -1.28125 1.09375q-0.640625 0.28125 -1.59375 0.28125q-1.265625 0 -2.0 -0.65625q-0.71875 -0.65625 -0.71875 -1.875q0 -2.59375 4.15625 -2.71875l1.453125 -0.046875l0 -0.53125q0 -1.0 -0.4375 -1.484375q-0.4375 -0.484375 -1.390625 -0.484375q-1.0625 0 -2.421875 0.65625l-0.390625 -0.984375q0.625 -0.34375 1.375 -0.53125q0.765625 -0.203125 1.515625 -0.203125q1.53125 0 2.265625 0.6875q0.75 0.671875 0.75 2.171875l0 5.84375l-0.96875 0zm-2.921875 -0.921875q1.203125 0 1.890625 -0.65625q0.703125 -0.671875 0.703125 -1.859375l0 -0.78125l-1.296875 0.0625q-1.546875 0.046875 -2.234375 0.484375q-0.6875 0.421875 -0.6875 1.3125q0 0.703125 0.421875 1.078125q0.4375 0.359375 1.203125 0.359375zm9.3203125 0q0.34375 0 0.65625 -0.046875q0.328125 -0.046875 0.515625 -0.109375l0 1.0q-0.203125 0.109375 -0.625 0.171875q-0.40625 0.0625 -0.734375 0.0625q-2.484375 0 -2.484375 -2.625l0 -5.09375l-1.21875 0l0 -0.625l1.21875 -0.53125l0.546875 -1.828125l0.75 0l0 1.984375l2.484375 0l0 1.0l-2.484375 0l0 5.046875q0 0.765625 0.359375 1.1875q0.375 0.40625 1.015625 0.40625zm4.1796875 0.921875l-1.296875 0l0 -8.5625l1.296875 0l0 8.5625zm-1.40625 -10.890625q0 -0.4375 0.21875 -0.640625q0.21875 -0.21875 0.546875 -0.21875q0.3125 0 0.53125 0.21875q0.234375 0.203125 0.234375 0.640625q0 0.4375 -0.234375 0.65625q-0.21875 0.21875 -0.53125 0.21875q-0.328125 0 -0.546875 -0.21875q-0.21875 -0.21875 -0.21875 -0.65625zm7.78125 11.046875q-1.90625 0 -3.0 -1.15625q-1.09375 -1.15625 -1.09375 -3.21875q0 -2.0625 1.015625 -3.28125q1.015625 -1.21875 2.734375 -1.21875q1.609375 0 2.546875 1.0625q0.9375 1.046875 0.9375 2.78125l0 0.828125l-5.890625 0q0.03125 1.5 0.75 2.28125q0.734375 0.78125 2.046875 0.78125q1.375 0 2.734375 -0.578125l0 1.15625q-0.6875 0.296875 -1.3125 0.421875q-0.609375 0.140625 -1.46875 0.140625zm-0.359375 -7.796875q-1.03125 0 -1.640625 0.671875q-0.609375 0.671875 -0.71875 1.859375l4.46875 0q0 -1.21875 -0.546875 -1.875q-0.546875 -0.65625 -1.5625 -0.65625zm11.57032 7.640625l0 -5.546875q0 -1.046875 -0.484375 -1.5625q-0.46875 -0.515625 -1.484375 -0.515625q-1.34375 0 -1.96875 0.734375q-0.625 0.71875 -0.625 2.390625l0 4.5l-1.296875 0l0 -8.5625l1.0625 0l0.203125 1.171875l0.0625 0q0.40625 -0.640625 1.125 -0.984375q0.71875 -0.34375 1.59375 -0.34375q1.546875 0 2.328125 0.75q0.78125 0.734375 0.78125 2.375l0 5.59375l-1.296875 0zm6.7265625 -0.921875q0.34375 0 0.65625 -0.046875q0.328125 -0.046875 0.515625 -0.109375l0 1.0q-0.203125 0.109375 -0.625 0.171875q-0.40625 0.0625 -0.734375 0.0625q-2.484375 0 -2.484375 -2.625l0 -5.09375l-1.21875 0l0 -0.625l1.21875 -0.53125l0.546875 -1.828125l0.75 0l0 1.984375l2.484375 0l0 1.0l-2.484375 0l0 5.046875q0 0.765625 0.359375 1.1875q0.375 0.40625 1.015625 0.40625z" fill-rule="nonzero"></path><path fill="#e06666" d="m37.63022 64.9663l-3.875 -10.125l-0.0625 0q0.109375 1.203125 0.109375 2.859375l0 7.265625l-1.21875 0l0 -11.421875l2.0 0l3.609375 9.421875l0.0625 0l3.65625 -9.421875l1.984375 0l0 11.421875l-1.328125 0l0 -7.359375q0 -1.265625 0.109375 -2.75l-0.0625 0l-3.90625 10.109375l-1.078125 0zm16.585938 -4.296875q0 2.09375 -1.0625 3.28125q-1.046875 1.171875 -2.90625 1.171875q-1.140625 0 -2.03125 -0.53125q-0.890625 -0.546875 -1.375 -1.546875q-0.484375 -1.015625 -0.484375 -2.375q0 -2.09375 1.046875 -3.25q1.046875 -1.171875 2.90625 -1.171875q1.796875 0 2.84375 1.203125q1.0625 1.1875 1.0625 3.21875zm-6.515625 0q0 1.640625 0.65625 2.5q0.65625 0.859375 1.921875 0.859375q1.28125 0 1.9375 -0.84375q0.65625 -0.859375 0.65625 -2.515625q0 -1.625 -0.65625 -2.46875q-0.65625 -0.859375 -1.953125 -0.859375q-1.265625 0 -1.921875 0.84375q-0.640625 0.828125 -0.640625 2.484375zm12.6953125 -4.421875q0.578125 0 1.03125 0.09375l-0.1875 1.203125q-0.53125 -0.125 -0.9375 -0.125q-1.03125 0 -1.78125 0.84375q-0.734375 0.84375 -0.734375 2.109375l0 4.59375l-1.296875 0l0 -8.5625l1.078125 0l0.140625 1.578125l0.0625 0q0.484375 -0.828125 1.15625 -1.28125q0.671875 -0.453125 1.46875 -0.453125zm5.390625 7.796875q0.34375 0 0.65625 -0.046875q0.328125 -0.046875 0.515625 -0.109375l0 1.0q-0.203125 0.109375 -0.625 0.171875q-0.40625 0.0625 -0.734375 0.0625q-2.484375 0 -2.484375 -2.625l0 -5.09375l-1.21875 0l0 -0.625l1.21875 -0.53125l0.546875 -1.828125l0.75 0l0 1.984375l2.484375 0l0 1.0l-2.484375 0l0 5.046875q0 0.765625 0.359375 1.1875q0.375 0.40625 1.015625 0.40625zm8.1484375 0.921875l-0.25 -1.21875l-0.0625 0q-0.640625 0.796875 -1.28125 1.09375q-0.640625 0.28125 -1.59375 0.28125q-1.265625 0 -2.0 -0.65625q-0.71875 -0.65625 -0.71875 -1.875q0 -2.59375 4.15625 -2.71875l1.453125 -0.046875l0 -0.53125q0 -1.0 -0.4375 -1.484375q-0.4375 -0.484375 -1.390625 -0.484375q-1.0625 0 -2.421875 0.65625l-0.390625 -0.984375q0.625 -0.34375 1.375 -0.53125q0.765625 -0.203125 1.515625 -0.203125q1.53125 0 2.265625 0.6875q0.7500076 0.671875 0.7500076 2.171875l0 5.84375l-0.9687576 0zm-2.921875 -0.921875q1.203125 0 1.890625 -0.65625q0.703125 -0.671875 0.703125 -1.859375l0 -0.78125l-1.296875 0.0625q-1.546875 0.046875 -2.234375 0.484375q-0.6875 0.421875 -0.6875 1.3125q0 0.703125 0.421875 1.078125q0.4375 0.359375 1.203125 0.359375zm7.85157 0.921875l-1.296875 0l0 -12.15625l1.296875 0l0 12.15625zm4.046875 0l-1.296875 0l0 -8.5625l1.296875 0l0 8.5625zm-1.40625 -10.890625q0 -0.4375 0.21875 -0.640625q0.21875 -0.21875 0.546875 -0.21875q0.3125 0 0.53125 0.21875q0.234375 0.203125 0.234375 0.640625q0 0.4375 -0.234375 0.65625q-0.21875 0.21875 -0.53125 0.21875q-0.328125 0 -0.546875 -0.21875q-0.21875 -0.21875 -0.21875 -0.65625zm6.921875 9.96875q0.34375 0 0.65625 -0.046875q0.328125 -0.046875 0.515625 -0.109375l0 1.0q-0.203125 0.109375 -0.625 0.171875q-0.40625 0.0625 -0.734375 0.0625q-2.484375 0 -2.484375 -2.625l0 -5.09375l-1.21875 0l0 -0.625l1.21875 -0.53125l0.546875 -1.828125l0.75 0l0 1.984375l2.484375 0l0 1.0l-2.484375 0l0 5.046875q0 0.765625 0.359375 1.1875q0.375 0.40625 1.015625 0.40625zm1.5234375 -7.640625l1.390625 0l1.875 4.875q0.625 1.671875 0.765625 2.421875l0.0625 0q0.109375 -0.40625 0.421875 -1.359375q0.328125 -0.96875 2.125 -5.9375l1.390625 0l-3.671875 9.75q-0.546875 1.453125 -1.28125 2.046875q-0.734375 0.609375 -1.796875 0.609375q-0.59375 0 -1.171875 -0.125l0 -1.046875q0.4375 0.09375 0.96875 0.09375q1.328125 0 1.90625 -1.5l0.46875 -1.21875l-3.453125 -8.609375z" fill-rule="nonzero"></path><path fill="#000000" fill-opacity="0.0" d="m198.05774 99.03937l75.212616 0l0 64.566925l-75.212616 0z" fill-rule="nonzero"></path><path fill="#000000" d="m227.78746 128.94658l0 -2.34375l15.890625 0l0 2.34375l-15.890625 0zm0 6.984375l0 -2.34375l15.890625 0l0 2.34375l-15.890625 0z" fill-rule="nonzero"></path><path fill="#000000" fill-opacity="0.0" d="m101.60105 252.0l2.6771622 0l0 2.9921265l-2.6771622 0z" fill-rule="nonzero"></path><path fill="#000000" fill-opacity="0.0" d="m106.49541 242.21523l39.905518 0l0 16.7874l-39.905518 0z" fill-rule="nonzero"></path><path fill="#000000" d="m129.75972 257.52893l-1.796875 0l-3.640625 -5.9687653l-3.703125 5.9687653l-1.671875 0l4.5 -7.0937653l-4.203125 -6.46875l1.75 0l3.375 5.375l3.390625 -5.375l1.671875 0l-4.203125 6.421875l4.53125 7.1406403z" fill-rule="nonzero"></path><path fill="#000000" d="m132.7459 263.84143q0.25 0 0.484375 -0.03125q0.25 -0.046875 0.390625 -0.078125l0 0.734375q-0.15625 0.078125 -0.46875 0.125q-0.296875 0.0625 -0.546875 0.0625q-1.859375 0 -1.859375 -1.96875l0 -3.828125l-0.921875 0l0 -0.46875l0.921875 -0.40625l0.40625 -1.359375l0.5625 0l0 1.484375l1.859375 0l0 0.75l-1.859375 0l0 3.78125q0 0.578125 0.265625 0.890625q0.28125 0.3125 0.765625 0.3125z" fill-rule="nonzero"></path><path fill="#000000" fill-opacity="0.0" d="m293.9462 207.09186l64.50394 0l0 30.141739l-64.50394 0z" fill-rule="nonzero"></path><path stroke="#595959" stroke-width="2.0" stroke-linejoin="round" stroke-linecap="butt" d="m293.9462 207.09186l64.50394 0l0 30.141739l-64.50394 0z" fill-rule="nonzero"></path><path fill="#ff9900" d="m327.77823 208.85826l28.346436 0l0 26.614182l-28.346436 0z" fill-rule="nonzero"></path><path fill="#4a86e8" d="m295.77823 208.85826l28.346436 0l0 26.614182l-28.346436 0z" fill-rule="nonzero"></path><path fill="#000000" fill-opacity="0.0" d="m325.79266 204.46982l0 -35.968506" fill-rule="nonzero"></path><path stroke="#595959" stroke-width="2.0" stroke-linejoin="round" stroke-linecap="butt" d="m325.79266 204.46982l0 -23.968506" fill-rule="evenodd"></path><path fill="#595959" stroke="#595959" stroke-width="2.0" stroke-linecap="butt" d="m329.09613 180.50131l-3.3034668 -9.076202l-3.3034668 9.076202z" fill-rule="evenodd"></path><path fill="#000000" fill-opacity="0.0" d="m277.4462 113.0105l96.22046 0l0 52.7874l-96.22046 0z" fill-rule="nonzero"></path><path stroke="#595959" stroke-width="2.0" stroke-linejoin="round" stroke-linecap="butt" d="m277.4462 113.0105l96.22046 0l0 52.7874l-96.22046 0z" fill-rule="nonzero"></path><path fill="#cccccc" d="m279.43045 115.00661l92.188965 0l0 48.598434l-92.188965 0z" fill-rule="nonzero"></path><path fill="#000000" d="m306.81552 146.22581l0 -13.59375l6.03125 0q1.8125 0 2.75 0.359375q0.953125 0.359375 1.515625 1.296875q0.5625 0.921875 0.5625 2.046875q0 1.453125 -0.9375 2.453125q-0.921875 0.984375 -2.890625 1.25q0.71875 0.34375 1.09375 0.671875q0.78125 0.734375 1.484375 1.8125l2.375 3.703125l-2.265625 0l-1.796875 -2.828125q-0.796875 -1.21875 -1.3125 -1.875q-0.5 -0.65625 -0.90625 -0.90625q-0.40625 -0.265625 -0.8125 -0.359375q-0.3125 -0.078125 -1.015625 -0.078125l-2.078125 0l0 6.046875l-1.796875 0zm1.796875 -7.59375l3.859375 0q1.234375 0 1.921875 -0.25q0.703125 -0.265625 1.0625 -0.828125q0.375 -0.5625 0.375 -1.21875q0 -0.96875 -0.703125 -1.578125q-0.703125 -0.625 -2.21875 -0.625l-4.296875 0l0 4.5zm11.629181 7.59375l0 -13.59375l1.84375 0l7.140625 10.671875l0 -10.671875l1.71875 0l0 13.59375l-1.84375 0l-7.140625 -10.6875l0 10.6875l-1.71875 0zm13.472961 0l0 -13.59375l1.84375 0l7.140625 10.671875l0 -10.671875l1.71875 0l0 13.59375l-1.84375 0l-7.140625 -10.6875l0 10.6875l-1.71875 0z" fill-rule="nonzero"></path><path fill="#000000" fill-opacity="0.0" d="m372.63174 139.30582l25.574799 0" fill-rule="nonzero"></path><path stroke="#595959" stroke-width="2.0" stroke-linejoin="round" stroke-linecap="butt" d="m372.6317 139.30583l13.574829 0" fill-rule="evenodd"></path><path fill="#595959" stroke="#595959" stroke-width="2.0" stroke-linecap="butt" d="m386.20654 142.60928l9.076172 -3.3034515l-9.076172 -3.3034668z" fill-rule="evenodd"></path><path fill="#ffffff" d="m375.16428 137.33383l-2.6771545 0l0 1.0393677l2.6771545 0z" fill-rule="nonzero"></path><path fill="#ffffff" d="m375.16428 140.27133l-2.6771545 0l0 1.0393677l2.6771545 0z" fill-rule="nonzero"></path><path fill="#000000" fill-opacity="0.0" d="m325.55643 113.0105l0 -44.220474" fill-rule="nonzero"></path><path stroke="#595959" stroke-width="2.0" stroke-linejoin="round" stroke-linecap="butt" d="m325.55643 113.0105l0 -32.220474" fill-rule="evenodd"></path><path fill="#595959" stroke="#595959" stroke-width="2.0" stroke-linecap="butt" d="m328.8599 80.79002l-3.3034668 -9.076195l-3.3034668 9.076195z" fill-rule="evenodd"></path><path fill="#e06666" d="m311.61942 36.97638l28.346466 0l0 26.61417l-28.346466 0z" fill-rule="nonzero"></path><path fill="#000000" fill-opacity="0.0" d="m309.4462 35.09186l32.503937 0l0 30.141735l-32.503937 0z" fill-rule="nonzero"></path><path stroke="#595959" stroke-width="2.0" stroke-linejoin="round" stroke-linecap="butt" d="m309.4462 35.09186l32.503937 0l0 30.141735l-32.503937 0z" fill-rule="nonzero"></path><path fill="#000000" fill-opacity="0.0" d="m301.60104 252.0l2.677185 0l0 2.9921265l-2.677185 0z" fill-rule="nonzero"></path><path fill="#000000" fill-opacity="0.0" d="m306.4954 242.21523l39.905518 0l0 16.7874l-39.905518 0z" fill-rule="nonzero"></path><path fill="#000000" d="m328.39938 257.52893l-1.796875 0l-3.640625 -5.9687653l-3.703125 5.9687653l-1.671875 0l4.5 -7.0937653l-4.203125 -6.46875l1.75 0l3.375 5.375l3.390625 -5.375l1.671875 0l-4.203125 6.421875l4.53125 7.1406403z" fill-rule="nonzero"></path><path fill="#000000" d="m334.5418 260.23206q0 2.21875 -0.703125 3.328125q-0.703125 1.09375 -2.140625 1.09375q-1.375 0 -2.109375 -1.125q-0.71875 -1.125 -0.71875 -3.296875q0 -2.234375 0.703125 -3.3125q0.703125 -1.0937653 2.125 -1.0937653q1.390625 0 2.109375 1.1406403q0.734375 1.125 0.734375 3.265625zm-4.6875 0q0 1.875 0.4375 2.734375q0.453125 0.84375 1.40625 0.84375q0.96875 0 1.40625 -0.859375q0.4375 -0.875 0.4375 -2.71875q0 -1.84375 -0.4375 -2.703125q-0.4375 -0.859375 -1.40625 -0.859375q-0.953125 0 -1.40625 0.84375q-0.4375 0.84375 -0.4375 2.71875z" fill-rule="nonzero"></path><path fill="#000000" fill-opacity="0.0" d="m421.9462 207.09186l64.50394 0l0 30.141739l-64.50394 0z" fill-rule="nonzero"></path><path stroke="#595959" stroke-width="2.0" stroke-linejoin="round" stroke-linecap="butt" d="m421.9462 207.09186l64.50394 0l0 30.141739l-64.50394 0z" fill-rule="nonzero"></path><path fill="#ff9900" d="m455.77823 208.85826l28.346436 0l0 26.614182l-28.346436 0z" fill-rule="nonzero"></path><path fill="#4a86e8" d="m423.77823 208.85826l28.346436 0l0 26.614182l-28.346436 0z" fill-rule="nonzero"></path><path fill="#000000" fill-opacity="0.0" d="m453.79266 204.46982l0 -35.968506" fill-rule="nonzero"></path><path stroke="#595959" stroke-width="2.0" stroke-linejoin="round" stroke-linecap="butt" d="m453.79266 204.46982l0 -23.968506" fill-rule="evenodd"></path><path fill="#595959" stroke="#595959" stroke-width="2.0" stroke-linecap="butt" d="m457.09613 180.50131l-3.3034668 -9.076202l-3.3034668 9.076202z" fill-rule="evenodd"></path><path fill="#000000" fill-opacity="0.0" d="m405.4462 113.0105l96.22046 0l0 52.7874l-96.22046 0z" fill-rule="nonzero"></path><path stroke="#595959" stroke-width="2.0" stroke-linejoin="round" stroke-linecap="butt" d="m405.4462 113.0105l96.22046 0l0 52.7874l-96.22046 0z" fill-rule="nonzero"></path><path fill="#cccccc" d="m407.43045 115.00661l92.188965 0l0 48.598434l-92.188965 0z" fill-rule="nonzero"></path><path fill="#000000" d="m434.81552 146.22581l0 -13.59375l6.03125 0q1.8125 0 2.75 0.359375q0.953125 0.359375 1.515625 1.296875q0.5625 0.921875 0.5625 2.046875q0 1.453125 -0.9375 2.453125q-0.921875 0.984375 -2.890625 1.25q0.71875 0.34375 1.09375 0.671875q0.78125 0.734375 1.484375 1.8125l2.375 3.703125l-2.265625 0l-1.796875 -2.828125q-0.796875 -1.21875 -1.3125 -1.875q-0.5 -0.65625 -0.90625 -0.90625q-0.40625 -0.265625 -0.8125 -0.359375q-0.3125 -0.078125 -1.015625 -0.078125l-2.078125 0l0 6.046875l-1.796875 0zm1.796875 -7.59375l3.859375 0q1.234375 0 1.921875 -0.25q0.703125 -0.265625 1.0625 -0.828125q0.375 -0.5625 0.375 -1.21875q0 -0.96875 -0.703125 -1.578125q-0.703125 -0.625 -2.21875 -0.625l-4.296875 0l0 4.5zm11.629181 7.59375l0 -13.59375l1.84375 0l7.140625 10.671875l0 -10.671875l1.71875 0l0 13.59375l-1.84375 0l-7.140625 -10.6875l0 10.6875l-1.71875 0zm13.472961 0l0 -13.59375l1.84375 0l7.140625 10.671875l0 -10.671875l1.71875 0l0 13.59375l-1.84375 0l-7.140625 -10.6875l0 10.6875l-1.71875 0z" fill-rule="nonzero"></path><path fill="#000000" fill-opacity="0.0" d="m628.6317 139.30582l135.9685 0" fill-rule="nonzero"></path><path stroke="#595959" stroke-width="2.0" stroke-linejoin="round" stroke-linecap="butt" d="m628.6317 139.30583l123.968506 0" fill-rule="evenodd"></path><path fill="#595959" stroke="#595959" stroke-width="2.0" stroke-linecap="butt" d="m752.6002 142.60928l9.076233 -3.3034515l-9.076233 -3.3034668z" fill-rule="evenodd"></path><path fill="#ffffff" d="m503.16428 137.33383l-2.6771545 0l0 1.0393677l2.6771545 0z" fill-rule="nonzero"></path><path fill="#ffffff" d="m503.16428 140.27133l-2.6771545 0l0 1.0393677l2.6771545 0z" fill-rule="nonzero"></path><path fill="#000000" fill-opacity="0.0" d="m453.55643 113.0105l0 -44.220474" fill-rule="nonzero"></path><path stroke="#595959" stroke-width="2.0" stroke-linejoin="round" stroke-linecap="butt" d="m453.55643 113.0105l0 -32.220474" fill-rule="evenodd"></path><path fill="#595959" stroke="#595959" stroke-width="2.0" stroke-linecap="butt" d="m456.8599 80.79002l-3.3034668 -9.076195l-3.3034668 9.076195z" fill-rule="evenodd"></path><path fill="#e06666" d="m439.61942 36.97638l28.346466 0l0 26.61417l-28.346466 0z" fill-rule="nonzero"></path><path fill="#000000" fill-opacity="0.0" d="m437.4462 35.09186l32.503937 0l0 30.141735l-32.503937 0z" fill-rule="nonzero"></path><path stroke="#595959" stroke-width="2.0" stroke-linejoin="round" stroke-linecap="butt" d="m437.4462 35.09186l32.503937 0l0 30.141735l-32.503937 0z" fill-rule="nonzero"></path><path fill="#000000" fill-opacity="0.0" d="m429.60104 252.0l2.677185 0l0 2.9921265l-2.677185 0z" fill-rule="nonzero"></path><path fill="#000000" fill-opacity="0.0" d="m434.4954 242.21523l39.905518 0l0 16.7874l-39.905518 0z" fill-rule="nonzero"></path><path fill="#000000" d="m456.39938 257.52893l-1.796875 0l-3.640625 -5.9687653l-3.703125 5.9687653l-1.671875 0l4.5 -7.0937653l-4.203125 -6.46875l1.75 0l3.375 5.375l3.390625 -5.375l1.671875 0l-4.203125 6.421875l4.53125 7.1406403z" fill-rule="nonzero"></path><path fill="#000000" d="m460.46368 264.52893l-0.953125 0l0 -6.109375q0 -0.765625 0.046875 -1.4375q-0.109375 0.125 -0.265625 0.265625q-0.15625 0.125 -1.390625 1.140625l-0.515625 -0.671875l2.265625 -1.7500153l0.8125 0l0 8.562515z" fill-rule="nonzero"></path><path fill="#ffffff" d="m404.09186 137.33244l2.677185 0l0 2.9921265l-2.677185 0z" fill-rule="nonzero"></path><path fill="#ffffff" d="m404.09186 140.27133l2.677185 0l0 1.0393677l-2.677185 0z" fill-rule="nonzero"></path><path fill="#000000" fill-opacity="0.0" d="m781.94617 207.09186l64.50397 0l0 30.141739l-64.50397 0z" fill-rule="nonzero"></path><path stroke="#595959" stroke-width="2.0" stroke-linejoin="round" stroke-linecap="butt" d="m781.94617 207.09186l64.50397 0l0 30.141739l-64.50397 0z" fill-rule="nonzero"></path><path fill="#ff9900" d="m815.7782 208.85826l28.346497 0l0 26.614182l-28.346497 0z" fill-rule="nonzero"></path><path fill="#4a86e8" d="m783.7782 208.85826l28.346497 0l0 26.614182l-28.346497 0z" fill-rule="nonzero"></path><path fill="#000000" fill-opacity="0.0" d="m813.79266 204.46982l0 -35.968506" fill-rule="nonzero"></path><path stroke="#595959" stroke-width="2.0" stroke-linejoin="round" stroke-linecap="butt" d="m813.79266 204.46982l0 -23.968506" fill-rule="evenodd"></path><path fill="#595959" stroke="#595959" stroke-width="2.0" stroke-linecap="butt" d="m817.0961 180.50131l-3.3034668 -9.076202l-3.3034668 9.076202z" fill-rule="evenodd"></path><path fill="#000000" fill-opacity="0.0" d="m765.44617 113.0105l96.22052 0l0 52.7874l-96.22052 0z" fill-rule="nonzero"></path><path stroke="#595959" stroke-width="2.0" stroke-linejoin="round" stroke-linecap="butt" d="m765.44617 113.0105l96.22052 0l0 52.7874l-96.22052 0z" fill-rule="nonzero"></path><path fill="#cccccc" d="m767.4304 115.00661l92.189026 0l0 48.598434l-92.189026 0z" fill-rule="nonzero"></path><path fill="#000000" d="m794.8155 146.22581l0 -13.59375l6.03125 0q1.8125 0 2.75 0.359375q0.953125 0.359375 1.515625 1.296875q0.5625 0.921875 0.5625 2.046875q0 1.453125 -0.9375 2.453125q-0.921875 0.984375 -2.890625 1.25q0.71875 0.34375 1.09375 0.671875q0.78125 0.734375 1.484375 1.8125l2.375 3.703125l-2.265625 0l-1.796875 -2.828125q-0.796875 -1.21875 -1.3125 -1.875q-0.5 -0.65625 -0.90625 -0.90625q-0.40625 -0.265625 -0.8125 -0.359375q-0.3125 -0.078125 -1.015625 -0.078125l-2.078125 0l0 6.046875l-1.796875 0zm1.796875 -7.59375l3.859375 0q1.234375 0 1.921875 -0.25q0.703125 -0.265625 1.0625 -0.828125q0.375 -0.5625 0.375 -1.21875q0 -0.96875 -0.703125 -1.578125q-0.703125 -0.625 -2.21875 -0.625l-4.296875 0l0 4.5zm11.629211 7.59375l0 -13.59375l1.84375 0l7.140625 10.671875l0 -10.671875l1.71875 0l0 13.59375l-1.84375 0l-7.140625 -10.6875l0 10.6875l-1.71875 0zm13.472961 0l0 -13.59375l1.84375 0l7.140625 10.671875l0 -10.671875l1.71875 0l0 13.59375l-1.84375 0l-7.140625 -10.6875l0 10.6875l-1.71875 0z" fill-rule="nonzero"></path><path fill="#000000" fill-opacity="0.0" d="m813.55646 113.0105l0 -44.220474" fill-rule="nonzero"></path><path stroke="#595959" stroke-width="2.0" stroke-linejoin="round" stroke-linecap="butt" d="m813.55646 113.0105l0 -32.220474" fill-rule="evenodd"></path><path fill="#595959" stroke="#595959" stroke-width="2.0" stroke-linecap="butt" d="m816.8599 80.79002l-3.3034668 -9.076195l-3.3034668 9.076195z" fill-rule="evenodd"></path><path fill="#e06666" d="m799.61945 36.97638l28.346436 0l0 26.61417l-28.346436 0z" fill-rule="nonzero"></path><path fill="#000000" fill-opacity="0.0" d="m797.44617 35.09186l32.503967 0l0 30.141735l-32.503967 0z" fill-rule="nonzero"></path><path stroke="#595959" stroke-width="2.0" stroke-linejoin="round" stroke-linecap="butt" d="m797.44617 35.09186l32.503967 0l0 30.141735l-32.503967 0z" fill-rule="nonzero"></path><path fill="#000000" fill-opacity="0.0" d="m789.6011 252.0l2.677124 0l0 2.9921265l-2.677124 0z" fill-rule="nonzero"></path><path fill="#000000" fill-opacity="0.0" d="m794.4954 242.21523l39.905518 0l0 16.7874l-39.905518 0z" fill-rule="nonzero"></path><path fill="#000000" d="m817.7597 257.52893l-1.796875 0l-3.640625 -5.9687653l-3.703125 5.9687653l-1.671875 0l4.5 -7.0937653l-4.203125 -6.46875l1.75 0l3.375 5.375l3.390625 -5.375l1.671875 0l-4.203125 6.421875l4.53125 7.1406403z" fill-rule="nonzero"></path><path fill="#000000" d="m820.7459 263.84143q0.25 0 0.484375 -0.03125q0.25 -0.046875 0.390625 -0.078125l0 0.734375q-0.15625 0.078125 -0.46875 0.125q-0.296875 0.0625 -0.546875 0.0625q-1.859375 0 -1.859375 -1.96875l0 -3.828125l-0.921875 0l0 -0.46875l0.921875 -0.40625l0.40625 -1.359375l0.5625 0l0 1.484375l1.859375 0l0 0.75l-1.859375 0l0 3.78125q0 0.578125 0.265625 0.890625q0.28125 0.3125 0.765625 0.3125z" fill-rule="nonzero"></path><path fill="#ffffff" d="m764.09186 137.33244l2.677185 0l0 2.9921265l-2.677185 0z" fill-rule="nonzero"></path><path fill="#ffffff" d="m532.09186 140.27133l2.677185 0l0 1.0393677l-2.677185 0z" fill-rule="nonzero"></path><path fill="#000000" fill-opacity="0.0" d="m666.0138 192.24147l64.50391 0l0 30.141739l-64.50391 0z" fill-rule="nonzero"></path><path fill="#000000" d="m682.6212 224.39233l0 -4.8125l4.8125 0l0 4.8125l-4.8125 0zm13.3359375 0l0 -4.8125l4.8125 0l0 4.8125l-4.8125 0zm13.3359375 0l0 -4.8125l4.8125 0l0 4.8125l-4.8125 0z" fill-rule="nonzero"></path><path fill="#000000" fill-opacity="0.0" d="m106.49541 10.215223l39.905518 0l0 16.787401l-39.905518 0z" fill-rule="nonzero"></path><path fill="#000000" d="m119.56793 15.357047l1.65625 0l2.21875 5.796874q0.734375 1.984375 0.921875 2.875l0.0625 0q0.125 -0.46875 0.5 -1.609375q0.390625 -1.15625 2.53125 -7.062499l1.65625 0l-4.375 11.578124q-0.65625 1.71875 -1.53125 2.4375q-0.859375 0.71875 -2.109375 0.71875q-0.71875 0 -1.390625 -0.15625l0 -1.234375q0.5 0.109375 1.140625 0.109375q1.578125 0 2.25 -1.78125l0.578125 -1.4375l-4.109375 -10.234374z" fill-rule="nonzero"></path><path fill="#000000" d="m132.06268 31.841421q0.25 0 0.484375 -0.03125q0.25 -0.046875 0.390625 -0.078125l0 0.7343731q-0.15625 0.078125 -0.46875 0.125q-0.296875 0.0625 -0.546875 0.0625q-1.859375 0 -1.859375 -1.9687481l0 -3.828125l-0.921875 0l0 -0.46875l0.921875 -0.40625l0.40625 -1.359375l0.5625 0l0 1.484375l1.859375 0l0 0.75l-1.859375 0l0 3.78125q0 0.578125 0.265625 0.890625q0.28125 0.3125 0.765625 0.3125z" fill-rule="nonzero"></path><path fill="#000000" fill-opacity="0.0" d="m306.4954 10.215223l39.905518 0l0 16.787401l-39.905518 0z" fill-rule="nonzero"></path><path fill="#000000" d="m318.2076 15.357047l1.65625 0l2.21875 5.796874q0.734375 1.984375 0.921875 2.875l0.0625 0q0.125 -0.46875 0.5 -1.609375q0.390625 -1.15625 2.53125 -7.062499l1.65625 0l-4.375 11.578124q-0.65625 1.71875 -1.53125 2.4375q-0.859375 0.71875 -2.109375 0.71875q-0.71875 0 -1.390625 -0.15625l0 -1.234375q0.5 0.109375 1.140625 0.109375q1.578125 0 2.25 -1.78125l0.578125 -1.4375l-4.109375 -10.234374z" fill-rule="nonzero"></path><path fill="#000000" d="m333.8586 28.232046q0 2.21875 -0.703125 3.328125q-0.703125 1.0937481 -2.140625 1.0937481q-1.375 0 -2.109375 -1.1249981q-0.71875 -1.125 -0.71875 -3.296875q0 -2.234375 0.703125 -3.3125q0.703125 -1.09375 2.125 -1.09375q1.390625 0 2.109375 1.140625q0.734375 1.125 0.734375 3.265625zm-4.6875 0q0 1.875 0.4375 2.734375q0.453125 0.84375 1.40625 0.84375q0.96875 0 1.40625 -0.859375q0.4375 -0.875 0.4375 -2.71875q0 -1.84375 -0.4375 -2.703125q-0.4375 -0.859375 -1.40625 -0.859375q-0.953125 0 -1.40625 0.84375q-0.4375 0.84375 -0.4375 2.71875z" fill-rule="nonzero"></path><path fill="#000000" fill-opacity="0.0" d="m434.4954 10.215223l39.905518 0l0 16.787401l-39.905518 0z" fill-rule="nonzero"></path><path fill="#000000" d="m446.2076 15.357047l1.65625 0l2.21875 5.796874q0.734375 1.984375 0.921875 2.875l0.0625 0q0.125 -0.46875 0.5 -1.609375q0.390625 -1.15625 2.53125 -7.062499l1.65625 0l-4.375 11.578124q-0.65625 1.71875 -1.53125 2.4375q-0.859375 0.71875 -2.109375 0.71875q-0.71875 0 -1.390625 -0.15625l0 -1.234375q0.5 0.109375 1.140625 0.109375q1.578125 0 2.25 -1.78125l0.578125 -1.4375l-4.109375 -10.234374z" fill-rule="nonzero"></path><path fill="#000000" d="m459.7805 32.52892l-0.953125 0l0 -6.109373q0 -0.765625 0.046875 -1.4375q-0.109375 0.125 -0.265625 0.265625q-0.15625 0.125 -1.390625 1.140625l-0.515625 -0.671875l2.265625 -1.75l0.8125 0l0 8.562498z" fill-rule="nonzero"></path><path fill="#000000" fill-opacity="0.0" d="m794.4954 10.215223l39.905518 0l0 16.787401l-39.905518 0z" fill-rule="nonzero"></path><path fill="#000000" d="m807.56793 15.357047l1.65625 0l2.21875 5.796874q0.734375 1.984375 0.921875 2.875l0.0625 0q0.125 -0.46875 0.5 -1.609375q0.390625 -1.15625 2.53125 -7.062499l1.65625 0l-4.375 11.578124q-0.65625 1.71875 -1.53125 2.4375q-0.859375 0.71875 -2.109375 0.71875q-0.71875 0 -1.390625 -0.15625l0 -1.234375q0.5 0.109375 1.140625 0.109375q1.578125 0 2.25 -1.78125l0.578125 -1.4375l-4.109375 -10.234374z" fill-rule="nonzero"></path><path fill="#000000" d="m820.0627 31.841421q0.25 0 0.484375 -0.03125q0.25 -0.046875 0.390625 -0.078125l0 0.7343731q-0.15625 0.078125 -0.46875 0.125q-0.296875 0.0625 -0.546875 0.0625q-1.859375 0 -1.859375 -1.9687481l0 -3.828125l-0.921875 0l0 -0.46875l0.921875 -0.40625l0.40625 -1.359375l0.5625 0l0 1.484375l1.859375 0l0 0.75l-1.859375 0l0 3.78125q0 0.578125 0.265625 0.890625q0.28125 0.3125 0.765625 0.3125z" fill-rule="nonzero"></path><path fill="#000000" fill-opacity="0.0" d="m500.63174 139.30582l25.574799 0" fill-rule="nonzero"></path><path stroke="#595959" stroke-width="2.0" stroke-linejoin="round" stroke-linecap="butt" d="m500.6317 139.30583l13.574829 0" fill-rule="evenodd"></path><path fill="#595959" stroke="#595959" stroke-width="2.0" stroke-linecap="butt" d="m514.20654 142.60928l9.076172 -3.3034515l-9.076172 -3.3034668z" fill-rule="evenodd"></path><path fill="#000000" fill-opacity="0.0" d="m549.94617 207.09186l64.50397 0l0 30.141739l-64.50397 0z" fill-rule="nonzero"></path><path stroke="#595959" stroke-width="2.0" stroke-linejoin="round" stroke-linecap="butt" d="m549.94617 207.09186l64.50397 0l0 30.141739l-64.50397 0z" fill-rule="nonzero"></path><path fill="#ff9900" d="m583.7782 208.85826l28.346497 0l0 26.614182l-28.346497 0z" fill-rule="nonzero"></path><path fill="#4a86e8" d="m551.7782 208.85826l28.346497 0l0 26.614182l-28.346497 0z" fill-rule="nonzero"></path><path fill="#000000" fill-opacity="0.0" d="m581.79266 204.46982l0 -35.968506" fill-rule="nonzero"></path><path stroke="#595959" stroke-width="2.0" stroke-linejoin="round" stroke-linecap="butt" d="m581.79266 204.46982l0 -23.968506" fill-rule="evenodd"></path><path fill="#595959" stroke="#595959" stroke-width="2.0" stroke-linecap="butt" d="m585.0961 180.50131l-3.3034668 -9.076202l-3.3034668 9.076202z" fill-rule="evenodd"></path><path fill="#000000" fill-opacity="0.0" d="m533.44617 113.0105l96.22052 0l0 52.7874l-96.22052 0z" fill-rule="nonzero"></path><path stroke="#595959" stroke-width="2.0" stroke-linejoin="round" stroke-linecap="butt" d="m533.44617 113.0105l96.22052 0l0 52.7874l-96.22052 0z" fill-rule="nonzero"></path><path fill="#cccccc" d="m535.4304 115.00661l92.189026 0l0 48.598434l-92.189026 0z" fill-rule="nonzero"></path><path fill="#000000" d="m562.8155 146.22581l0 -13.59375l6.03125 0q1.8125 0 2.75 0.359375q0.953125 0.359375 1.515625 1.296875q0.5625 0.921875 0.5625 2.046875q0 1.453125 -0.9375 2.453125q-0.921875 0.984375 -2.890625 1.25q0.71875 0.34375 1.09375 0.671875q0.78125 0.734375 1.484375 1.8125l2.375 3.703125l-2.265625 0l-1.796875 -2.828125q-0.796875 -1.21875 -1.3125 -1.875q-0.5 -0.65625 -0.90625 -0.90625q-0.40625 -0.265625 -0.8125 -0.359375q-0.3125 -0.078125 -1.015625 -0.078125l-2.078125 0l0 6.046875l-1.796875 0zm1.796875 -7.59375l3.859375 0q1.234375 0 1.921875 -0.25q0.703125 -0.265625 1.0625 -0.828125q0.375 -0.5625 0.375 -1.21875q0 -0.96875 -0.703125 -1.578125q-0.703125 -0.625 -2.21875 -0.625l-4.296875 0l0 4.5zm11.629211 7.59375l0 -13.59375l1.84375 0l7.140625 10.671875l0 -10.671875l1.71875 0l0 13.59375l-1.84375 0l-7.140625 -10.6875l0 10.6875l-1.71875 0zm13.472961 0l0 -13.59375l1.84375 0l7.140625 10.671875l0 -10.671875l1.71875 0l0 13.59375l-1.84375 0l-7.140625 -10.6875l0 10.6875l-1.71875 0z" fill-rule="nonzero"></path><path fill="#ffffff" d="m631.1643 137.33383l-2.677185 0l0 1.0393677l2.677185 0z" fill-rule="nonzero"></path><path fill="#ffffff" d="m631.1643 140.27133l-2.677185 0l0 1.0393677l2.677185 0z" fill-rule="nonzero"></path><path fill="#000000" fill-opacity="0.0" d="m581.55646 113.0105l0 -44.220474" fill-rule="nonzero"></path><path stroke="#595959" stroke-width="2.0" stroke-linejoin="round" stroke-linecap="butt" d="m581.55646 113.0105l0 -32.220474" fill-rule="evenodd"></path><path fill="#595959" stroke="#595959" stroke-width="2.0" stroke-linecap="butt" d="m584.8599 80.79002l-3.3034668 -9.076195l-3.3034668 9.076195z" fill-rule="evenodd"></path><path fill="#e06666" d="m567.61945 36.97638l28.346436 0l0 26.61417l-28.346436 0z" fill-rule="nonzero"></path><path fill="#000000" fill-opacity="0.0" d="m565.44617 35.09186l32.503967 0l0 30.141735l-32.503967 0z" fill-rule="nonzero"></path><path stroke="#595959" stroke-width="2.0" stroke-linejoin="round" stroke-linecap="butt" d="m565.44617 35.09186l32.503967 0l0 30.141735l-32.503967 0z" fill-rule="nonzero"></path><path fill="#000000" fill-opacity="0.0" d="m557.6011 252.0l2.677124 0l0 2.9921265l-2.677124 0z" fill-rule="nonzero"></path><path fill="#000000" fill-opacity="0.0" d="m562.4954 242.21523l39.905518 0l0 16.7874l-39.905518 0z" fill-rule="nonzero"></path><path fill="#000000" d="m584.3994 257.52893l-1.796875 0l-3.640625 -5.9687653l-3.703125 5.9687653l-1.671875 0l4.5 -7.0937653l-4.203125 -6.46875l1.75 0l3.375 5.375l3.390625 -5.375l1.671875 0l-4.203125 6.421875l4.53125 7.1406403z" fill-rule="nonzero"></path><path fill="#000000" d="m590.49493 264.52893l-5.625 0l0 -0.84375l2.25 -2.265625q1.03125 -1.046875 1.359375 -1.484375q0.328125 -0.453125 0.484375 -0.875q0.171875 -0.421875 0.171875 -0.90625q0 -0.6875 -0.421875 -1.078125q-0.40625 -0.40625 -1.15625 -0.40625q-0.53125 0 -1.015625 0.1875q-0.46875 0.171875 -1.046875 0.625l-0.515625 -0.65625q1.171875 -0.98439026 2.578125 -0.98439026q1.203125 0 1.890625 0.62501526q0.6875 0.609375 0.6875 1.65625q0 0.8125 -0.46875 1.609375q-0.453125 0.796875 -1.703125 2.015625l-1.875 1.828125l0 0.046875l4.40625 0l0 0.90625z" fill-rule="nonzero"></path><path fill="#ffffff" d="m524.09186 137.33244l2.677185 0l0 2.9921265l-2.677185 0z" fill-rule="nonzero"></path><path fill="#ffffff" d="m524.09186 140.27133l2.677185 0l0 1.0393677l-2.677185 0z" fill-rule="nonzero"></path><path fill="#000000" fill-opacity="0.0" d="m562.4954 10.215223l39.905518 0l0 16.787401l-39.905518 0z" fill-rule="nonzero"></path><path fill="#000000" d="m574.2076 15.357047l1.65625 0l2.21875 5.796874q0.734375 1.984375 0.921875 2.875l0.0625 0q0.125 -0.46875 0.5 -1.609375q0.390625 -1.15625 2.53125 -7.062499l1.65625 0l-4.375 11.578124q-0.65625 1.71875 -1.53125 2.4375q-0.859375 0.71875 -2.109375 0.71875q-0.71875 0 -1.390625 -0.15625l0 -1.234375q0.5 0.109375 1.140625 0.109375q1.578125 0 2.25 -1.78125l0.578125 -1.4375l-4.109375 -10.234374z" fill-rule="nonzero"></path><path fill="#000000" d="m589.8117 32.52892l-5.625 0l0 -0.8437481l2.25 -2.265625q1.03125 -1.046875 1.359375 -1.484375q0.328125 -0.453125 0.484375 -0.875q0.171875 -0.421875 0.171875 -0.90625q0 -0.6875 -0.421875 -1.078125q-0.40625 -0.40625 -1.15625 -0.40625q-0.53125 0 -1.015625 0.1875q-0.46875 0.171875 -1.046875 0.625l-0.515625 -0.65625q1.171875 -0.984375 2.578125 -0.984375q1.203125 0 1.890625 0.625q0.6875 0.609375 0.6875 1.65625q0 0.8125 -0.46875 1.609375q-0.453125 0.796875 -1.703125 2.015625l-1.875 1.828125l0 0.046875l4.40625 0l0 0.9062481z" fill-rule="nonzero"></path></g></svg>

