<?xml version="1.0" standalone="yes"?>

<svg version="1.1" viewBox="0.0 0.0 719.503937007874 529.6561679790026" fill="none" stroke="none" stroke-linecap="square" stroke-miterlimit="10" xmlns="http://www.w3.org/2000/svg" xmlns:xlink="http://www.w3.org/1999/xlink"><clipPath id="p.0"><path d="m0 0l719.50397 0l0 529.6562l-719.50397 0l0 -529.6562z" clip-rule="nonzero"></path></clipPath><g clip-path="url(#p.0)"><path fill="#000000" fill-opacity="0.0" d="m0 0l719.50397 0l0 529.6562l-719.50397 0z" fill-rule="nonzero"></path><path fill="#000000" fill-opacity="0.0" d="m62.973755 146.07874l513.16534 0l0 286.17325l-513.16534 0z" fill-rule="nonzero"></path><path stroke="#595959" stroke-width="2.0" stroke-linejoin="round" stroke-linecap="butt" d="m62.973755 146.07874l513.16534 0l0 286.17325l-513.16534 0z" fill-rule="nonzero"></path><path fill="#ff9900" d="m193.35432 147.97638l28.346466 0l0 26.614166l-28.346466 0z" fill-rule="nonzero"></path><path fill="#ff9900" d="m225.35432 147.97638l28.346466 0l0 26.614166l-28.346466 0z" fill-rule="nonzero"></path><path fill="#ff9900" d="m257.35434 147.97638l28.346436 0l0 26.614166l-28.346436 0z" fill-rule="nonzero"></path><path fill="#ff9900" d="m289.35434 147.97638l28.346436 0l0 26.614166l-28.346436 0z" fill-rule="nonzero"></path><path fill="#6aa84f" d="m321.35434 147.97638l28.346436 0l0 26.614166l-28.346436 0z" fill-rule="nonzero"></path><path fill="#6aa84f" d="m353.35434 147.97638l28.346436 0l0 26.614166l-28.346436 0z" fill-rule="nonzero"></path><path fill="#6aa84f" d="m385.35434 147.97638l28.346436 0l0 26.614166l-28.346436 0z" fill-rule="nonzero"></path><path fill="#6aa84f" d="m417.35434 147.97638l28.346436 0l0 26.614166l-28.346436 0z" fill-rule="nonzero"></path><path fill="#e06666" d="m449.35434 147.97638l28.346436 0l0 26.614166l-28.346436 0z" fill-rule="nonzero"></path><path fill="#e06666" d="m481.35434 147.97638l28.346436 0l0 26.614166l-28.346436 0z" fill-rule="nonzero"></path><path fill="#e06666" d="m513.3543 147.97638l28.346497 0l0 26.614166l-28.346497 0z" fill-rule="nonzero"></path><path fill="#e06666" d="m545.3543 147.97638l28.346497 0l0 26.614166l-28.346497 0z" fill-rule="nonzero"></path><path fill="#4a86e8" d="m65.35433 147.97638l28.346458 0l0 26.614166l-28.346458 0z" fill-rule="nonzero"></path><path fill="#4a86e8" d="m97.35433 147.97638l28.346458 0l0 26.614166l-28.346458 0z" fill-rule="nonzero"></path><path fill="#4a86e8" d="m129.35432 147.97638l28.346466 0l0 26.614166l-28.346466 0z" fill-rule="nonzero"></path><path fill="#4a86e8" d="m161.35432 147.97638l28.346466 0l0 26.614166l-28.346466 0z" fill-rule="nonzero"></path><path fill="#ff9900" d="m193.35432 179.97638l28.346466 0l0 26.614166l-28.346466 0z" fill-rule="nonzero"></path><path fill="#ff9900" d="m225.35432 179.97638l28.346466 0l0 26.614166l-28.346466 0z" fill-rule="nonzero"></path><path fill="#ff9900" d="m257.35434 179.97638l28.346436 0l0 26.614166l-28.346436 0z" fill-rule="nonzero"></path><path fill="#ff9900" d="m289.35434 179.97638l28.346436 0l0 26.614166l-28.346436 0z" fill-rule="nonzero"></path><path fill="#6aa84f" d="m321.35434 179.97638l28.346436 0l0 26.614166l-28.346436 0z" fill-rule="nonzero"></path><path fill="#6aa84f" d="m353.35434 179.97638l28.346436 0l0 26.614166l-28.346436 0z" fill-rule="nonzero"></path><path fill="#6aa84f" d="m385.35434 179.97638l28.346436 0l0 26.614166l-28.346436 0z" fill-rule="nonzero"></path><path fill="#6aa84f" d="m417.35434 179.97638l28.346436 0l0 26.614166l-28.346436 0z" fill-rule="nonzero"></path><path fill="#e06666" d="m449.35434 179.97638l28.346436 0l0 26.614166l-28.346436 0z" fill-rule="nonzero"></path><path fill="#e06666" d="m481.35434 179.97638l28.346436 0l0 26.614166l-28.346436 0z" fill-rule="nonzero"></path><path fill="#e06666" d="m513.3543 179.97638l28.346497 0l0 26.614166l-28.346497 0z" fill-rule="nonzero"></path><path fill="#e06666" d="m545.3543 179.97638l28.346497 0l0 26.614166l-28.346497 0z" fill-rule="nonzero"></path><path fill="#4a86e8" d="m65.35433 179.97638l28.346458 0l0 26.614166l-28.346458 0z" fill-rule="nonzero"></path><path fill="#4a86e8" d="m97.35433 179.97638l28.346458 0l0 26.614166l-28.346458 0z" fill-rule="nonzero"></path><path fill="#4a86e8" d="m129.35432 179.97638l28.346466 0l0 26.614166l-28.346466 0z" fill-rule="nonzero"></path><path fill="#4a86e8" d="m161.35432 179.97638l28.346466 0l0 26.614166l-28.346466 0z" fill-rule="nonzero"></path><path fill="#ff9900" d="m193.35432 211.97638l28.346466 0l0 26.614166l-28.346466 0z" fill-rule="nonzero"></path><path fill="#ff9900" d="m225.35432 211.97638l28.346466 0l0 26.614166l-28.346466 0z" fill-rule="nonzero"></path><path fill="#ff9900" d="m257.35434 211.97638l28.346436 0l0 26.614166l-28.346436 0z" fill-rule="nonzero"></path><path fill="#ff9900" d="m289.35434 211.97638l28.346436 0l0 26.614166l-28.346436 0z" fill-rule="nonzero"></path><path fill="#6aa84f" d="m321.35434 211.97638l28.346436 0l0 26.614166l-28.346436 0z" fill-rule="nonzero"></path><path fill="#6aa84f" d="m353.35434 211.97638l28.346436 0l0 26.614166l-28.346436 0z" fill-rule="nonzero"></path><path fill="#6aa84f" d="m385.35434 211.97638l28.346436 0l0 26.614166l-28.346436 0z" fill-rule="nonzero"></path><path fill="#6aa84f" d="m417.35434 211.97638l28.346436 0l0 26.614166l-28.346436 0z" fill-rule="nonzero"></path><path fill="#e06666" d="m449.35434 211.97638l28.346436 0l0 26.614166l-28.346436 0z" fill-rule="nonzero"></path><path fill="#e06666" d="m481.35434 211.97638l28.346436 0l0 26.614166l-28.346436 0z" fill-rule="nonzero"></path><path fill="#e06666" d="m513.3543 211.97638l28.346497 0l0 26.614166l-28.346497 0z" fill-rule="nonzero"></path><path fill="#e06666" d="m545.3543 211.97638l28.346497 0l0 26.614166l-28.346497 0z" fill-rule="nonzero"></path><path fill="#4a86e8" d="m65.35433 211.97638l28.346458 0l0 26.614166l-28.346458 0z" fill-rule="nonzero"></path><path fill="#4a86e8" d="m97.35433 211.97638l28.346458 0l0 26.614166l-28.346458 0z" fill-rule="nonzero"></path><path fill="#4a86e8" d="m129.35432 211.97638l28.346466 0l0 26.614166l-28.346466 0z" fill-rule="nonzero"></path><path fill="#4a86e8" d="m161.35432 211.97638l28.346466 0l0 26.614166l-28.346466 0z" fill-rule="nonzero"></path><path fill="#ff9900" d="m193.35432 243.97638l28.346466 0l0 26.614166l-28.346466 0z" fill-rule="nonzero"></path><path fill="#ff9900" d="m225.35432 243.97638l28.346466 0l0 26.614166l-28.346466 0z" fill-rule="nonzero"></path><path fill="#ff9900" d="m257.35434 243.97638l28.346436 0l0 26.614166l-28.346436 0z" fill-rule="nonzero"></path><path fill="#ff9900" d="m289.35434 243.97638l28.346436 0l0 26.614166l-28.346436 0z" fill-rule="nonzero"></path><path fill="#6aa84f" d="m321.35434 243.97638l28.346436 0l0 26.614166l-28.346436 0z" fill-rule="nonzero"></path><path fill="#6aa84f" d="m353.35434 243.97638l28.346436 0l0 26.614166l-28.346436 0z" fill-rule="nonzero"></path><path fill="#6aa84f" d="m385.35434 243.97638l28.346436 0l0 26.614166l-28.346436 0z" fill-rule="nonzero"></path><path fill="#6aa84f" d="m417.35434 243.97638l28.346436 0l0 26.614166l-28.346436 0z" fill-rule="nonzero"></path><path fill="#e06666" d="m449.35434 243.97638l28.346436 0l0 26.614166l-28.346436 0z" fill-rule="nonzero"></path><path fill="#e06666" d="m481.35434 243.97638l28.346436 0l0 26.614166l-28.346436 0z" fill-rule="nonzero"></path><path fill="#e06666" d="m513.3543 243.97638l28.346497 0l0 26.614166l-28.346497 0z" fill-rule="nonzero"></path><path fill="#e06666" d="m545.3543 243.97638l28.346497 0l0 26.614166l-28.346497 0z" fill-rule="nonzero"></path><path fill="#4a86e8" d="m65.35433 243.97638l28.346458 0l0 26.614166l-28.346458 0z" fill-rule="nonzero"></path><path fill="#4a86e8" d="m97.35433 243.97638l28.346458 0l0 26.614166l-28.346458 0z" fill-rule="nonzero"></path><path fill="#4a86e8" d="m129.35432 243.97638l28.346466 0l0 26.614166l-28.346466 0z" fill-rule="nonzero"></path><path fill="#4a86e8" d="m161.35432 243.97638l28.346466 0l0 26.614166l-28.346466 0z" fill-rule="nonzero"></path><path fill="#ff9900" d="m193.35432 275.97638l28.346466 0l0 26.614166l-28.346466 0z" fill-rule="nonzero"></path><path fill="#ff9900" d="m225.35432 275.97638l28.346466 0l0 26.614166l-28.346466 0z" fill-rule="nonzero"></path><path fill="#ff9900" d="m257.35434 275.97638l28.346436 0l0 26.614166l-28.346436 0z" fill-rule="nonzero"></path><path fill="#ff9900" d="m289.35434 275.97638l28.346436 0l0 26.614166l-28.346436 0z" fill-rule="nonzero"></path><path fill="#6aa84f" d="m321.35434 275.97638l28.346436 0l0 26.614166l-28.346436 0z" fill-rule="nonzero"></path><path fill="#6aa84f" d="m353.35434 275.97638l28.346436 0l0 26.614166l-28.346436 0z" fill-rule="nonzero"></path><path fill="#6aa84f" d="m385.35434 275.97638l28.346436 0l0 26.614166l-28.346436 0z" fill-rule="nonzero"></path><path fill="#6aa84f" d="m417.35434 275.97638l28.346436 0l0 26.614166l-28.346436 0z" fill-rule="nonzero"></path><path fill="#e06666" d="m449.35434 275.97638l28.346436 0l0 26.614166l-28.346436 0z" fill-rule="nonzero"></path><path fill="#e06666" d="m481.35434 275.97638l28.346436 0l0 26.614166l-28.346436 0z" fill-rule="nonzero"></path><path fill="#e06666" d="m513.3543 275.97638l28.346497 0l0 26.614166l-28.346497 0z" fill-rule="nonzero"></path><path fill="#e06666" d="m545.3543 275.97638l28.346497 0l0 26.614166l-28.346497 0z" fill-rule="nonzero"></path><path fill="#4a86e8" d="m65.35433 275.97638l28.346458 0l0 26.614166l-28.346458 0z" fill-rule="nonzero"></path><path fill="#4a86e8" d="m97.35433 275.97638l28.346458 0l0 26.614166l-28.346458 0z" fill-rule="nonzero"></path><path fill="#4a86e8" d="m129.35432 275.97638l28.346466 0l0 26.614166l-28.346466 0z" fill-rule="nonzero"></path><path fill="#4a86e8" d="m161.35432 275.97638l28.346466 0l0 26.614166l-28.346466 0z" fill-rule="nonzero"></path><path fill="#ff9900" d="m193.35432 307.97638l28.346466 0l0 26.614166l-28.346466 0z" fill-rule="nonzero"></path><path fill="#ff9900" d="m225.35432 307.97638l28.346466 0l0 26.614166l-28.346466 0z" fill-rule="nonzero"></path><path fill="#ff9900" d="m257.35434 307.97638l28.346436 0l0 26.614166l-28.346436 0z" fill-rule="nonzero"></path><path fill="#ff9900" d="m289.35434 307.97638l28.346436 0l0 26.614166l-28.346436 0z" fill-rule="nonzero"></path><path fill="#6aa84f" d="m321.35434 307.97638l28.346436 0l0 26.614166l-28.346436 0z" fill-rule="nonzero"></path><path fill="#6aa84f" d="m353.35434 307.97638l28.346436 0l0 26.614166l-28.346436 0z" fill-rule="nonzero"></path><path fill="#6aa84f" d="m385.35434 307.97638l28.346436 0l0 26.614166l-28.346436 0z" fill-rule="nonzero"></path><path fill="#6aa84f" d="m417.35434 307.97638l28.346436 0l0 26.614166l-28.346436 0z" fill-rule="nonzero"></path><path fill="#e06666" d="m449.35434 307.97638l28.346436 0l0 26.614166l-28.346436 0z" fill-rule="nonzero"></path><path fill="#e06666" d="m481.35434 307.97638l28.346436 0l0 26.614166l-28.346436 0z" fill-rule="nonzero"></path><path fill="#e06666" d="m513.3543 307.97638l28.346497 0l0 26.614166l-28.346497 0z" fill-rule="nonzero"></path><path fill="#e06666" d="m545.3543 307.97638l28.346497 0l0 26.614166l-28.346497 0z" fill-rule="nonzero"></path><path fill="#4a86e8" d="m65.35433 307.97638l28.346458 0l0 26.614166l-28.346458 0z" fill-rule="nonzero"></path><path fill="#4a86e8" d="m97.35433 307.97638l28.346458 0l0 26.614166l-28.346458 0z" fill-rule="nonzero"></path><path fill="#4a86e8" d="m129.35432 307.97638l28.346466 0l0 26.614166l-28.346466 0z" fill-rule="nonzero"></path><path fill="#4a86e8" d="m161.35432 307.97638l28.346466 0l0 26.614166l-28.346466 0z" fill-rule="nonzero"></path><path fill="#ff9900" d="m193.35432 339.97638l28.346466 0l0 26.614166l-28.346466 0z" fill-rule="nonzero"></path><path fill="#ff9900" d="m225.35432 339.97638l28.346466 0l0 26.614166l-28.346466 0z" fill-rule="nonzero"></path><path fill="#ff9900" d="m257.35434 339.97638l28.346436 0l0 26.614166l-28.346436 0z" fill-rule="nonzero"></path><path fill="#ff9900" d="m289.35434 339.97638l28.346436 0l0 26.614166l-28.346436 0z" fill-rule="nonzero"></path><path fill="#6aa84f" d="m321.35434 339.97638l28.346436 0l0 26.614166l-28.346436 0z" fill-rule="nonzero"></path><path fill="#6aa84f" d="m353.35434 339.97638l28.346436 0l0 26.614166l-28.346436 0z" fill-rule="nonzero"></path><path fill="#6aa84f" d="m385.35434 339.97638l28.346436 0l0 26.614166l-28.346436 0z" fill-rule="nonzero"></path><path fill="#6aa84f" d="m417.35434 339.97638l28.346436 0l0 26.614166l-28.346436 0z" fill-rule="nonzero"></path><path fill="#e06666" d="m449.35434 339.97638l28.346436 0l0 26.614166l-28.346436 0z" fill-rule="nonzero"></path><path fill="#e06666" d="m481.35434 339.97638l28.346436 0l0 26.614166l-28.346436 0z" fill-rule="nonzero"></path><path fill="#e06666" d="m513.3543 339.97638l28.346497 0l0 26.614166l-28.346497 0z" fill-rule="nonzero"></path><path fill="#e06666" d="m545.3543 339.97638l28.346497 0l0 26.614166l-28.346497 0z" fill-rule="nonzero"></path><path fill="#4a86e8" d="m65.35433 339.97638l28.346458 0l0 26.614166l-28.346458 0z" fill-rule="nonzero"></path><path fill="#4a86e8" d="m97.35433 339.97638l28.346458 0l0 26.614166l-28.346458 0z" fill-rule="nonzero"></path><path fill="#4a86e8" d="m129.35432 339.97638l28.346466 0l0 26.614166l-28.346466 0z" fill-rule="nonzero"></path><path fill="#4a86e8" d="m161.35432 339.97638l28.346466 0l0 26.614166l-28.346466 0z" fill-rule="nonzero"></path><path fill="#ff9900" d="m193.35432 371.97638l28.346466 0l0 26.614166l-28.346466 0z" fill-rule="nonzero"></path><path fill="#ff9900" d="m225.35432 371.97638l28.346466 0l0 26.614166l-28.346466 0z" fill-rule="nonzero"></path><path fill="#ff9900" d="m257.35434 371.97638l28.346436 0l0 26.614166l-28.346436 0z" fill-rule="nonzero"></path><path fill="#ff9900" d="m289.35434 371.97638l28.346436 0l0 26.614166l-28.346436 0z" fill-rule="nonzero"></path><path fill="#6aa84f" d="m321.35434 371.97638l28.346436 0l0 26.614166l-28.346436 0z" fill-rule="nonzero"></path><path fill="#6aa84f" d="m353.35434 371.97638l28.346436 0l0 26.614166l-28.346436 0z" fill-rule="nonzero"></path><path fill="#6aa84f" d="m385.35434 371.97638l28.346436 0l0 26.614166l-28.346436 0z" fill-rule="nonzero"></path><path fill="#6aa84f" d="m417.35434 371.97638l28.346436 0l0 26.614166l-28.346436 0z" fill-rule="nonzero"></path><path fill="#e06666" d="m449.35434 371.97638l28.346436 0l0 26.614166l-28.346436 0z" fill-rule="nonzero"></path><path fill="#e06666" d="m481.35434 371.97638l28.346436 0l0 26.614166l-28.346436 0z" fill-rule="nonzero"></path><path fill="#e06666" d="m513.3543 371.97638l28.346497 0l0 26.614166l-28.346497 0z" fill-rule="nonzero"></path><path fill="#e06666" d="m545.3543 371.97638l28.346497 0l0 26.614166l-28.346497 0z" fill-rule="nonzero"></path><path fill="#4a86e8" d="m65.35433 371.97638l28.346458 0l0 26.614166l-28.346458 0z" fill-rule="nonzero"></path><path fill="#4a86e8" d="m97.35433 371.97638l28.346458 0l0 26.614166l-28.346458 0z" fill-rule="nonzero"></path><path fill="#4a86e8" d="m129.35432 371.97638l28.346466 0l0 26.614166l-28.346466 0z" fill-rule="nonzero"></path><path fill="#4a86e8" d="m161.35432 371.97638l28.346466 0l0 26.614166l-28.346466 0z" fill-rule="nonzero"></path><path fill="#ff9900" d="m193.35432 403.97638l28.346466 0l0 26.614166l-28.346466 0z" fill-rule="nonzero"></path><path fill="#ff9900" d="m225.35432 403.97638l28.346466 0l0 26.614166l-28.346466 0z" fill-rule="nonzero"></path><path fill="#ff9900" d="m257.35434 403.97638l28.346436 0l0 26.614166l-28.346436 0z" fill-rule="nonzero"></path><path fill="#ff9900" d="m289.35434 403.97638l28.346436 0l0 26.614166l-28.346436 0z" fill-rule="nonzero"></path><path fill="#6aa84f" d="m321.35434 403.97638l28.346436 0l0 26.614166l-28.346436 0z" fill-rule="nonzero"></path><path fill="#6aa84f" d="m353.35434 403.97638l28.346436 0l0 26.614166l-28.346436 0z" fill-rule="nonzero"></path><path fill="#6aa84f" d="m385.35434 403.97638l28.346436 0l0 26.614166l-28.346436 0z" fill-rule="nonzero"></path><path fill="#6aa84f" d="m417.35434 403.97638l28.346436 0l0 26.614166l-28.346436 0z" fill-rule="nonzero"></path><path fill="#e06666" d="m449.35434 403.97638l28.346436 0l0 26.614166l-28.346436 0z" fill-rule="nonzero"></path><path fill="#e06666" d="m481.35434 403.97638l28.346436 0l0 26.614166l-28.346436 0z" fill-rule="nonzero"></path><path fill="#e06666" d="m513.3543 403.97638l28.346497 0l0 26.614166l-28.346497 0z" fill-rule="nonzero"></path><path fill="#e06666" d="m545.3543 403.97638l28.346497 0l0 26.614166l-28.346497 0z" fill-rule="nonzero"></path><path fill="#4a86e8" d="m65.35433 403.97638l28.346458 0l0 26.614166l-28.346458 0z" fill-rule="nonzero"></path><path fill="#4a86e8" d="m97.35433 403.97638l28.346458 0l0 26.614166l-28.346458 0z" fill-rule="nonzero"></path><path fill="#4a86e8" d="m129.35432 403.97638l28.346466 0l0 26.614166l-28.346466 0z" fill-rule="nonzero"></path><path fill="#4a86e8" d="m161.35432 403.97638l28.346466 0l0 26.614166l-28.346466 0z" fill-rule="nonzero"></path><path fill="#000000" fill-opacity="0.0" d="m86.10499 451.79205l83.2756 0l0 31.338593l-83.2756 0z" fill-rule="nonzero"></path><path fill="#000000" d="m111.842995 466.28766l1.875 0l-5.40625 14.984375l-1.71875 0l-5.375 -14.984375l1.84375 0l3.453125 9.6875q0.59375 1.671875 0.9375 3.25q0.375 -1.65625 0.96875 -3.3125l3.421875 -9.625zm5.569824 14.984375l-1.6875 0l0 -11.234375l1.6875 0l0 11.234375zm-1.84375 -14.28125q0 -0.59375 0.28125 -0.859375q0.296875 -0.265625 0.734375 -0.265625q0.40625 0 0.703125 0.28125q0.296875 0.265625 0.296875 0.84375q0 0.578125 -0.296875 0.859375q-0.296875 0.28125 -0.703125 0.28125q-0.4375 0 -0.734375 -0.28125q-0.28125 -0.28125 -0.28125 -0.859375zm9.175766 13.078125q0.453125 0 0.875 -0.0625q0.421875 -0.0625 0.65625 -0.140625l0 1.296875q-0.265625 0.140625 -0.8125 0.21875q-0.53125 0.09375 -0.96875 0.09375q-3.265625 0 -3.265625 -3.4375l0 -6.6875l-1.609375 0l0 -0.8125l1.609375 -0.703125l0.71875 -2.40625l0.984375 0l0 2.609375l3.265625 0l0 1.3125l-3.265625 0l0 6.625q0 1.015625 0.484375 1.5625q0.484375 0.53125 1.328125 0.53125zm10.810661 1.203125l-0.34375 -1.59375l-0.078125 0q-0.84375 1.046875 -1.6875 1.421875q-0.828125 0.375 -2.078125 0.375q-1.671875 0 -2.625 -0.859375q-0.9374924 -0.859375 -0.9374924 -2.453125q0 -3.40625 5.4374924 -3.5625l1.90625 -0.0625l0 -0.703125q0 -1.3125 -0.578125 -1.9375q-0.5625 -0.640625 -1.8125 -0.640625q-1.40625 0 -3.171875 0.859375l-0.53125 -1.296875q0.84375 -0.453125 1.828125 -0.703125q0.984375 -0.265625 1.984375 -0.265625q2.015625 0 2.984375 0.890625q0.96875 0.890625 0.96875 2.859375l0 7.671875l-1.265625 0zm-3.84375 -1.203125q1.578125 0 2.484375 -0.859375q0.921875 -0.875 0.921875 -2.453125l0 -1.015625l-1.703125 0.078125q-2.03125 0.0625 -2.9375 0.625q-0.890625 0.5625 -0.890625 1.734375q0 0.9375 0.546875 1.421875q0.5625 0.46875 1.578125 0.46875zm10.486694 1.203125l-1.6875 0l0 -15.953125l1.6875 0l0 15.953125zm10.941391 -3.0625q0 1.5625 -1.171875 2.421875q-1.15625 0.84375 -3.265625 0.84375q-2.234375 0 -3.484375 -0.703125l0 -1.578125q0.796875 0.40625 1.71875 0.640625q0.9375 0.234375 1.796875 0.234375q1.34375 0 2.046875 -0.421875q0.71875 -0.421875 0.71875 -1.296875q0 -0.65625 -0.5625 -1.125q-0.5625 -0.46875 -2.21875 -1.09375q-1.5625 -0.59375 -2.234375 -1.03125q-0.65625 -0.4375 -0.984375 -0.984375q-0.3125 -0.5625 -0.3125 -1.328125q0 -1.375 1.109375 -2.15625q1.125 -0.796875 3.0625 -0.796875q1.8125 0 3.546875 0.734375l-0.59375 1.375q-1.703125 -0.6875 -3.078125 -0.6875q-1.203125 0 -1.828125 0.375q-0.609375 0.375 -0.609375 1.046875q0 0.453125 0.234375 0.78125q0.234375 0.3125 0.734375 0.59375q0.515625 0.28125 1.984375 0.828125q2.0 0.734375 2.6875 1.46875q0.703125 0.734375 0.703125 1.859375z" fill-rule="nonzero"></path><path fill="#000000" fill-opacity="0.0" d="m79.52756 147.97638l0 0" fill-rule="nonzero"></path><path stroke="#595959" stroke-width="1.0" stroke-linejoin="round" stroke-linecap="butt" d="m79.52756 147.97638l0 0" fill-rule="nonzero"></path><path fill="#000000" fill-opacity="0.0" d="m190.13124 450.02563l0 -15.653534" fill-rule="nonzero"></path><path stroke="#4a86e8" stroke-width="2.0" stroke-linejoin="round" stroke-linecap="butt" d="m190.13124 450.02563l0 -15.653534" fill-rule="nonzero"></path><path fill="#000000" fill-opacity="0.0" d="m65.7844 450.02563l0 -15.653534" fill-rule="nonzero"></path><path stroke="#4a86e8" stroke-width="2.0" stroke-linejoin="round" stroke-linecap="butt" d="m65.7844 450.02563l0 -15.653534" fill-rule="nonzero"></path><path fill="#000000" fill-opacity="0.0" d="m190.21523 449.9994l-124.944885 0" fill-rule="nonzero"></path><path stroke="#4a86e8" stroke-width="2.0" stroke-linejoin="round" stroke-linecap="butt" d="m190.21523 449.9994l-124.944885 0" fill-rule="nonzero"></path><path fill="#000000" fill-opacity="0.0" d="m127.74278 460.17526l0 -9.700806" fill-rule="nonzero"></path><path stroke="#4a86e8" stroke-width="2.0" stroke-linejoin="round" stroke-linecap="butt" d="m127.74278 460.17526l0 -9.700806" fill-rule="nonzero"></path><path fill="#000000" fill-opacity="0.0" d="m214.10498 451.79205l83.275604 0l0 31.338593l-83.275604 0z" fill-rule="nonzero"></path><path fill="#000000" d="m234.71715 481.27203l0 -14.984375l1.734375 0l0 13.40625l6.625 0l0 1.578125l-8.359375 0zm17.72647 0l-0.34375 -1.59375l-0.078125 0q-0.84375 1.046875 -1.6875 1.421875q-0.828125 0.375 -2.078125 0.375q-1.671875 0 -2.625 -0.859375q-0.9375 -0.859375 -0.9375 -2.453125q0 -3.40625 5.4375 -3.5625l1.90625 -0.0625l0 -0.703125q0 -1.3125 -0.578125 -1.9375q-0.5625 -0.640625 -1.8125 -0.640625q-1.40625 0 -3.171875 0.859375l-0.53125 -1.296875q0.84375 -0.453125 1.828125 -0.703125q0.984375 -0.265625 1.984375 -0.265625q2.015625 0 2.984375 0.890625q0.96875 0.890625 0.96875 2.859375l0 7.671875l-1.265625 0zm-3.84375 -1.203125q1.578125 0 2.484375 -0.859375q0.921875 -0.875 0.921875 -2.453125l0 -1.015625l-1.703125 0.078125q-2.03125 0.0625 -2.9375 0.625q-0.890625 0.5625 -0.890625 1.734375q0 0.9375 0.546875 1.421875q0.5625 0.46875 1.578125 0.46875zm14.01796 -10.21875q2.21875 0 3.4375 1.515625q1.234375 1.515625 1.234375 4.28125q0 2.765625 -1.234375 4.296875q-1.234375 1.53125 -3.4375 1.53125q-1.09375 0 -2.0 -0.40625q-0.90625 -0.40625 -1.53125 -1.25l-0.109375 0l-0.359375 1.453125l-1.21875 0l0 -15.953125l1.6875 0l0 3.875q0 1.296875 -0.078125 2.34375l0.078125 0q1.203125 -1.6875 3.53125 -1.6875zm-0.25 1.421875q-1.734375 0 -2.515625 1.0q-0.765625 1.0 -0.765625 3.375q0 2.359375 0.796875 3.390625q0.796875 1.015625 2.53125 1.015625q1.5625 0 2.328125 -1.140625q0.78125 -1.140625 0.78125 -3.296875q0 -2.1875 -0.78125 -3.265625q-0.765625 -1.078125 -2.375 -1.078125zm15.335358 6.9375q0 1.5625 -1.171875 2.421875q-1.15625 0.84375 -3.265625 0.84375q-2.234375 0 -3.484375 -0.703125l0 -1.578125q0.796875 0.40625 1.71875 0.640625q0.9375 0.234375 1.796875 0.234375q1.34375 0 2.046875 -0.421875q0.71875 -0.421875 0.71875 -1.296875q0 -0.65625 -0.5625 -1.125q-0.5625 -0.46875 -2.21875 -1.09375q-1.5625 -0.59375 -2.234375 -1.03125q-0.65625 -0.4375 -0.984375 -0.984375q-0.3125 -0.5625 -0.3125 -1.328125q0 -1.375 1.109375 -2.15625q1.125 -0.796875 3.0625 -0.796875q1.8125 0 3.546875 0.734375l-0.59375 1.375q-1.703125 -0.6875 -3.078125 -0.6875q-1.203125 0 -1.828125 0.375q-0.609375 0.375 -0.609375 1.046875q0 0.453125 0.234375 0.78125q0.234375 0.3125 0.734375 0.59375q0.515625 0.28125 1.984375 0.828125q2.0 0.734375 2.6875 1.46875q0.703125 0.734375 0.703125 1.859375z" fill-rule="nonzero"></path><path fill="#000000" fill-opacity="0.0" d="m318.13123 450.02563l0 -15.653534" fill-rule="nonzero"></path><path stroke="#ff9900" stroke-width="2.0" stroke-linejoin="round" stroke-linecap="butt" d="m318.13123 450.02563l0 -15.653534" fill-rule="nonzero"></path><path fill="#000000" fill-opacity="0.0" d="m193.7844 450.02563l0 -15.653534" fill-rule="nonzero"></path><path stroke="#ff9900" stroke-width="2.0" stroke-linejoin="round" stroke-linecap="butt" d="m193.7844 450.02563l0 -15.653534" fill-rule="nonzero"></path><path fill="#000000" fill-opacity="0.0" d="m318.2152 449.9994l-124.94487 0" fill-rule="nonzero"></path><path stroke="#ff9900" stroke-width="2.0" stroke-linejoin="round" stroke-linecap="butt" d="m318.2152 449.9994l-124.94487 0" fill-rule="nonzero"></path><path fill="#000000" fill-opacity="0.0" d="m255.74278 460.17526l0 -9.700806" fill-rule="nonzero"></path><path stroke="#ff9900" stroke-width="2.0" stroke-linejoin="round" stroke-linecap="butt" d="m255.74278 460.17526l0 -9.700806" fill-rule="nonzero"></path><path fill="#000000" fill-opacity="0.0" d="m299.20734 450.6083l169.07086 0l0 31.338593l-169.07086 0z" fill-rule="nonzero"></path><path fill="#000000" d="m319.77966 480.08832l0 -14.984375l1.734375 0l0 14.984375l-1.734375 0zm13.383972 0l0 -7.265625q0 -1.375 -0.625 -2.046875q-0.625 -0.6875 -1.96875 -0.6875q-1.765625 0 -2.59375 0.953125q-0.8125 0.953125 -0.8125 3.15625l0 5.890625l-1.6875 0l0 -11.234375l1.375 0l0.28125 1.53125l0.078125 0q0.53125 -0.828125 1.46875 -1.28125q0.9375 -0.453125 2.09375 -0.453125q2.03125 0 3.0625 0.984375q1.03125 0.96875 1.03125 3.125l0 7.328125l-1.703125 0zm9.028076 -1.203125q0.453125 0 0.875 -0.0625q0.421875 -0.0625 0.65625 -0.140625l0 1.296875q-0.265625 0.140625 -0.8125 0.21875q-0.53125 0.09375 -0.96875 0.09375q-3.265625 0 -3.265625 -3.4375l0 -6.6875l-1.609375 0l0 -0.8125l1.609375 -0.703125l0.71875 -2.40625l0.984375 0l0 2.609375l3.265625 0l0 1.3125l-3.265625 0l0 6.625q0 1.015625 0.484375 1.5625q0.484375 0.53125 1.328125 0.53125zm8.638794 1.40625q-2.484375 0 -3.9375 -1.515625q-1.4375 -1.515625 -1.4375 -4.21875q0 -2.71875 1.34375 -4.3125q1.34375 -1.59375 3.59375 -1.59375q2.109375 0 3.34375 1.390625q1.234375 1.375 1.234375 3.65625l0 1.078125l-7.75 0q0.0625 1.984375 1.0 3.015625q0.953125 1.015625 2.671875 1.015625q1.8125 0 3.59375 -0.765625l0 1.53125q-0.90625 0.375 -1.71875 0.546875q-0.796875 0.171875 -1.9375 0.171875zm-0.453125 -10.21875q-1.359375 0 -2.171875 0.890625q-0.796875 0.875 -0.9375 2.421875l5.875 0q0 -1.609375 -0.71875 -2.453125q-0.71875 -0.859375 -2.046875 -0.859375zm12.80957 -1.421875q0.75 0 1.34375 0.109375l-0.234375 1.59375q-0.703125 -0.15625 -1.234375 -0.15625q-1.375 0 -2.34375 1.109375q-0.96875 1.09375 -0.96875 2.75l0 6.03125l-1.6875 0l0 -11.234375l1.390625 0l0.203125 2.078125l0.078125 0q0.625 -1.09375 1.5 -1.6875q0.890625 -0.59375 1.953125 -0.59375zm6.0343323 11.4375l-4.265625 -11.234375l1.828125 0l2.421875 6.65625q0.8125 2.34375 0.953125 3.046875l0.09375 0q0.109375 -0.546875 0.703125 -2.25q0.609375 -1.71875 2.703125 -7.453125l1.8125 0l-4.265625 11.234375l-1.984375 0zm12.966156 0.203125q-2.484375 0 -3.9375 -1.515625q-1.4375 -1.515625 -1.4375 -4.21875q0 -2.71875 1.34375 -4.3125q1.34375 -1.59375 3.59375 -1.59375q2.109375 0 3.34375 1.390625q1.234375 1.375 1.234375 3.65625l0 1.078125l-7.75 0q0.0625 1.984375 1.0 3.015625q0.953125 1.015625 2.671875 1.015625q1.8125 0 3.59375 -0.765625l0 1.53125q-0.90625 0.375 -1.71875 0.546875q-0.796875 0.171875 -1.9375 0.171875zm-0.453125 -10.21875q-1.359375 0 -2.171875 0.890625q-0.796875 0.875 -0.9375 2.421875l5.875 0q0 -1.609375 -0.71875 -2.453125q-0.71875 -0.859375 -2.046875 -0.859375zm15.37207 10.015625l0 -7.265625q0 -1.375 -0.625 -2.046875q-0.625 -0.6875 -1.96875 -0.6875q-1.765625 0 -2.59375 0.953125q-0.8125 0.953125 -0.8125 3.15625l0 5.890625l-1.6875 0l0 -11.234375l1.375 0l0.28125 1.53125l0.078125 0q0.53125 -0.828125 1.46875 -1.28125q0.9375 -0.453125 2.09375 -0.453125q2.03125 0 3.0625 0.984375q1.03125 0.96875 1.03125 3.125l0 7.328125l-1.703125 0zm9.028076 -1.203125q0.453125 0 0.875 -0.0625q0.421875 -0.0625 0.65625 -0.140625l0 1.296875q-0.265625 0.140625 -0.8125 0.21875q-0.53125 0.09375 -0.96875 0.09375q-3.265625 0 -3.265625 -3.4375l0 -6.6875l-1.609375 0l0 -0.8125l1.609375 -0.703125l0.71875 -2.40625l0.984375 0l0 2.609375l3.265625 0l0 1.3125l-3.265625 0l0 6.625q0 1.015625 0.484375 1.5625q0.484375 0.53125 1.328125 0.53125zm5.591919 1.203125l-1.6875 0l0 -11.234375l1.6875 0l0 11.234375zm-1.84375 -14.28125q0 -0.59375 0.28125 -0.859375q0.296875 -0.265625 0.734375 -0.265625q0.40625 0 0.703125 0.28125q0.296875 0.265625 0.296875 0.84375q0 0.578125 -0.296875 0.859375q-0.296875 0.28125 -0.703125 0.28125q-0.4375 0 -0.734375 -0.28125q-0.28125 -0.28125 -0.28125 -0.859375zm15.238251 8.65625q0 2.75 -1.390625 4.296875q-1.375 1.53125 -3.8125 1.53125q-1.515625 0 -2.6875 -0.703125q-1.15625 -0.703125 -1.796875 -2.03125q-0.640625 -1.328125 -0.640625 -3.09375q0 -2.75 1.375 -4.28125q1.375 -1.53125 3.828125 -1.53125q2.34375 0 3.734375 1.5625q1.390625 1.5625 1.390625 4.25zm-8.5625 0q0 2.15625 0.859375 3.28125q0.875 1.125 2.546875 1.125q1.671875 0 2.53125 -1.125q0.859375 -1.125 0.859375 -3.28125q0 -2.140625 -0.859375 -3.25q-0.859375 -1.125 -2.5625 -1.125q-1.671875 0 -2.53125 1.109375q-0.84375 1.09375 -0.84375 3.265625zm19.444794 5.625l0 -7.265625q0 -1.375 -0.625 -2.046875q-0.625 -0.6875 -1.96875 -0.6875q-1.765625 0 -2.59375 0.953125q-0.8125 0.953125 -0.8125 3.15625l0 5.890625l-1.6875 0l0 -11.234375l1.375 0l0.28125 1.53125l0.078125 0q0.53125 -0.828125 1.46875 -1.28125q0.9375 -0.453125 2.09375 -0.453125q2.03125 0 3.0625 0.984375q1.03125 0.96875 1.03125 3.125l0 7.328125l-1.703125 0zm12.637451 -3.0625q0 1.5625 -1.171875 2.421875q-1.15625 0.84375 -3.265625 0.84375q-2.234375 0 -3.484375 -0.703125l0 -1.578125q0.796875 0.40625 1.71875 0.640625q0.9375 0.234375 1.796875 0.234375q1.34375 0 2.046875 -0.421875q0.71875 -0.421875 0.71875 -1.296875q0 -0.65625 -0.5625 -1.125q-0.5625 -0.46875 -2.21875 -1.09375q-1.5625 -0.59375 -2.234375 -1.03125q-0.65625 -0.4375 -0.984375 -0.984375q-0.3125 -0.5625 -0.3125 -1.328125q0 -1.375 1.109375 -2.15625q1.125 -0.796875 3.0625 -0.796875q1.8125 0 3.546875 0.734375l-0.59375 1.375q-1.703125 -0.6875 -3.078125 -0.6875q-1.203125 0 -1.828125 0.375q-0.609375 0.375 -0.609375 1.046875q0 0.453125 0.234375 0.78125q0.234375 0.3125 0.734375 0.59375q0.515625 0.28125 1.984375 0.828125q2.0 0.734375 2.6875 1.46875q0.703125 0.734375 0.703125 1.859375z" fill-rule="nonzero"></path><path fill="#000000" fill-opacity="0.0" d="m446.13123 450.02563l0 -15.653534" fill-rule="nonzero"></path><path stroke="#6aa84f" stroke-width="2.0" stroke-linejoin="round" stroke-linecap="butt" d="m446.13123 450.02563l0 -15.653534" fill-rule="nonzero"></path><path fill="#000000" fill-opacity="0.0" d="m321.7844 450.02563l0 -15.653534" fill-rule="nonzero"></path><path stroke="#6aa84f" stroke-width="2.0" stroke-linejoin="round" stroke-linecap="butt" d="m321.7844 450.02563l0 -15.653534" fill-rule="nonzero"></path><path fill="#000000" fill-opacity="0.0" d="m446.2152 449.9994l-124.944855 0" fill-rule="nonzero"></path><path stroke="#6aa84f" stroke-width="2.0" stroke-linejoin="round" stroke-linecap="butt" d="m446.2152 449.9994l-124.944855 0" fill-rule="nonzero"></path><path fill="#000000" fill-opacity="0.0" d="m383.74277 460.17526l0 -9.700806" fill-rule="nonzero"></path><path stroke="#6aa84f" stroke-width="2.0" stroke-linejoin="round" stroke-linecap="butt" d="m383.74277 460.17526l0 -9.700806" fill-rule="nonzero"></path><path fill="#000000" fill-opacity="0.0" d="m459.9475 450.6083l103.590576 0l0 31.338593l-103.590576 0z" fill-rule="nonzero"></path><path fill="#000000" d="m496.17188 472.4477q0 3.71875 -2.015625 5.6875q-2.015625 1.953125 -5.796875 1.953125l-4.15625 0l0 -14.984375l4.59375 0q3.5 0 5.4375 1.9375q1.9375 1.9375 1.9375 5.40625zm-1.84375 0.0625q0 -2.9375 -1.484375 -4.421875q-1.46875 -1.484375 -4.359375 -1.484375l-2.546875 0l0 11.984375l2.125 0q3.125 0 4.6875 -1.53125q1.578125 -1.546875 1.578125 -4.546875zm10.298309 -3.859375q0.75 0 1.34375 0.109375l-0.234375 1.59375q-0.703125 -0.15625 -1.234375 -0.15625q-1.375 0 -2.34375 1.109375q-0.96875 1.09375 -0.96875 2.75l0 6.03125l-1.6875 0l0 -11.234375l1.390625 0l0.203125 2.078125l0.078125 0q0.625 -1.09375 1.5 -1.6875q0.890625 -0.59375 1.953125 -0.59375zm5.1749573 0.203125l0 7.28125q0 1.375 0.625 2.0625q0.625 0.671875 1.953125 0.671875q1.765625 0 2.578125 -0.953125q0.8125 -0.96875 0.8125 -3.15625l0 -5.90625l1.703125 0l0 11.234375l-1.390625 0l-0.25 -1.5l-0.09375 0q-0.53125 0.828125 -1.453125 1.265625q-0.921875 0.4375 -2.125 0.4375q-2.046875 0 -3.0625 -0.96875q-1.015625 -0.984375 -1.015625 -3.125l0 -7.34375l1.71875 0zm20.684265 0l0 1.078125l-2.078125 0.234375q0.28125 0.359375 0.5 0.953125q0.234375 0.578125 0.234375 1.296875q0 1.65625 -1.125 2.640625q-1.125 0.984375 -3.09375 0.984375q-0.5 0 -0.953125 -0.078125q-1.078064 0.5625 -1.078064 1.4375q0 0.46875 0.375 0.6875q0.375 0.21875 1.312439 0.21875l1.984375 0q1.828125 0 2.796875 0.765625q0.984375 0.765625 0.984375 2.234375q0 1.875 -1.5 2.84375q-1.5 0.984375 -4.359375 0.984375q-2.203064 0 -3.406189 -0.828125q-1.1875 -0.8125 -1.1875 -2.3125q0 -1.03125 0.65625 -1.78125q0.65625 -0.734375 1.84375 -1.0q-0.4375 -0.203125 -0.734375 -0.609375q-0.28125 -0.40625 -0.28125 -0.953125q0 -0.625 0.328125 -1.078125q0.328125 -0.46875 1.03125 -0.890625q-0.875 -0.359375 -1.421875 -1.21875q-0.546875 -0.859375 -0.546875 -1.96875q0 -1.84375 1.109375 -2.84375q1.109375 -1.0 3.140564 -1.0q0.875 0 1.578125 0.203125l3.890625 0zm-8.953064 13.125q0 0.90625 0.765625 1.375q0.765625 0.484375 2.203064 0.484375q2.140625 0 3.171875 -0.640625q1.03125 -0.640625 1.03125 -1.75q0 -0.90625 -0.5625 -1.265625q-0.5625 -0.34375 -2.125 -0.34375l-2.046875 0q-1.156189 0 -1.796814 0.546875q-0.640625 0.546875 -0.640625 1.59375zm0.921875 -9.53125q0 1.1875 0.65625 1.796875q0.671875 0.59375 1.859314 0.59375q2.5 0 2.5 -2.421875q0 -2.53125 -2.53125 -2.53125q-1.203064 0 -1.843689 0.65625q-0.640625 0.640625 -0.640625 1.90625zm17.762756 4.578125q0 1.5625 -1.171875 2.421875q-1.15625 0.84375 -3.265625 0.84375q-2.234375 0 -3.484375 -0.703125l0 -1.578125q0.796875 0.40625 1.71875 0.640625q0.9375 0.234375 1.796875 0.234375q1.34375 0 2.046875 -0.421875q0.71875 -0.421875 0.71875 -1.296875q0 -0.65625 -0.5625 -1.125q-0.5625 -0.46875 -2.21875 -1.09375q-1.5625 -0.59375 -2.234375 -1.03125q-0.65625 -0.4375 -0.984375 -0.984375q-0.3125 -0.5625 -0.3125 -1.328125q0 -1.375 1.109375 -2.15625q1.125 -0.796875 3.0625 -0.796875q1.8125 0 3.546875 0.734375l-0.59375 1.375q-1.703125 -0.6875 -3.078125 -0.6875q-1.203125 0 -1.828125 0.375q-0.609375 0.375 -0.609375 1.046875q0 0.453125 0.234375 0.78125q0.234375 0.3125 0.734375 0.59375q0.515625 0.28125 1.984375 0.828125q2.0 0.734375 2.6875 1.46875q0.703125 0.734375 0.703125 1.859375z" fill-rule="nonzero"></path><path fill="#000000" fill-opacity="0.0" d="m574.1312 450.02563l0 -15.653534" fill-rule="nonzero"></path><path stroke="#e06666" stroke-width="2.0" stroke-linejoin="round" stroke-linecap="butt" d="m574.1312 450.02563l0 -15.653534" fill-rule="nonzero"></path><path fill="#000000" fill-opacity="0.0" d="m449.7844 450.02563l0 -15.653534" fill-rule="nonzero"></path><path stroke="#e06666" stroke-width="2.0" stroke-linejoin="round" stroke-linecap="butt" d="m449.7844 450.02563l0 -15.653534" fill-rule="nonzero"></path><path fill="#000000" fill-opacity="0.0" d="m574.2152 449.9994l-124.944855 0" fill-rule="nonzero"></path><path stroke="#e06666" stroke-width="2.0" stroke-linejoin="round" stroke-linecap="butt" d="m574.2152 449.9994l-124.944855 0" fill-rule="nonzero"></path><path fill="#000000" fill-opacity="0.0" d="m511.74277 460.17526l0 -9.700806" fill-rule="nonzero"></path><path stroke="#e06666" stroke-width="2.0" stroke-linejoin="round" stroke-linecap="butt" d="m511.74277 460.17526l0 -9.700806" fill-rule="nonzero"></path><path fill="#000000" fill-opacity="0.0" d="m-2.2047243 360.13385l0 -141.70078l50.110233 0l0 141.70078z" fill-rule="nonzero"></path><path fill="#000000" d="m21.327776 331.96317q3.46875 0 5.34375 2.375q1.859375 2.359375 1.859375 6.765625l0 2.6875l8.984377 0l0 2.65625l-22.84375 0l0 -5.921875q0 -8.5625 6.656249 -8.5625zm4.921875 11.828125l0 -2.390625q0 -3.53125 -1.140625 -5.109375q-1.140625 -1.578125 -3.65625 -1.578125q-2.265625 0 -3.375 1.484375q-1.109375 1.484375 -1.109375 4.625l0 2.96875l9.28125 0zm11.265627 -26.75l-2.4375 0.515625l0 0.125q1.609375 1.28125 2.1875 2.5625q0.5625 1.265625 0.5625 3.171875q0 2.546875 -1.3125 4.0q-1.3125 1.4375 -3.734375 1.4375q-5.187502 0 -5.437502 -8.296875l-0.09375 -2.90625l-1.0625 0q-2.015625 0 -2.96875 0.875q-0.96875 0.859375 -0.96875 2.765625q0 2.140625 1.3125 4.84375l-1.984375 0.796875q-0.6875 -1.265625 -1.078125 -2.765625q-0.390625 -1.515625 -0.390625 -3.03125q0 -3.0625 1.359375 -4.53125q1.359375 -1.484375 4.359375 -1.484375l11.687502 0l0 1.921875zm-1.828125 5.859375q0 -2.421875 -1.328125 -3.796875q-1.328125 -1.390625 -3.718752 -1.390625l-1.546875 0l0.109375 2.59375q0.109375 3.09375 0.96875 4.46875q0.84375 1.359375 2.640627 1.359375q1.40625 0 2.140625 -0.84375q0.734375 -0.859375 0.734375 -2.390625zm0 -18.65625q0 -0.6875 -0.09375 -1.328125q-0.109375 -0.640625 -0.21875 -1.015625l1.984375 0q0.203125 0.421875 0.328125 1.25q0.140625 0.8125 0.140625 1.46875q0 4.96875 -5.234375 4.96875l-10.187502 0l0 2.453125l-1.25 0l-1.078125 -2.453125l-3.65625 -1.09375l0 -1.5l3.96875 0l0 -4.96875l2.015625 0l0 4.96875l10.078127 0q1.546875 0 2.375 -0.734375q0.828125 -0.734375 0.828125 -2.015625zm1.828125 -8.359375l0 2.59375l-17.125002 0l0 -2.59375l17.125002 0zm-21.765625 2.8125q-0.890625 0 -1.296875 -0.4375q-0.421875 -0.4375 -0.421875 -1.09375q0 -0.625 0.421875 -1.078125q0.421875 -0.453125 1.296875 -0.453125q0.87499905 0 1.312499 0.453125q0.421875 0.453125 0.421875 1.078125q0 0.65625 -0.421875 1.09375q-0.4375 0.4375 -1.312499 0.4375zm22.078125 -15.546875q0 3.796875 -2.3125 6.0q-2.3125 2.1875 -6.421877 2.1875q-4.140625 0 -6.578125 -2.03125q-2.4375 -2.046875 -2.4375 -5.484375q0 -3.21875 2.125 -5.09375q2.109375 -1.875 5.578125 -1.875l1.640625 0l0 11.796875q3.015627 -0.078125 4.578127 -1.515625q1.5625 -1.453125 1.5625 -4.078125q0 -2.765625 -1.15625 -5.46875l2.3125 0q0.59375 1.375 0.84375 2.609375q0.265625 1.21875 0.265625 2.953125zm-15.578127 0.703125q0 2.0625 1.34375 3.296875q1.34375 1.21875 3.71875 1.4375l0 -8.953125q-2.453125 0 -3.75 1.09375q-1.3125 1.09375 -1.3125 3.125zm15.265627 -23.140625l-11.078127 0q-2.09375 0 -3.125 0.953125q-1.03125 0.953125 -1.03125 2.984375q0 2.6875 1.453125 3.9375q1.453125 1.25 4.796875 1.25l8.984377 0l0 2.59375l-17.125002 0l0 -2.109375l2.34375 -0.421875l0 -0.125q-1.265625 -0.796875 -1.953125 -2.234375q-0.703125 -1.4375 -0.703125 -3.203125q0 -3.09375 1.5 -4.65625q1.484375 -1.5625 4.765625 -1.5625l11.171877 0l0 2.59375zm-1.828125 -13.45314q0 -0.6875 -0.09375 -1.328125q-0.109375 -0.640625 -0.21875 -1.015625l1.984375 0q0.203125 0.421875 0.328125 1.25q0.140625 0.8125 0.140625 1.46875q0 4.96875 -5.234375 4.96875l-10.187502 0l0 2.453125l-1.25 0l-1.078125 -2.453125l-3.65625 -1.09375l0 -1.5l3.96875 0l0 -4.96875l2.015625 0l0 4.96875l10.078127 0q1.546875 0 2.375 -0.734375q0.828125 -0.734375 0.828125 -2.015625zm-2.84375 -16.8125q2.390625 0 3.6875 1.78125q1.296875 1.78125 1.296875 5.0q0 3.40625 -1.078125 5.3125l-2.40625 0q0.625 -1.234375 0.984375 -2.640625q0.359375 -1.421875 0.359375 -2.734375q0 -2.03125 -0.640625 -3.125q-0.65625 -1.09375 -1.984375 -1.09375q-1.0 0 -1.7031269 0.875q-0.71875 0.859375 -1.6875 3.375q-0.890625 2.390625 -1.546875 3.40625q-0.671875 1.0 -1.515625 1.5q-0.84375 0.484375 -2.015625 0.484375q-2.09375 0 -3.296875 -1.703125q-1.21875 -1.703125 -1.21875 -4.671875q0 -2.765625 1.125 -5.40625l2.109375 0.921875q-1.0625 2.578125 -1.0625 4.671875q0 1.84375 0.578125 2.78125q0.578125 0.9375 1.59375 0.9375q0.6875 0 1.171875 -0.34375q0.484375 -0.359375 0.921875 -1.140625q0.4375 -0.78125 1.265625 -3.0q1.109375 -3.046875 2.234375 -4.109375q1.125 -1.078125 2.828127 -1.078125z" fill-rule="nonzero"></path><path fill="#000000" fill-opacity="0.0" d="m405.13385 513.50397l168.56696 0" fill-rule="nonzero"></path><path stroke="#595959" stroke-width="4.0" stroke-linejoin="round" stroke-linecap="butt" d="m405.13385 513.50397l144.56696 0" fill-rule="evenodd"></path><path fill="#595959" stroke="#595959" stroke-width="4.0" stroke-linecap="butt" d="m549.7008 520.11084l18.152344 -6.6068726l-18.152344 -6.606964z" fill-rule="evenodd"></path><path fill="#000000" fill-opacity="0.0" d="m227.12157 481.24408l186.14174 0l0 36.53546l-186.14174 0z" fill-rule="nonzero"></path><path fill="#000000" d="m261.24713 520.9641l-2.65625 0l0 -22.84378l12.734375 0l0 2.359375l-10.078125 0l0 8.359375l9.46875 0l0 2.359375l-9.46875 0l0 9.7656555zm20.703125 0.3125q-3.796875 0 -6.0 -2.3125q-2.1875 -2.3125 -2.1875 -6.421875q0 -4.1406555 2.03125 -6.5781555q2.046875 -2.4375 5.484375 -2.4375q3.21875 0 5.09375 2.125q1.875 2.109375 1.875 5.578125l0 1.6406555l-11.796875 0q0.078125 3.015625 1.515625 4.578125q1.453125 1.5625 4.078125 1.5625q2.765625 0 5.46875 -1.15625l0 2.3125q-1.375 0.59375 -2.609375 0.84375q-1.21875 0.265625 -2.953125 0.265625zm-0.703125 -15.5781555q-2.0625 0 -3.296875 1.34375q-1.21875 1.34375 -1.4375 3.71875l8.953125 0q0 -2.453125 -1.09375 -3.75q-1.09375 -1.3125 -3.125 -1.3125zm21.953125 15.2656555l-0.515625 -2.4375l-0.125 0q-1.28125 1.609375 -2.5625 2.1875q-1.265625 0.5625 -3.171875 0.5625q-2.546875 0 -4.0 -1.3125q-1.4375 -1.3125 -1.4375 -3.734375q0 -5.1875305 8.296875 -5.4375305l2.90625 -0.09375l0 -1.0625q0 -2.015625 -0.875 -2.96875q-0.859375 -0.96875 -2.765625 -0.96875q-2.140625 0 -4.84375 1.3125l-0.796875 -1.984375q1.265625 -0.6875 2.765625 -1.078125q1.515625 -0.390625 3.03125 -0.390625q3.0625 0 4.53125 1.359375q1.484375 1.359375 1.484375 4.359375l0 11.6875305l-1.921875 0zm-5.859375 -1.828125q2.421875 0 3.796875 -1.328125q1.390625 -1.328125 1.390625 -3.71875l0 -1.546875l-2.59375 0.109375q-3.09375 0.109375 -4.46875 0.96875q-1.359375 0.84375 -1.359375 2.640625q0 1.40625 0.84375 2.140625q0.859375 0.734375 2.390625 0.734375zm18.65625 0q0.6875 0 1.328125 -0.09375q0.640625 -0.109375 1.015625 -0.21875l0 1.984375q-0.421875 0.203125 -1.25 0.328125q-0.8125 0.140625 -1.46875 0.140625q-4.96875 0 -4.96875 -5.234375l0 -10.1875305l-2.453125 0l0 -1.25l2.453125 -1.078125l1.09375 -3.65625l1.5 0l0 3.96875l4.96875 0l0 2.015625l-4.96875 0l0 10.0781555q0 1.546875 0.734375 2.375q0.734375 0.828125 2.015625 0.828125zm8.203125 -15.2969055l0 11.1094055q0 2.09375 0.953125 3.125q0.953125 1.03125 2.984375 1.03125q2.6875 0 3.921875 -1.46875q1.25 -1.46875 1.25 -4.796875l0 -9.0000305l2.59375 0l0 17.12503l-2.140625 0l-0.375 -2.296875l-0.140625 0q-0.796875 1.265625 -2.21875 1.9375q-1.40625 0.671875 -3.21875 0.671875q-3.125 0 -4.6875 -1.484375q-1.546875 -1.484375 -1.546875 -4.75l0 -11.2031555l2.625 0zm25.015625 -0.3125q1.140625 0 2.046875 0.1875l-0.359375 2.40625q-1.0625 -0.234375 -1.875 -0.234375q-2.078125 0 -3.5625 1.6875q-1.46875 1.6875 -1.46875 4.203125l0 9.1875305l-2.59375 0l0 -17.12503l2.140625 0l0.296875 3.171875l0.125 0q0.953125 -1.671875 2.296875 -2.578125q1.34375 -0.90625 2.953125 -0.90625zm12.4843445 17.75003q-3.796875 0 -6.0 -2.3125q-2.1874695 -2.3125 -2.1874695 -6.421875q0 -4.1406555 2.0312195 -6.5781555q2.046875 -2.4375 5.484375 -2.4375q3.21875 0 5.09375 2.125q1.875 2.109375 1.875 5.578125l0 1.6406555l-11.796875 0q0.078125 3.015625 1.515625 4.578125q1.453125 1.5625 4.078125 1.5625q2.765625 0 5.46875 -1.15625l0 2.3125q-1.375 0.59375 -2.609375 0.84375q-1.21875 0.265625 -2.953125 0.265625zm-0.703125 -15.5781555q-2.0625 0 -3.296875 1.34375q-1.21875 1.34375 -1.4375 3.71875l8.953125 0q0 -2.453125 -1.09375 -3.75q-1.09375 -1.3125 -3.125 -1.3125zm22.46875 10.5937805q0 2.390625 -1.78125 3.6875q-1.78125 1.296875 -5.0 1.296875q-3.40625 0 -5.3125 -1.078125l0 -2.40625q1.234375 0.625 2.640625 0.984375q1.421875 0.359375 2.734375 0.359375q2.03125 0 3.125 -0.640625q1.09375 -0.65625 1.09375 -1.984375q0 -1.0 -0.875 -1.703125q-0.859375 -0.71875 -3.375 -1.6875q-2.390625 -0.890625 -3.40625 -1.5469055q-1.0 -0.671875 -1.5 -1.515625q-0.484375 -0.84375 -0.484375 -2.015625q0 -2.09375 1.703125 -3.296875q1.703125 -1.21875 4.671875 -1.21875q2.765625 0 5.40625 1.125l-0.921875 2.109375q-2.578125 -1.0625 -4.671875 -1.0625q-1.84375 0 -2.78125 0.578125q-0.9375 0.578125 -0.9375 1.59375q0 0.6875 0.34375 1.171875q0.359375 0.484375 1.140625 0.921875q0.78125 0.4375 3.0 1.265625q3.046875 1.1094055 4.109375 2.2344055q1.078125 1.125 1.078125 2.828125z" fill-rule="nonzero"></path><path fill="#000000" fill-opacity="0.0" d="m237.70079 513.50397l-168.56693 0" fill-rule="nonzero"></path><path stroke="#595959" stroke-width="4.0" stroke-linejoin="round" stroke-linecap="butt" d="m237.70079 513.50397l-144.56693 0" fill-rule="evenodd"></path><path fill="#595959" stroke="#595959" stroke-width="4.0" stroke-linecap="butt" d="m93.13386 506.897l-18.15239 6.606964l18.15239 6.6068726z" fill-rule="evenodd"></path><path fill="#000000" fill-opacity="0.0" d="m573.7008 417.28348l0 0" fill-rule="nonzero"></path><path stroke="#595959" stroke-width="2.0" stroke-linejoin="round" stroke-linecap="butt" d="m573.7008 417.28348l0 0" fill-rule="nonzero"></path><path fill="#000000" fill-opacity="0.0" d="m573.7008 417.28348l0 0" fill-rule="nonzero"></path><path stroke="#595959" stroke-width="2.0" stroke-linejoin="round" stroke-linecap="butt" d="m573.7008 417.28348l0 0" fill-rule="nonzero"></path><path fill="#ff9900" d="m257.35434 83.97638l28.346436 0l0 26.614174l-28.346436 0z" fill-rule="nonzero"></path><path fill="#ff9900" d="m289.35434 83.97638l28.346436 0l0 26.614174l-28.346436 0z" fill-rule="nonzero"></path><path fill="#ff9900" d="m321.35434 83.97638l28.346436 0l0 26.614174l-28.346436 0z" fill-rule="nonzero"></path><path fill="#ff9900" d="m353.35434 83.97638l28.346436 0l0 26.614174l-28.346436 0z" fill-rule="nonzero"></path><path fill="#6aa84f" d="m385.35434 83.97638l28.346436 0l0 26.614174l-28.346436 0z" fill-rule="nonzero"></path><path fill="#6aa84f" d="m417.35434 83.97638l28.346436 0l0 26.614174l-28.346436 0z" fill-rule="nonzero"></path><path fill="#6aa84f" d="m449.35434 83.97638l28.346436 0l0 26.614174l-28.346436 0z" fill-rule="nonzero"></path><path fill="#6aa84f" d="m481.35434 83.97638l28.346436 0l0 26.614174l-28.346436 0z" fill-rule="nonzero"></path><path fill="#e06666" d="m513.3543 83.97638l28.346497 0l0 26.614174l-28.346497 0z" fill-rule="nonzero"></path><path fill="#e06666" d="m545.3543 83.97638l28.346497 0l0 26.614174l-28.346497 0z" fill-rule="nonzero"></path><path fill="#e06666" d="m577.3543 83.97638l28.346497 0l0 26.614174l-28.346497 0z" fill-rule="nonzero"></path><path fill="#e06666" d="m609.3543 83.97638l28.346497 0l0 26.614174l-28.346497 0z" fill-rule="nonzero"></path><path fill="#4a86e8" d="m129.35432 83.97638l28.346466 0l0 26.614174l-28.346466 0z" fill-rule="nonzero"></path><path fill="#4a86e8" d="m161.35432 83.97638l28.346466 0l0 26.614174l-28.346466 0z" fill-rule="nonzero"></path><path fill="#4a86e8" d="m193.35432 83.97638l28.346466 0l0 26.614174l-28.346466 0z" fill-rule="nonzero"></path><path fill="#4a86e8" d="m225.35432 83.97638l28.346466 0l0 26.614174l-28.346466 0z" fill-rule="nonzero"></path><path fill="#e06666" d="m609.3543 115.97638l28.346497 0l0 26.614166l-28.346497 0z" fill-rule="nonzero"></path><path fill="#e06666" d="m609.3543 147.97638l28.346497 0l0 26.614166l-28.346497 0z" fill-rule="nonzero"></path><path fill="#e06666" d="m609.3543 179.97638l28.346497 0l0 26.614166l-28.346497 0z" fill-rule="nonzero"></path><path fill="#e06666" d="m609.3543 211.97638l28.346497 0l0 26.614166l-28.346497 0z" fill-rule="nonzero"></path><path fill="#e06666" d="m609.3543 243.97638l28.346497 0l0 26.614166l-28.346497 0z" fill-rule="nonzero"></path><path fill="#e06666" d="m609.3543 275.97638l28.346497 0l0 26.614166l-28.346497 0z" fill-rule="nonzero"></path><path fill="#e06666" d="m609.3543 307.97638l28.346497 0l0 26.614166l-28.346497 0z" fill-rule="nonzero"></path><path fill="#e06666" d="m609.3543 339.97638l28.346497 0l0 26.614166l-28.346497 0z" fill-rule="nonzero"></path><path fill="#000000" fill-opacity="0.0" d="m639.11285 368.3233l-29.763794 0" fill-rule="nonzero"></path><path stroke="#595959" stroke-width="2.0" stroke-linejoin="round" stroke-linecap="butt" d="m639.11285 368.3233l-29.763794 0" fill-rule="nonzero"></path><path fill="#000000" fill-opacity="0.0" d="m640.04517 369.27292l0 -288.34647" fill-rule="nonzero"></path><path stroke="#595959" stroke-width="2.0" stroke-linejoin="round" stroke-linecap="butt" d="m640.04517 369.27292l0 -288.34647" fill-rule="nonzero"></path><path fill="#000000" fill-opacity="0.0" d="m641.0054 368.789l-3.118103 0" fill-rule="nonzero"></path><path stroke="#595959" stroke-width="1.0" stroke-linejoin="round" stroke-linecap="butt" d="m641.0054 368.789l-3.118103 0" fill-rule="nonzero"></path><path fill="#000000" fill-opacity="0.0" d="m640.874 81.94751l-514.5512 0" fill-rule="nonzero"></path><path stroke="#595959" stroke-width="2.0" stroke-linejoin="round" stroke-linecap="butt" d="m640.874 81.94751l-514.5512 0" fill-rule="nonzero"></path><path fill="#000000" fill-opacity="0.0" d="m127.01312 80.989006l0 31.905518" fill-rule="nonzero"></path><path stroke="#595959" stroke-width="2.0" stroke-linejoin="round" stroke-linecap="butt" d="m127.01312 80.989006l0 31.905518" fill-rule="nonzero"></path><path fill="#ff9900" d="m321.35434 19.976377l28.346436 0l0 26.614172l-28.346436 0z" fill-rule="nonzero"></path><path fill="#ff9900" d="m353.35434 19.976377l28.346436 0l0 26.614172l-28.346436 0z" fill-rule="nonzero"></path><path fill="#ff9900" d="m385.35434 19.976377l28.346436 0l0 26.614172l-28.346436 0z" fill-rule="nonzero"></path><path fill="#ff9900" d="m417.35434 19.976377l28.346436 0l0 26.614172l-28.346436 0z" fill-rule="nonzero"></path><path fill="#6aa84f" d="m449.35434 19.976377l28.346436 0l0 26.614172l-28.346436 0z" fill-rule="nonzero"></path><path fill="#6aa84f" d="m481.35434 19.976377l28.346436 0l0 26.614172l-28.346436 0z" fill-rule="nonzero"></path><path fill="#6aa84f" d="m513.3543 19.976377l28.346497 0l0 26.614172l-28.346497 0z" fill-rule="nonzero"></path><path fill="#6aa84f" d="m545.3543 19.976377l28.346497 0l0 26.614172l-28.346497 0z" fill-rule="nonzero"></path><path fill="#e06666" d="m577.3543 19.976377l28.346497 0l0 26.614172l-28.346497 0z" fill-rule="nonzero"></path><path fill="#e06666" d="m609.3543 19.976377l28.346497 0l0 26.614172l-28.346497 0z" fill-rule="nonzero"></path><path fill="#e06666" d="m641.3543 19.976377l28.346497 0l0 26.614172l-28.346497 0z" fill-rule="nonzero"></path><path fill="#e06666" d="m673.3543 19.976377l28.346497 0l0 26.614172l-28.346497 0z" fill-rule="nonzero"></path><path fill="#4a86e8" d="m193.35432 19.976377l28.346466 0l0 26.614172l-28.346466 0z" fill-rule="nonzero"></path><path fill="#4a86e8" d="m225.35432 19.976377l28.346466 0l0 26.614172l-28.346466 0z" fill-rule="nonzero"></path><path fill="#4a86e8" d="m257.35434 19.976377l28.346436 0l0 26.614172l-28.346436 0z" fill-rule="nonzero"></path><path fill="#4a86e8" d="m289.35434 19.976377l28.346436 0l0 26.614172l-28.346436 0z" fill-rule="nonzero"></path><path fill="#e06666" d="m673.3543 51.97638l28.346497 0l0 26.614174l-28.346497 0z" fill-rule="nonzero"></path><path fill="#e06666" d="m673.3543 83.97638l28.346497 0l0 26.614174l-28.346497 0z" fill-rule="nonzero"></path><path fill="#e06666" d="m673.3543 115.97638l28.346497 0l0 26.614166l-28.346497 0z" fill-rule="nonzero"></path><path fill="#e06666" d="m673.3543 147.97638l28.346497 0l0 26.614166l-28.346497 0z" fill-rule="nonzero"></path><path fill="#e06666" d="m673.3543 179.97638l28.346497 0l0 26.614166l-28.346497 0z" fill-rule="nonzero"></path><path fill="#e06666" d="m673.3543 211.97638l28.346497 0l0 26.614166l-28.346497 0z" fill-rule="nonzero"></path><path fill="#e06666" d="m673.3543 243.97638l28.346497 0l0 26.614166l-28.346497 0z" fill-rule="nonzero"></path><path fill="#e06666" d="m673.3543 275.97638l28.346497 0l0 26.614166l-28.346497 0z" fill-rule="nonzero"></path><path fill="#000000" fill-opacity="0.0" d="m703.11285 304.3233l-29.763794 0" fill-rule="nonzero"></path><path stroke="#595959" stroke-width="2.0" stroke-linejoin="round" stroke-linecap="butt" d="m703.11285 304.3233l-29.763794 0" fill-rule="nonzero"></path><path fill="#000000" fill-opacity="0.0" d="m704.04517 305.27292l0 -288.34647" fill-rule="nonzero"></path><path stroke="#595959" stroke-width="2.0" stroke-linejoin="round" stroke-linecap="butt" d="m704.04517 305.27292l0 -288.34647" fill-rule="nonzero"></path><path fill="#000000" fill-opacity="0.0" d="m705.0054 304.789l-3.118103 0" fill-rule="nonzero"></path><path stroke="#595959" stroke-width="1.0" stroke-linejoin="round" stroke-linecap="butt" d="m705.0054 304.789l-3.118103 0" fill-rule="nonzero"></path><path fill="#000000" fill-opacity="0.0" d="m704.874 17.947506l-514.5512 0" fill-rule="nonzero"></path><path stroke="#595959" stroke-width="2.0" stroke-linejoin="round" stroke-linecap="butt" d="m704.874 17.947506l-514.5512 0" fill-rule="nonzero"></path><path fill="#000000" fill-opacity="0.0" d="m191.01312 16.98901l0 31.90551" fill-rule="nonzero"></path><path stroke="#595959" stroke-width="2.0" stroke-linejoin="round" stroke-linecap="butt" d="m191.01312 16.98901l0 31.90551" fill-rule="nonzero"></path><path fill="#000000" fill-opacity="0.0" d="m129.76378 34.23622l34.23622 -34.23622" fill-rule="nonzero"></path><path stroke="#595959" stroke-width="4.0" stroke-linejoin="round" stroke-linecap="butt" d="m129.76378 34.23622l17.265656 -17.26566" fill-rule="evenodd"></path><path fill="#595959" stroke="#595959" stroke-width="4.0" stroke-linecap="butt" d="m151.70125 21.642366l8.163864 -17.507483l-17.507477 8.163874z" fill-rule="evenodd"></path><path fill="#000000" fill-opacity="0.0" d="m35.33858 80.03412l73.480316 -73.480316l44.50393 44.503937l-73.48031 73.480316z" fill-rule="nonzero"></path><path fill="#000000" d="m81.36592 90.179344l-1.8782501 1.8782501l-14.484642 -14.484642l-5.115471 5.1154785l-1.6683311 -1.6683273l12.109203 -12.109207l1.6683273 1.6683273l-5.115471 5.1154785l14.484634 14.484642zm9.104004 -9.104004l-1.8340607 1.8340607l-12.1092 -12.1092l1.834053 -1.8340607l12.109207 12.1092zm-17.379356 -13.401878q-0.6297684 -0.6297684 -0.60767365 -1.226387q0.011047363 -0.60767365 0.47509003 -1.0717087q0.4419403 -0.44194794 1.0606613 -0.46404266q0.6187134 -0.022094727 1.2374344 0.59661865q0.618721 0.618721 0.607666 1.2484894q-0.022094727 0.618721 -0.46403503 1.0606613q-0.46404266 0.46403503 -1.0717087 0.4750824q-0.618721 0 -1.2374344 -0.6187134zm36.703255 -5.92202l-7.8776093 -7.877613q-1.4473572 -1.4473572 -2.784233 -1.5467949q-1.3479233 -0.11048508 -2.6516495 1.1932411q-1.7125244 1.7125244 -1.5467987 3.5134392q0.16573334 1.800911 2.2097092 3.8448906l6.761711 6.7617073l-1.8340607 1.8340607l-7.8776093 -7.877613q-1.4473572 -1.4473572 -2.784233 -1.5467949q-1.3479233 -0.11048508 -2.6626968 1.2042923q-1.7235718 1.7235718 -1.4915543 3.5686798q0.23201752 1.8230057 2.5853577 4.176346l6.352913 6.352913l-1.8340607 1.8340607l-12.1092 -12.109207l1.4915543 -1.4915504l1.9555893 1.3589745l0.088386536 -0.088394165q-0.36460114 -1.4031639 0.07733917 -2.8394737q0.4529953 -1.4473572 1.6241379 -2.6185036q2.8394775 -2.8394775 5.7673416 -1.6572838l0.088386536 -0.088386536q-0.40879822 -1.4915543 0.06629181 -3.071495q0.47509003 -1.5799408 1.7898636 -2.8947182q2.0550308 -2.0550308 4.1321564 -2.0108337q2.0771255 0.022094727 4.3973236 2.342289l7.899704 7.899708l-1.8340607 1.8340607zm10.949112 -10.507164q-2.6847992 2.6847954 -5.8778305 2.6074562q-3.1819763 -0.08839035 -6.0877457 -2.994156q-2.927864 -2.927864 -3.215126 -6.0877495q-0.2762146 -3.1709328 2.1544647 -5.601612q2.276001 -2.2759972 5.104431 -2.0992203q2.8173752 0.16572571 5.270157 2.6185036l1.1600952 1.1600952l-8.341652 8.341652q2.1876144 2.0771255 4.3089294 2.165516q2.13237 0.07733917 3.9885254 -1.7788162q1.9555969 -1.9555931 3.0494003 -4.6845818l1.6351852 1.6351814q-0.5524292 1.3921165 -1.2484894 2.4417305q-0.6739578 1.0496101 -1.9003448 2.276001zm-11.512581 -10.518215q-1.4584122 1.4584084 -1.381073 3.2814178q0.088386536 1.8119621 1.6130905 3.646019l6.3308105 -6.3308144q-1.7346191 -1.734623 -3.4250412 -1.8782539q-1.701477 -0.15467834 -3.1377869 1.2816315z" fill-rule="nonzero"></path><path fill="#000000" fill-opacity="0.0" d="m68.0 96.0l-34.23622 34.23622" fill-rule="nonzero"></path><path stroke="#595959" stroke-width="4.0" stroke-linejoin="round" stroke-linecap="butt" d="m68.0 96.0l-17.26566 17.265656" fill-rule="evenodd"></path><path fill="#595959" stroke="#595959" stroke-width="4.0" stroke-linecap="butt" d="m46.06254 108.59386l-8.163876 17.507477l17.507484 -8.163872z" fill-rule="evenodd"></path><path fill="#ff9900" d="m289.35434 51.97638l28.346436 0l0 26.614174l-28.346436 0z" fill-rule="nonzero"></path><path fill="#ff9900" d="m321.35434 51.97638l28.346436 0l0 26.614174l-28.346436 0z" fill-rule="nonzero"></path><path fill="#ff9900" d="m353.35434 51.97638l28.346436 0l0 26.614174l-28.346436 0z" fill-rule="nonzero"></path><path fill="#ff9900" d="m385.35434 51.97638l28.346436 0l0 26.614174l-28.346436 0z" fill-rule="nonzero"></path><path fill="#6aa84f" d="m417.35434 51.97638l28.346436 0l0 26.614174l-28.346436 0z" fill-rule="nonzero"></path><path fill="#6aa84f" d="m449.35434 51.97638l28.346436 0l0 26.614174l-28.346436 0z" fill-rule="nonzero"></path><path fill="#6aa84f" d="m481.35434 51.97638l28.346436 0l0 26.614174l-28.346436 0z" fill-rule="nonzero"></path><path fill="#6aa84f" d="m513.3543 51.97638l28.346497 0l0 26.614174l-28.346497 0z" fill-rule="nonzero"></path><path fill="#e06666" d="m545.3543 51.97638l28.346497 0l0 26.614174l-28.346497 0z" fill-rule="nonzero"></path><path fill="#e06666" d="m577.3543 51.97638l28.346497 0l0 26.614174l-28.346497 0z" fill-rule="nonzero"></path><path fill="#e06666" d="m609.3543 51.97638l28.346497 0l0 26.614174l-28.346497 0z" fill-rule="nonzero"></path><path fill="#e06666" d="m641.3543 51.97638l28.346497 0l0 26.614174l-28.346497 0z" fill-rule="nonzero"></path><path fill="#4a86e8" d="m161.35432 51.97638l28.346466 0l0 26.614174l-28.346466 0z" fill-rule="nonzero"></path><path fill="#4a86e8" d="m193.35432 51.97638l28.346466 0l0 26.614174l-28.346466 0z" fill-rule="nonzero"></path><path fill="#4a86e8" d="m225.35432 51.97638l28.346466 0l0 26.614174l-28.346466 0z" fill-rule="nonzero"></path><path fill="#4a86e8" d="m257.35434 51.97638l28.346436 0l0 26.614174l-28.346436 0z" fill-rule="nonzero"></path><path fill="#e06666" d="m641.3543 83.97638l28.346497 0l0 26.614174l-28.346497 0z" fill-rule="nonzero"></path><path fill="#e06666" d="m641.3543 115.97638l28.346497 0l0 26.614166l-28.346497 0z" fill-rule="nonzero"></path><path fill="#e06666" d="m641.3543 147.97638l28.346497 0l0 26.614166l-28.346497 0z" fill-rule="nonzero"></path><path fill="#e06666" d="m641.3543 179.97638l28.346497 0l0 26.614166l-28.346497 0z" fill-rule="nonzero"></path><path fill="#e06666" d="m641.3543 211.97638l28.346497 0l0 26.614166l-28.346497 0z" fill-rule="nonzero"></path><path fill="#e06666" d="m641.3543 243.97638l28.346497 0l0 26.614166l-28.346497 0z" fill-rule="nonzero"></path><path fill="#e06666" d="m641.3543 275.97638l28.346497 0l0 26.614166l-28.346497 0z" fill-rule="nonzero"></path><path fill="#e06666" d="m641.3543 307.97638l28.346497 0l0 26.614166l-28.346497 0z" fill-rule="nonzero"></path><path fill="#000000" fill-opacity="0.0" d="m671.11285 336.3233l-29.763794 0" fill-rule="nonzero"></path><path stroke="#595959" stroke-width="2.0" stroke-linejoin="round" stroke-linecap="butt" d="m671.11285 336.3233l-29.763794 0" fill-rule="nonzero"></path><path fill="#000000" fill-opacity="0.0" d="m672.04517 337.27292l0 -288.34647" fill-rule="nonzero"></path><path stroke="#595959" stroke-width="2.0" stroke-linejoin="round" stroke-linecap="butt" d="m672.04517 337.27292l0 -288.34647" fill-rule="nonzero"></path><path fill="#000000" fill-opacity="0.0" d="m673.0054 336.789l-3.118103 0" fill-rule="nonzero"></path><path stroke="#595959" stroke-width="1.0" stroke-linejoin="round" stroke-linecap="butt" d="m673.0054 336.789l-3.118103 0" fill-rule="nonzero"></path><path fill="#000000" fill-opacity="0.0" d="m672.874 49.947506l-514.5512 0" fill-rule="nonzero"></path><path stroke="#595959" stroke-width="2.0" stroke-linejoin="round" stroke-linecap="butt" d="m672.874 49.947506l-514.5512 0" fill-rule="nonzero"></path><path fill="#000000" fill-opacity="0.0" d="m159.01312 48.98901l0 31.905514" fill-rule="nonzero"></path><path stroke="#595959" stroke-width="2.0" stroke-linejoin="round" stroke-linecap="butt" d="m159.01312 48.98901l0 31.905514" fill-rule="nonzero"></path><path fill="#ff9900" d="m225.35432 115.97638l28.346466 0l0 26.614166l-28.346466 0z" fill-rule="nonzero"></path><path fill="#ff9900" d="m289.35434 115.97638l28.346436 0l0 26.614166l-28.346436 0z" fill-rule="nonzero"></path><path fill="#ff9900" d="m321.35434 115.97638l28.346436 0l0 26.614166l-28.346436 0z" fill-rule="nonzero"></path><path fill="#6aa84f" d="m353.35434 115.97638l28.346436 0l0 26.614166l-28.346436 0z" fill-rule="nonzero"></path><path fill="#6aa84f" d="m417.35434 115.97638l28.346436 0l0 26.614166l-28.346436 0z" fill-rule="nonzero"></path><path fill="#6aa84f" d="m449.35434 115.97638l28.346436 0l0 26.614166l-28.346436 0z" fill-rule="nonzero"></path><path fill="#e06666" d="m481.35434 115.97638l28.346436 0l0 26.614166l-28.346436 0z" fill-rule="nonzero"></path><path fill="#e06666" d="m513.3543 115.97638l28.346497 0l0 26.614166l-28.346497 0z" fill-rule="nonzero"></path><path fill="#e06666" d="m545.3543 115.97638l28.346497 0l0 26.614166l-28.346497 0z" fill-rule="nonzero"></path><path fill="#e06666" d="m577.3543 115.97638l28.346497 0l0 26.614166l-28.346497 0z" fill-rule="nonzero"></path><path fill="#4a86e8" d="m97.35433 115.97638l28.346458 0l0 26.614166l-28.346458 0z" fill-rule="nonzero"></path><path fill="#4a86e8" d="m129.35432 115.97638l28.346466 0l0 26.614166l-28.346466 0z" fill-rule="nonzero"></path><path fill="#4a86e8" d="m161.35432 115.97638l28.346466 0l0 26.614166l-28.346466 0z" fill-rule="nonzero"></path><path fill="#4a86e8" d="m193.35432 115.97638l28.346466 0l0 26.614166l-28.346466 0z" fill-rule="nonzero"></path><path fill="#e06666" d="m577.3543 147.97638l28.346497 0l0 26.614166l-28.346497 0z" fill-rule="nonzero"></path><path fill="#e06666" d="m577.3543 179.97638l28.346497 0l0 26.614166l-28.346497 0z" fill-rule="nonzero"></path><path fill="#e06666" d="m577.3543 211.97638l28.346497 0l0 26.614166l-28.346497 0z" fill-rule="nonzero"></path><path fill="#e06666" d="m577.3543 243.97638l28.346497 0l0 26.614166l-28.346497 0z" fill-rule="nonzero"></path><path fill="#e06666" d="m577.3543 275.97638l28.346497 0l0 26.614166l-28.346497 0z" fill-rule="nonzero"></path><path fill="#e06666" d="m577.3543 307.97638l28.346497 0l0 26.614166l-28.346497 0z" fill-rule="nonzero"></path><path fill="#e06666" d="m577.3543 339.97638l28.346497 0l0 26.614166l-28.346497 0z" fill-rule="nonzero"></path><path fill="#e06666" d="m577.3543 371.97638l28.346497 0l0 26.614166l-28.346497 0z" fill-rule="nonzero"></path><path fill="#000000" fill-opacity="0.0" d="m607.11285 400.3233l-29.763794 0" fill-rule="nonzero"></path><path stroke="#595959" stroke-width="2.0" stroke-linejoin="round" stroke-linecap="butt" d="m607.11285 400.3233l-29.763794 0" fill-rule="nonzero"></path><path fill="#000000" fill-opacity="0.0" d="m608.04517 401.27292l0 -288.34647" fill-rule="nonzero"></path><path stroke="#595959" stroke-width="2.0" stroke-linejoin="round" stroke-linecap="butt" d="m608.04517 401.27292l0 -288.34647" fill-rule="nonzero"></path><path fill="#000000" fill-opacity="0.0" d="m609.0054 400.789l-3.118103 0" fill-rule="nonzero"></path><path stroke="#595959" stroke-width="1.0" stroke-linejoin="round" stroke-linecap="butt" d="m609.0054 400.789l-3.118103 0" fill-rule="nonzero"></path><path fill="#000000" fill-opacity="0.0" d="m608.874 113.94751l-514.5512 0" fill-rule="nonzero"></path><path stroke="#595959" stroke-width="2.0" stroke-linejoin="round" stroke-linecap="butt" d="m608.874 113.94751l-514.5512 0" fill-rule="nonzero"></path><path fill="#000000" fill-opacity="0.0" d="m95.01312 112.989006l0 31.90551" fill-rule="nonzero"></path><path stroke="#595959" stroke-width="2.0" stroke-linejoin="round" stroke-linecap="butt" d="m95.01312 112.989006l0 31.90551" fill-rule="nonzero"></path><path fill="#6aa84f" d="m385.35434 115.97638l28.346436 0l0 26.614166l-28.346436 0z" fill-rule="nonzero"></path><path fill="#ff9900" d="m257.35434 115.97638l28.346436 0l0 26.614166l-28.346436 0z" fill-rule="nonzero"></path><path fill="#000000" fill-opacity="0.0" d="m25.742783 360.13385l0 72.944885" fill-rule="nonzero"></path><path stroke="#595959" stroke-width="4.0" stroke-linejoin="round" stroke-linecap="butt" d="m25.742783 360.13385l0 48.944885" fill-rule="evenodd"></path><path fill="#595959" stroke="#595959" stroke-width="4.0" stroke-linecap="butt" d="m19.135853 409.07874l6.60693 18.152405l6.60693 -18.152405z" fill-rule="evenodd"></path><path fill="#000000" fill-opacity="0.0" d="m27.417322 217.07874l0 -72.94487" fill-rule="nonzero"></path><path stroke="#595959" stroke-width="4.0" stroke-linejoin="round" stroke-linecap="butt" d="m27.417322 217.07874l0 -48.94487" fill-rule="evenodd"></path><path fill="#595959" stroke="#595959" stroke-width="4.0" stroke-linecap="butt" d="m34.024254 168.13385l-6.6069317 -18.15239l-6.60693 18.15239z" fill-rule="evenodd"></path></g></svg>

