<?xml version="1.0" standalone="yes"?>

<svg version="1.1" viewBox="0.0 0.0 692.2598425196851 247.50918635170603" fill="none" stroke="none" stroke-linecap="square" stroke-miterlimit="10" xmlns="http://www.w3.org/2000/svg" xmlns:xlink="http://www.w3.org/1999/xlink"><clipPath id="p.0"><path d="m0 0l692.2598 0l0 247.50919l-692.2598 0l0 -247.50919z" clip-rule="nonzero"></path></clipPath><g clip-path="url(#p.0)"><path fill="#000000" fill-opacity="0.0" d="m0 0l692.2598 0l0 247.50919l-692.2598 0z" fill-rule="nonzero"></path><path fill="#000000" fill-opacity="0.0" d="m102.28871 26.540483l28.346466 0l0 26.614172l-28.346466 0z" fill-rule="nonzero"></path><path stroke="#595959" stroke-width="1.0" stroke-linejoin="round" stroke-linecap="butt" d="m102.28871 26.540483l28.346466 0l0 26.614172l-28.346466 0z" fill-rule="nonzero"></path><path fill="#4a86e8" d="m134.28871 26.540483l28.346466 0l0 26.614172l-28.346466 0z" fill-rule="nonzero"></path><path fill="#000000" fill-opacity="0.0" d="m166.28871 26.540483l28.346466 0l0 26.614172l-28.346466 0z" fill-rule="nonzero"></path><path stroke="#595959" stroke-width="1.0" stroke-linejoin="round" stroke-linecap="butt" d="m166.28871 26.540483l28.346466 0l0 26.614172l-28.346466 0z" fill-rule="nonzero"></path><path fill="#000000" fill-opacity="0.0" d="m198.28871 26.540483l28.346466 0l0 26.614172l-28.346466 0z" fill-rule="nonzero"></path><path stroke="#595959" stroke-width="1.0" stroke-linejoin="round" stroke-linecap="butt" d="m198.28871 26.540483l28.346466 0l0 26.614172l-28.346466 0z" fill-rule="nonzero"></path><path fill="#4a86e8" d="m230.28871 26.540483l28.34645 0l0 26.614172l-28.34645 0z" fill-rule="nonzero"></path><path fill="#4a86e8" d="m262.28873 26.540483l28.346436 0l0 26.614172l-28.346436 0z" fill-rule="nonzero"></path><path fill="#000000" fill-opacity="0.0" d="m294.28873 26.540483l28.346436 0l0 26.614172l-28.346436 0z" fill-rule="nonzero"></path><path stroke="#595959" stroke-width="1.0" stroke-linejoin="round" stroke-linecap="butt" d="m294.28873 26.540483l28.346436 0l0 26.614172l-28.346436 0z" fill-rule="nonzero"></path><path fill="#000000" fill-opacity="0.0" d="m326.28873 26.540483l28.346436 0l0 26.614172l-28.346436 0z" fill-rule="nonzero"></path><path stroke="#595959" stroke-width="1.0" stroke-linejoin="round" stroke-linecap="butt" d="m326.28873 26.540483l28.346436 0l0 26.614172l-28.346436 0z" fill-rule="nonzero"></path><path fill="#000000" fill-opacity="0.0" d="m358.28873 26.540483l28.346436 0l0 26.614172l-28.346436 0z" fill-rule="nonzero"></path><path stroke="#595959" stroke-width="1.0" stroke-linejoin="round" stroke-linecap="butt" d="m358.28873 26.540483l28.346436 0l0 26.614172l-28.346436 0z" fill-rule="nonzero"></path><path fill="#4a86e8" d="m390.28873 26.540483l28.346436 0l0 26.614172l-28.346436 0z" fill-rule="nonzero"></path><path fill="#000000" fill-opacity="0.0" d="m422.28873 26.540483l28.346436 0l0 26.614172l-28.346436 0z" fill-rule="nonzero"></path><path stroke="#595959" stroke-width="1.0" stroke-linejoin="round" stroke-linecap="butt" d="m422.28873 26.540483l28.346436 0l0 26.614172l-28.346436 0z" fill-rule="nonzero"></path><path fill="#000000" fill-opacity="0.0" d="m124.61942 49.377754l47.685036 0l0 35.496063l-47.685036 0z" fill-rule="nonzero"></path><path fill="#000000" d="m148.14163 71.112755l-1.6875 0l0 2.625l-1.25 0l0 -2.625l-5.546875 0l0 -1.140625l5.421875 -7.71875l1.375 0l0 7.671875l1.6875 0l0 1.1875zm-2.9375 -1.1875l0 -3.796875q0 -1.109375 0.078125 -2.515625l-0.0625 0q-0.375 0.75 -0.703125 1.234375l-3.5625 5.078125l4.25 0zm11.6171875 -1.921875q0 2.96875 -0.9375 4.4375q-0.9375 1.453125 -2.859375 1.453125q-1.84375 0 -2.8125 -1.5q-0.953125 -1.5 -0.953125 -4.390625q0 -2.984375 0.921875 -4.421875q0.9375 -1.453125 2.84375 -1.453125q1.859375 0 2.828125 1.515625q0.96875 1.5 0.96875 4.359375zm-6.25 0q0 2.5 0.578125 3.640625q0.59375 1.125 1.875 1.125q1.296875 0 1.875 -1.140625q0.59375 -1.15625 0.59375 -3.625q0 -2.453125 -0.59375 -3.59375q-0.578125 -1.15625 -1.875 -1.15625q-1.28125 0 -1.875 1.140625q-0.578125 1.125 -0.578125 3.609375z" fill-rule="nonzero"></path><path fill="#000000" fill-opacity="0.0" d="m220.61942 49.377754l47.68506 0l0 35.496063l-47.68506 0z" fill-rule="nonzero"></path><path fill="#000000" d="m239.67288 66.75338q1.796875 0 2.828125 0.90625q1.046875 0.890625 1.046875 2.4375q0 1.78125 -1.140625 2.796875q-1.125 1.0 -3.109375 1.0q-1.921875 0 -2.9375 -0.625l0 -1.25q0.546875 0.359375 1.359375 0.5625q0.8125 0.1875 1.59375 0.1875q1.375 0 2.140625 -0.640625q0.765625 -0.65625 0.765625 -1.875q0 -2.390625 -2.9375 -2.390625q-0.734375 0 -1.984375 0.21875l-0.671875 -0.421875l0.4375 -5.34375l5.671875 0l0 1.1875l-4.5625 0l-0.296875 3.4375q0.90625 -0.1875 1.796875 -0.1875zm9.1484375 0q1.796875 0 2.828125 0.90625q1.046875 0.890625 1.046875 2.4375q0 1.78125 -1.140625 2.796875q-1.125 1.0 -3.109375 1.0q-1.921875 0 -2.9375 -0.625l0 -1.25q0.546875 0.359375 1.359375 0.5625q0.8125 0.1875 1.59375 0.1875q1.375 0 2.140625 -0.640625q0.765625 -0.65625 0.765625 -1.875q0 -2.390625 -2.9375 -2.390625q-0.734375 0 -1.984375 0.21875l-0.671875 -0.421875l0.4375 -5.34375l5.671875 0l0 1.1875l-4.5625 0l-0.296875 3.4375q0.90625 -0.1875 1.796875 -0.1875z" fill-rule="nonzero"></path><path fill="#000000" fill-opacity="0.0" d="m252.61942 49.377754l47.68506 0l0 35.496063l-47.68506 0z" fill-rule="nonzero"></path><path fill="#000000" d="m268.23538 68.84713q0 -3.359375 1.296875 -5.03125q1.3125 -1.671875 3.875 -1.671875q0.890625 0 1.390625 0.15625l0 1.109375q-0.59375 -0.1875 -1.375 -0.1875q-1.828125 0 -2.796875 1.140625q-0.96875 1.140625 -1.0625 3.59375l0.09375 0q0.859375 -1.34375 2.71875 -1.34375q1.53125 0 2.421875 0.9375q0.890625 0.921875 0.890625 2.515625q0 1.78125 -0.984375 2.8125q-0.96875 1.015625 -2.625 1.015625q-1.765625 0 -2.8125 -1.328125q-1.03125 -1.34375 -1.03125 -3.71875zm3.828125 3.9375q1.109375 0 1.71875 -0.6875q0.625 -0.703125 0.625 -2.03125q0 -1.125 -0.578125 -1.765625q-0.5625 -0.65625 -1.703125 -0.65625q-0.703125 0 -1.296875 0.296875q-0.578125 0.28125 -0.921875 0.796875q-0.34375 0.5 -0.34375 1.046875q0 0.796875 0.3125 1.5q0.3125 0.6875 0.875 1.09375q0.578125 0.40625 1.3125 0.40625zm8.7578125 -6.03125q1.796875 0 2.828125 0.90625q1.046875 0.890625 1.046875 2.4375q0 1.78125 -1.140625 2.796875q-1.125 1.0 -3.109375 1.0q-1.921875 0 -2.9375 -0.625l0 -1.25q0.546875 0.359375 1.359375 0.5625q0.8125 0.1875 1.59375 0.1875q1.375 0 2.140625 -0.640625q0.765625 -0.65625 0.765625 -1.875q0 -2.390625 -2.9375 -2.390625q-0.734375 0 -1.984375 0.21875l-0.671875 -0.421875l0.4375 -5.34375l5.671875 0l0 1.1875l-4.5625 0l-0.296875 3.4375q0.90625 -0.1875 1.796875 -0.1875z" fill-rule="nonzero"></path><path fill="#000000" fill-opacity="0.0" d="m380.61942 49.377754l47.68506 0l0 35.496063l-47.68506 0z" fill-rule="nonzero"></path><path fill="#000000" d="m404.14163 71.112755l-1.6875 0l0 2.625l-1.25 0l0 -2.625l-5.546875 0l0 -1.140625l5.421875 -7.71875l1.375 0l0 7.671875l1.6875 0l0 1.1875zm-2.9375 -1.1875l0 -3.796875q0 -1.109375 0.078125 -2.515625l-0.0625 0q-0.375 0.75 -0.703125 1.234375l-3.5625 5.078125l4.25 0zm7.6171875 -3.171875q1.796875 0 2.828125 0.90625q1.046875 0.890625 1.046875 2.4375q0 1.78125 -1.140625 2.796875q-1.125 1.0 -3.109375 1.0q-1.921875 0 -2.9375 -0.625l0 -1.25q0.546875 0.359375 1.359375 0.5625q0.8125 0.1875 1.59375 0.1875q1.375 0 2.140625 -0.640625q0.765625 -0.65625 0.765625 -1.875q0 -2.390625 -2.9375 -2.390625q-0.734375 0 -1.984375 0.21875l-0.671875 -0.421875l0.4375 -5.34375l5.671875 0l0 1.1875l-4.5625 0l-0.296875 3.4375q0.90625 -0.1875 1.796875 -0.1875z" fill-rule="nonzero"></path><path fill="#ff9900" d="m102.28871 122.54048l28.346466 0l0 26.614182l-28.346466 0z" fill-rule="nonzero"></path><path fill="#4a86e8" d="m134.28871 122.54048l28.346466 0l0 26.614182l-28.346466 0z" fill-rule="nonzero"></path><path fill="#a4c2f4" d="m166.28871 122.54048l28.346466 0l0 26.614182l-28.346466 0z" fill-rule="nonzero"></path><path fill="#a4c2f4" d="m198.28871 122.54048l28.346466 0l0 26.614182l-28.346466 0z" fill-rule="nonzero"></path><path fill="#4a86e8" d="m230.28871 122.54048l28.34645 0l0 26.614182l-28.34645 0z" fill-rule="nonzero"></path><path fill="#4a86e8" d="m262.28873 122.54048l28.346436 0l0 26.614182l-28.346436 0z" fill-rule="nonzero"></path><path fill="#a4c2f4" d="m294.28873 122.54048l28.346436 0l0 26.614182l-28.346436 0z" fill-rule="nonzero"></path><path fill="#a4c2f4" d="m326.28873 122.54048l28.346436 0l0 26.614182l-28.346436 0z" fill-rule="nonzero"></path><path fill="#a4c2f4" d="m358.28873 122.54048l28.346436 0l0 26.614182l-28.346436 0z" fill-rule="nonzero"></path><path fill="#4a86e8" d="m390.28873 122.54048l28.346436 0l0 26.614182l-28.346436 0z" fill-rule="nonzero"></path><path fill="#a4c2f4" d="m422.28873 122.54048l28.346436 0l0 26.614182l-28.346436 0z" fill-rule="nonzero"></path><path fill="#000000" fill-opacity="0.0" d="m92.61942 145.37775l47.685036 0l0 35.496063l-47.685036 0z" fill-rule="nonzero"></path><path fill="#000000" d="m120.2471 164.00337q0 2.96875 -0.9375 4.4375q-0.9375 1.453125 -2.859375 1.453125q-1.84375 0 -2.8125 -1.5q-0.953125 -1.5 -0.953125 -4.390625q0 -2.984375 0.921875 -4.421875q0.9375 -1.453125 2.84375 -1.453125q1.859375 0 2.828125 1.515625q0.96875 1.5 0.96875 4.359375zm-6.25 0q0 2.5 0.578125 3.640625q0.59375 1.125 1.875 1.125q1.296875 0 1.875 -1.140625q0.59375 -1.15625 0.59375 -3.625q0 -2.453125 -0.59375 -3.59375q-0.578125 -1.15625 -1.875 -1.15625q-1.28125 0 -1.875 1.140625q-0.578125 1.125 -0.578125 3.609375z" fill-rule="nonzero"></path><path fill="#000000" fill-opacity="0.0" d="m124.61942 145.37775l47.685036 0l0 35.496063l-47.685036 0z" fill-rule="nonzero"></path><path fill="#000000" d="m148.14163 167.11275l-1.6875 0l0 2.625l-1.25 0l0 -2.625l-5.546875 0l0 -1.140625l5.421875 -7.71875l1.375 0l0 7.671875l1.6875 0l0 1.1875zm-2.9375 -1.1875l0 -3.796875q0 -1.109375 0.078125 -2.515625l-0.0625 0q-0.375 0.75 -0.703125 1.234375l-3.5625 5.078125l4.25 0zm11.6171875 -1.921875q0 2.96875 -0.9375 4.4375q-0.9375 1.453125 -2.859375 1.453125q-1.84375 0 -2.8125 -1.5q-0.953125 -1.5 -0.953125 -4.390625q0 -2.984375 0.921875 -4.421875q0.9375 -1.453125 2.84375 -1.453125q1.859375 0 2.828125 1.515625q0.96875 1.5 0.96875 4.359375zm-6.25 0q0 2.5 0.578125 3.640625q0.59375 1.125 1.875 1.125q1.296875 0 1.875 -1.140625q0.59375 -1.15625 0.59375 -3.625q0 -2.453125 -0.59375 -3.59375q-0.578125 -1.15625 -1.875 -1.15625q-1.28125 0 -1.875 1.140625q-0.578125 1.125 -0.578125 3.609375z" fill-rule="nonzero"></path><path fill="#000000" fill-opacity="0.0" d="m156.61942 145.37775l47.685043 0l0 35.496063l-47.685043 0z" fill-rule="nonzero"></path><path fill="#000000" d="m180.14163 167.11275l-1.6875 0l0 2.625l-1.25 0l0 -2.625l-5.546875 0l0 -1.140625l5.421875 -7.71875l1.375 0l0 7.671875l1.6875 0l0 1.1875zm-2.9375 -1.1875l0 -3.796875q0 -1.109375 0.078125 -2.515625l-0.0625 0q-0.375 0.75 -0.703125 1.234375l-3.5625 5.078125l4.25 0zm11.6171875 -1.921875q0 2.96875 -0.9375 4.4375q-0.9375 1.453125 -2.859375 1.453125q-1.84375 0 -2.8125 -1.5q-0.953125 -1.5 -0.953125 -4.390625q0 -2.984375 0.921875 -4.421875q0.9375 -1.453125 2.84375 -1.453125q1.859375 0 2.828125 1.515625q0.96875 1.5 0.96875 4.359375zm-6.25 0q0 2.5 0.578125 3.640625q0.59375 1.125 1.875 1.125q1.296875 0 1.875 -1.140625q0.59375 -1.15625 0.59375 -3.625q0 -2.453125 -0.59375 -3.59375q-0.578125 -1.15625 -1.875 -1.15625q-1.28125 0 -1.875 1.140625q-0.578125 1.125 -0.578125 3.609375z" fill-rule="nonzero"></path><path fill="#000000" fill-opacity="0.0" d="m188.61942 145.37775l47.685043 0l0 35.496063l-47.685043 0z" fill-rule="nonzero"></path><path fill="#000000" d="m212.14163 167.11275l-1.6875 0l0 2.625l-1.25 0l0 -2.625l-5.546875 0l0 -1.140625l5.421875 -7.71875l1.375 0l0 7.671875l1.6875 0l0 1.1875zm-2.9375 -1.1875l0 -3.796875q0 -1.109375 0.078125 -2.515625l-0.0625 0q-0.375 0.75 -0.703125 1.234375l-3.5625 5.078125l4.25 0zm11.6171875 -1.921875q0 2.96875 -0.9375 4.4375q-0.9375 1.453125 -2.859375 1.453125q-1.84375 0 -2.8125 -1.5q-0.953125 -1.5 -0.953125 -4.390625q0 -2.984375 0.921875 -4.421875q0.9375 -1.453125 2.84375 -1.453125q1.859375 0 2.828125 1.515625q0.96875 1.5 0.96875 4.359375zm-6.25 0q0 2.5 0.578125 3.640625q0.59375 1.125 1.875 1.125q1.296875 0 1.875 -1.140625q0.59375 -1.15625 0.59375 -3.625q0 -2.453125 -0.59375 -3.59375q-0.578125 -1.15625 -1.875 -1.15625q-1.28125 0 -1.875 1.140625q-0.578125 1.125 -0.578125 3.609375z" fill-rule="nonzero"></path><path fill="#000000" fill-opacity="0.0" d="m220.61942 145.37775l47.68506 0l0 35.496063l-47.68506 0z" fill-rule="nonzero"></path><path fill="#000000" d="m239.67288 162.75337q1.796875 0 2.828125 0.90625q1.046875 0.890625 1.046875 2.4375q0 1.78125 -1.140625 2.796875q-1.125 1.0 -3.109375 1.0q-1.921875 0 -2.9375 -0.625l0 -1.25q0.546875 0.359375 1.359375 0.5625q0.8125 0.1875 1.59375 0.1875q1.375 0 2.140625 -0.640625q0.765625 -0.65625 0.765625 -1.875q0 -2.390625 -2.9375 -2.390625q-0.734375 0 -1.984375 0.21875l-0.671875 -0.421875l0.4375 -5.34375l5.671875 0l0 1.1875l-4.5625 0l-0.296875 3.4375q0.90625 -0.1875 1.796875 -0.1875zm9.1484375 0q1.796875 0 2.828125 0.90625q1.046875 0.890625 1.046875 2.4375q0 1.78125 -1.140625 2.796875q-1.125 1.0 -3.109375 1.0q-1.921875 0 -2.9375 -0.625l0 -1.25q0.546875 0.359375 1.359375 0.5625q0.8125 0.1875 1.59375 0.1875q1.375 0 2.140625 -0.640625q0.765625 -0.65625 0.765625 -1.875q0 -2.390625 -2.9375 -2.390625q-0.734375 0 -1.984375 0.21875l-0.671875 -0.421875l0.4375 -5.34375l5.671875 0l0 1.1875l-4.5625 0l-0.296875 3.4375q0.90625 -0.1875 1.796875 -0.1875z" fill-rule="nonzero"></path><path fill="#000000" fill-opacity="0.0" d="m252.61942 145.37775l47.68506 0l0 35.496063l-47.68506 0z" fill-rule="nonzero"></path><path fill="#000000" d="m268.23538 164.84712q0 -3.359375 1.296875 -5.03125q1.3125 -1.671875 3.875 -1.671875q0.890625 0 1.390625 0.15625l0 1.109375q-0.59375 -0.1875 -1.375 -0.1875q-1.828125 0 -2.796875 1.140625q-0.96875 1.140625 -1.0625 3.59375l0.09375 0q0.859375 -1.34375 2.71875 -1.34375q1.53125 0 2.421875 0.9375q0.890625 0.921875 0.890625 2.515625q0 1.78125 -0.984375 2.8125q-0.96875 1.015625 -2.625 1.015625q-1.765625 0 -2.8125 -1.328125q-1.03125 -1.34375 -1.03125 -3.71875zm3.828125 3.9375q1.109375 0 1.71875 -0.6875q0.625 -0.703125 0.625 -2.03125q0 -1.125 -0.578125 -1.765625q-0.5625 -0.65625 -1.703125 -0.65625q-0.703125 0 -1.296875 0.296875q-0.578125 0.28125 -0.921875 0.796875q-0.34375 0.5 -0.34375 1.046875q0 0.796875 0.3125 1.5q0.3125 0.6875 0.875 1.09375q0.578125 0.40625 1.3125 0.40625zm8.7578125 -6.03125q1.796875 0 2.828125 0.90625q1.046875 0.890625 1.046875 2.4375q0 1.78125 -1.140625 2.796875q-1.125 1.0 -3.109375 1.0q-1.921875 0 -2.9375 -0.625l0 -1.25q0.546875 0.359375 1.359375 0.5625q0.8125 0.1875 1.59375 0.1875q1.375 0 2.140625 -0.640625q0.765625 -0.65625 0.765625 -1.875q0 -2.390625 -2.9375 -2.390625q-0.734375 0 -1.984375 0.21875l-0.671875 -0.421875l0.4375 -5.34375l5.671875 0l0 1.1875l-4.5625 0l-0.296875 3.4375q0.90625 -0.1875 1.796875 -0.1875z" fill-rule="nonzero"></path><path fill="#000000" fill-opacity="0.0" d="m284.61942 145.37775l47.68506 0l0 35.496063l-47.68506 0z" fill-rule="nonzero"></path><path fill="#000000" d="m300.23538 164.84712q0 -3.359375 1.296875 -5.03125q1.3125 -1.671875 3.875 -1.671875q0.890625 0 1.390625 0.15625l0 1.109375q-0.59375 -0.1875 -1.375 -0.1875q-1.828125 0 -2.796875 1.140625q-0.96875 1.140625 -1.0625 3.59375l0.09375 0q0.859375 -1.34375 2.71875 -1.34375q1.53125 0 2.421875 0.9375q0.890625 0.921875 0.890625 2.515625q0 1.78125 -0.984375 2.8125q-0.96875 1.015625 -2.625 1.015625q-1.765625 0 -2.8125 -1.328125q-1.03125 -1.34375 -1.03125 -3.71875zm3.828125 3.9375q1.109375 0 1.71875 -0.6875q0.625 -0.703125 0.625 -2.03125q0 -1.125 -0.578125 -1.765625q-0.5625 -0.65625 -1.703125 -0.65625q-0.703125 0 -1.296875 0.296875q-0.578125 0.28125 -0.921875 0.796875q-0.34375 0.5 -0.34375 1.046875q0 0.796875 0.3125 1.5q0.3125 0.6875 0.875 1.09375q0.578125 0.40625 1.3125 0.40625zm8.7578125 -6.03125q1.796875 0 2.828125 0.90625q1.046875 0.890625 1.046875 2.4375q0 1.78125 -1.140625 2.796875q-1.125 1.0 -3.109375 1.0q-1.921875 0 -2.9375 -0.625l0 -1.25q0.546875 0.359375 1.359375 0.5625q0.8125 0.1875 1.59375 0.1875q1.375 0 2.140625 -0.640625q0.765625 -0.65625 0.765625 -1.875q0 -2.390625 -2.9375 -2.390625q-0.734375 0 -1.984375 0.21875l-0.671875 -0.421875l0.4375 -5.34375l5.671875 0l0 1.1875l-4.5625 0l-0.296875 3.4375q0.90625 -0.1875 1.796875 -0.1875z" fill-rule="nonzero"></path><path fill="#000000" fill-opacity="0.0" d="m316.61942 145.37775l47.68506 0l0 35.496063l-47.68506 0z" fill-rule="nonzero"></path><path fill="#000000" d="m332.23538 164.84712q0 -3.359375 1.296875 -5.03125q1.3125 -1.671875 3.875 -1.671875q0.890625 0 1.390625 0.15625l0 1.109375q-0.59375 -0.1875 -1.375 -0.1875q-1.828125 0 -2.796875 1.140625q-0.96875 1.140625 -1.0625 3.59375l0.09375 0q0.859375 -1.34375 2.71875 -1.34375q1.53125 0 2.421875 0.9375q0.890625 0.921875 0.890625 2.515625q0 1.78125 -0.984375 2.8125q-0.96875 1.015625 -2.625 1.015625q-1.765625 0 -2.8125 -1.328125q-1.03125 -1.34375 -1.03125 -3.71875zm3.828125 3.9375q1.109375 0 1.71875 -0.6875q0.625 -0.703125 0.625 -2.03125q0 -1.125 -0.578125 -1.765625q-0.5625 -0.65625 -1.703125 -0.65625q-0.703125 0 -1.296875 0.296875q-0.578125 0.28125 -0.921875 0.796875q-0.34375 0.5 -0.34375 1.046875q0 0.796875 0.3125 1.5q0.3125 0.6875 0.875 1.09375q0.578125 0.40625 1.3125 0.40625zm8.7578125 -6.03125q1.796875 0 2.828125 0.90625q1.046875 0.890625 1.046875 2.4375q0 1.78125 -1.140625 2.796875q-1.125 1.0 -3.109375 1.0q-1.921875 0 -2.9375 -0.625l0 -1.25q0.546875 0.359375 1.359375 0.5625q0.8125 0.1875 1.59375 0.1875q1.375 0 2.140625 -0.640625q0.765625 -0.65625 0.765625 -1.875q0 -2.390625 -2.9375 -2.390625q-0.734375 0 -1.984375 0.21875l-0.671875 -0.421875l0.4375 -5.34375l5.671875 0l0 1.1875l-4.5625 0l-0.296875 3.4375q0.90625 -0.1875 1.796875 -0.1875z" fill-rule="nonzero"></path><path fill="#000000" fill-opacity="0.0" d="m348.61942 145.37775l47.68506 0l0 35.496063l-47.68506 0z" fill-rule="nonzero"></path><path fill="#000000" d="m364.23538 164.84712q0 -3.359375 1.296875 -5.03125q1.3125 -1.671875 3.875 -1.671875q0.890625 0 1.390625 0.15625l0 1.109375q-0.59375 -0.1875 -1.375 -0.1875q-1.828125 0 -2.796875 1.140625q-0.96875 1.140625 -1.0625 3.59375l0.09375 0q0.859375 -1.34375 2.71875 -1.34375q1.53125 0 2.421875 0.9375q0.890625 0.921875 0.890625 2.515625q0 1.78125 -0.984375 2.8125q-0.96875 1.015625 -2.625 1.015625q-1.765625 0 -2.8125 -1.328125q-1.03125 -1.34375 -1.03125 -3.71875zm3.828125 3.9375q1.109375 0 1.71875 -0.6875q0.625 -0.703125 0.625 -2.03125q0 -1.125 -0.578125 -1.765625q-0.5625 -0.65625 -1.703125 -0.65625q-0.703125 0 -1.296875 0.296875q-0.578125 0.28125 -0.921875 0.796875q-0.34375 0.5 -0.34375 1.046875q0 0.796875 0.3125 1.5q0.3125 0.6875 0.875 1.09375q0.578125 0.40625 1.3125 0.40625zm8.7578125 -6.03125q1.796875 0 2.828125 0.90625q1.046875 0.890625 1.046875 2.4375q0 1.78125 -1.140625 2.796875q-1.125 1.0 -3.109375 1.0q-1.921875 0 -2.9375 -0.625l0 -1.25q0.546875 0.359375 1.359375 0.5625q0.8125 0.1875 1.59375 0.1875q1.375 0 2.140625 -0.640625q0.765625 -0.65625 0.765625 -1.875q0 -2.390625 -2.9375 -2.390625q-0.734375 0 -1.984375 0.21875l-0.671875 -0.421875l0.4375 -5.34375l5.671875 0l0 1.1875l-4.5625 0l-0.296875 3.4375q0.90625 -0.1875 1.796875 -0.1875z" fill-rule="nonzero"></path><path fill="#000000" fill-opacity="0.0" d="m380.61942 145.37775l47.68506 0l0 35.496063l-47.68506 0z" fill-rule="nonzero"></path><path fill="#000000" d="m404.14163 167.11275l-1.6875 0l0 2.625l-1.25 0l0 -2.625l-5.546875 0l0 -1.140625l5.421875 -7.71875l1.375 0l0 7.671875l1.6875 0l0 1.1875zm-2.9375 -1.1875l0 -3.796875q0 -1.109375 0.078125 -2.515625l-0.0625 0q-0.375 0.75 -0.703125 1.234375l-3.5625 5.078125l4.25 0zm7.6171875 -3.171875q1.796875 0 2.828125 0.90625q1.046875 0.890625 1.046875 2.4375q0 1.78125 -1.140625 2.796875q-1.125 1.0 -3.109375 1.0q-1.921875 0 -2.9375 -0.625l0 -1.25q0.546875 0.359375 1.359375 0.5625q0.8125 0.1875 1.59375 0.1875q1.375 0 2.140625 -0.640625q0.765625 -0.65625 0.765625 -1.875q0 -2.390625 -2.9375 -2.390625q-0.734375 0 -1.984375 0.21875l-0.671875 -0.421875l0.4375 -5.34375l5.671875 0l0 1.1875l-4.5625 0l-0.296875 3.4375q0.90625 -0.1875 1.796875 -0.1875z" fill-rule="nonzero"></path><path fill="#000000" fill-opacity="0.0" d="m412.61942 145.37775l47.68506 0l0 35.496063l-47.68506 0z" fill-rule="nonzero"></path><path fill="#000000" d="m436.14163 167.11275l-1.6875 0l0 2.625l-1.25 0l0 -2.625l-5.546875 0l0 -1.140625l5.421875 -7.71875l1.375 0l0 7.671875l1.6875 0l0 1.1875zm-2.9375 -1.1875l0 -3.796875q0 -1.109375 0.078125 -2.515625l-0.0625 0q-0.375 0.75 -0.703125 1.234375l-3.5625 5.078125l4.25 0zm7.6171875 -3.171875q1.796875 0 2.828125 0.90625q1.046875 0.890625 1.046875 2.4375q0 1.78125 -1.140625 2.796875q-1.125 1.0 -3.109375 1.0q-1.921875 0 -2.9375 -0.625l0 -1.25q0.546875 0.359375 1.359375 0.5625q0.8125 0.1875 1.59375 0.1875q1.375 0 2.140625 -0.640625q0.765625 -0.65625 0.765625 -1.875q0 -2.390625 -2.9375 -2.390625q-0.734375 0 -1.984375 0.21875l-0.671875 -0.421875l0.4375 -5.34375l5.671875 0l0 1.1875l-4.5625 0l-0.296875 3.4375q0.90625 -0.1875 1.796875 -0.1875z" fill-rule="nonzero"></path><path fill="#000000" fill-opacity="0.0" d="m-0.7664042 120.14678l115.40157 0l0 31.401573l-115.40157 0z" fill-rule="nonzero"></path><path fill="#000000" d="m21.831972 142.76756l0 -13.5625l1.578125 0l0 13.5625l-1.578125 0zm17.9359 0l0 -6.609375q0 -1.21875 -0.53125 -1.828125q-0.515625 -0.609375 -1.609375 -0.609375q-1.4375 0 -2.125 0.828125q-0.671875 0.828125 -0.671875 2.546875l0 5.671875l-1.546875 0l0 -6.609375q0 -1.21875 -0.53125 -1.828125q-0.515625 -0.609375 -1.6093769 -0.609375q-1.453125 0 -2.125 0.875q-0.671875 0.859375 -0.671875 2.84375l0 5.328125l-1.53125 0l0 -10.171875l1.25 0l0.25 1.390625l0.0625 0q0.4375 -0.734375 1.234375 -1.15625q0.796875 -0.421875 1.78125 -0.421875q2.375002 0 3.109377 1.734375l0.078125 0q0.453125 -0.796875 1.3125 -1.265625q0.875 -0.46875 1.96875 -0.46875q1.734375 0 2.59375 0.890625q0.859375 0.890625 0.859375 2.828125l0 6.640625l-1.546875 0zm9.119217 0.1875q-0.984375 0 -1.8125 -0.359375q-0.8125 -0.375 -1.375 -1.140625l-0.109375 0q0.109375 0.890625 0.109375 1.6875l0 4.1875l-1.53125 0l0 -14.734375l1.25 0l0.203125 1.390625l0.078125 0q0.59375 -0.828125 1.375 -1.203125q0.796875 -0.375 1.8125 -0.375q2.03125 0 3.125 1.390625q1.09375 1.375 1.09375 3.875q0 2.5 -1.125 3.890625q-1.109375 1.390625 -3.09375 1.390625zm-0.21875 -9.234375q-1.5625 0 -2.265625 0.875q-0.6875 0.859375 -0.703125 2.734375l0 0.34375q0 2.140625 0.71875 3.0625q0.71875 0.921875 2.28125 0.921875q1.328125 0 2.0625 -1.0625q0.75 -1.0625 0.75 -2.9375q0 -1.90625 -0.75 -2.921875q-0.734375 -1.015625 -2.09375 -1.015625zm8.369919 -1.125l0 6.59375q0 1.25 0.5625 1.859375q0.578125 0.609375 1.78125 0.609375q1.59375 0 2.328125 -0.859375q0.734375 -0.875 0.734375 -2.859375l0 -5.34375l1.5468712 0l0 10.171875l-1.2656212 0l-0.234375 -1.359375l-0.078125 0q-0.46875 0.75 -1.3125 1.15625q-0.84375 0.390625 -1.921875 0.390625q-1.84375 0 -2.78125 -0.875q-0.921875 -0.890625 -0.921875 -2.828125l0 -6.65625l1.5625 0zm13.294384 9.09375q0.40625 0 0.78125 -0.0625q0.390625 -0.0625 0.609375 -0.125l0 1.171875q-0.25 0.125 -0.75 0.203125q-0.484375 0.078125 -0.875 0.078125q-2.9375 0 -2.9375 -3.109375l0 -6.046875l-1.46875 0l0 -0.75l1.46875 -0.640625l0.640625 -2.171875l0.890625 0l0 2.359375l2.953125 0l0 1.203125l-2.953125 0l0 5.984375q0 0.921875 0.4375 1.421875q0.4375 0.484375 1.203125 0.484375zm7.5861664 1.265625q-2.25 0 -3.5625 -1.375q-1.296875 -1.375 -1.296875 -3.8125q0 -2.453125 1.203125 -3.90625q1.21875 -1.453125 3.265625 -1.453125q1.90625 0 3.015625 1.265625q1.125 1.25 1.125 3.3125l0 0.96875l-7.015625 0q0.046875 1.796875 0.90625 2.734375q0.859375 0.921875 2.421875 0.921875q1.640625 0 3.25 -0.6875l0 1.375q-0.8125 0.34375 -1.546875 0.5q-0.734375 0.15625 -1.765625 0.15625zm-0.40625 -9.25q-1.234375 0 -1.96875 0.796875q-0.71875 0.796875 -0.84375 2.203125l5.3125 0q0 -1.453125 -0.65625 -2.21875q-0.640625 -0.78125 -1.84375 -0.78125zm13.498062 7.703125l-0.078125 0q-1.0625 1.546875 -3.1875 1.546875q-2.0 0 -3.109375 -1.359375q-1.109375 -1.375 -1.109375 -3.890625q0 -2.515625 1.109375 -3.90625q1.125 -1.390625 3.109375 -1.390625q2.0625 0 3.171875 1.515625l0.125 0l-0.078125 -0.734375l-0.03125 -0.71875l0 -4.140625l1.546875 0l0 14.4375l-1.25 0l-0.21875 -1.359375zm-3.078125 0.25q1.578125 0 2.28125 -0.859375q0.71875 -0.859375 0.71875 -2.765625l0 -0.328125q0 -2.15625 -0.71875 -3.078125q-0.71875 -0.921875 -2.296875 -0.921875q-1.359375 0 -2.078125 1.0625q-0.71875 1.046875 -0.71875 2.96875q0 1.9375 0.71875 2.9375q0.71875 0.984375 2.09375 0.984375z" fill-rule="nonzero"></path><path fill="#000000" fill-opacity="0.0" d="m15.233596 24.146782l115.40158 0l0 31.401573l-115.40158 0z" fill-rule="nonzero"></path><path fill="#000000" d="m58.162 41.12694l0 5.640625l-1.578125 0l0 -13.5625l3.71875 0q2.5 0 3.6875 0.953125q1.2031212 0.953125 1.2031212 2.875q0 2.6875 -2.7343712 3.640625l3.6874962 6.09375l-1.859375 0l-3.2968712 -5.640625l-2.828125 0zm0 -1.359375l2.171875 0q1.671875 0 2.4375 -0.65625q0.78125 -0.671875 0.78125 -2.0q0 -1.34375 -0.796875 -1.9375q-0.78125 -0.59375 -2.53125 -0.59375l-2.0625 0l0 5.1875zm15.985744 7.0l-0.3125 -1.453125l-0.078125 0q-0.75 0.96875 -1.515625 1.3125q-0.75 0.328125 -1.890625 0.328125q-1.5 0 -2.359375 -0.78125q-0.859375 -0.78125 -0.859375 -2.21875q0 -3.078125 4.921875 -3.234375l1.734375 -0.046875l0 -0.625q0 -1.203125 -0.515625 -1.765625q-0.515625 -0.578125 -1.65625 -0.578125q-1.265625 0 -2.875 0.78125l-0.46875 -1.1875q0.75 -0.40625 1.640625 -0.625q0.90625 -0.234375 1.796875 -0.234375q1.828125 0 2.703125 0.8125q0.875 0.796875 0.875 2.578125l0 6.9375l-1.140625 0zm-3.484375 -1.078125q1.4375 0 2.25 -0.78125q0.828125 -0.796875 0.828125 -2.21875l0 -0.921875l-1.53125 0.0625q-1.84375 0.0625 -2.65625 0.578125q-0.8125 0.5 -0.8125 1.5625q0 0.84375 0.5 1.28125q0.515625 0.4375 1.421875 0.4375zm15.906975 1.078125l-1.859375 -5.96875q-0.1875 -0.546875 -0.671875 -2.484375l-0.0625 0q-0.375 1.625 -0.65625 2.5l-1.921875 5.953125l-1.78125 0l-2.7656326 -10.171875l1.609375 0q0.9843826 3.828125 1.5000076 5.84375q0.515625 2.0 0.59375 2.6875l0.0625 0q0.109375 -0.515625 0.328125 -1.359375q0.234375 -0.84375 0.40625 -1.328125l1.859375 -5.84375l1.671875 0l1.8125 5.84375q0.515625 1.59375 0.703125 2.671875l0.078125 0q0.03125 -0.328125 0.1875 -1.015625q0.171875 -0.703125 1.953125 -7.5l1.59375 0l-2.8125 10.171875l-1.828125 0z" fill-rule="nonzero"></path><path fill="#000000" fill-opacity="0.0" d="m276.46194 84.87382l0 26.425194" fill-rule="nonzero"></path><path stroke="#595959" stroke-width="2.0" stroke-linejoin="round" stroke-linecap="butt" d="m276.46194 84.87382l0 14.425201" fill-rule="evenodd"></path><path fill="#595959" stroke="#595959" stroke-width="2.0" stroke-linecap="butt" d="m273.15848 99.29902l3.3034668 9.076195l3.3034668 -9.076195z" fill-rule="evenodd"></path><path fill="#000000" fill-opacity="0.0" d="m160.17848 215.98405l288.063 0" fill-rule="nonzero"></path><path stroke="#595959" stroke-width="4.0" stroke-linejoin="round" stroke-linecap="butt" d="m160.17848 215.98404l264.063 0" fill-rule="evenodd"></path><path fill="#595959" stroke="#595959" stroke-width="4.0" stroke-linecap="butt" d="m424.2415 222.59097l18.152374 -6.6069336l-18.152374 -6.6069183z" fill-rule="evenodd"></path><path fill="#000000" fill-opacity="0.0" d="m28.620249 197.71634l186.14172 0l0 36.53543l-186.14172 0z" fill-rule="nonzero"></path><path fill="#000000" d="m105.07686 223.18405l-1.65625 0l0 -12.796875l-4.53125 0l0 -1.484375l10.703125 0l0 1.484375l-4.515625 0l0 12.796875zm8.048828 0l-1.625 0l0 -10.703125l1.625 0l0 10.703125zm-1.765625 -13.609375q0 -0.546875 0.265625 -0.796875q0.28125 -0.265625 0.703125 -0.265625q0.390625 0 0.671875 0.265625q0.28125 0.25 0.28125 0.796875q0 0.546875 -0.28125 0.828125q-0.28125 0.265625 -0.671875 0.265625q-0.421875 0 -0.703125 -0.265625q-0.265625 -0.28125 -0.265625 -0.828125zm18.839844 13.609375l0 -6.96875q0 -1.28125 -0.546875 -1.90625q-0.546875 -0.640625 -1.703125 -0.640625q-1.5 0 -2.234375 0.875q-0.71875 0.859375 -0.71875 2.65625l0 5.984375l-1.625 0l0 -6.96875q0 -1.28125 -0.546875 -1.90625q-0.546875 -0.640625 -1.703125 -0.640625q-1.53125 0 -2.234375 0.90625q-0.703125 0.90625 -0.703125 3.0l0 5.609375l-1.625 0l0 -10.703125l1.3125 0l0.265625 1.46875l0.078125 0q0.46875 -0.78125 1.296875 -1.21875q0.84375 -0.453125 1.875 -0.453125q2.5 0 3.28125 1.828125l0.078125 0q0.46875 -0.84375 1.375 -1.328125q0.921875 -0.5 2.078125 -0.5q1.8125 0 2.71875 0.9375q0.90625 0.9375 0.90625 2.984375l0 6.984375l-1.625 0zm9.478516 0.203125q-2.359375 0 -3.734375 -1.453125q-1.375 -1.453125 -1.375 -4.015625q0 -2.59375 1.265625 -4.109375q1.28125 -1.53125 3.4375 -1.53125q2.0 0 3.171875 1.328125q1.171875 1.328125 1.171875 3.5l0 1.015625l-7.375 0q0.0625 1.890625 0.953125 2.875q0.90625 0.96875 2.546875 0.96875q1.734375 0 3.421875 -0.71875l0 1.4375q-0.859375 0.375 -1.625 0.53125q-0.765625 0.171875 -1.859375 0.171875zm-0.4375 -9.75q-1.28125 0 -2.046875 0.84375q-0.765625 0.84375 -0.90625 2.328125l5.59375 0q0 -1.53125 -0.6875 -2.34375q-0.671875 -0.828125 -1.953125 -0.828125z" fill-rule="nonzero"></path><path fill="#4a86e8" d="m486.28873 52.408997l28.346466 0l0 26.614174l-28.346466 0z" fill-rule="nonzero"></path><path fill="#000000" fill-opacity="0.0" d="m516.61945 50.015293l109.79523 0l0 31.401577l-109.79523 0z" fill-rule="nonzero"></path><path fill="#000000" d="m533.49445 72.63608l-4.609375 -12.03125l-0.078125 0q0.140625 1.4375 0.140625 3.40625l0 8.625l-1.46875 0l0 -13.5625l2.375 0l4.296875 11.1875l0.078125 0l4.328125 -11.1875l2.359375 0l0 13.5625l-1.578125 0l0 -8.734375q0 -1.515625 0.125 -3.265625l-0.0625 0l-4.640625 12.0l-1.265625 0zm14.89032 0.1875q-2.25 0 -3.5625 -1.375q-1.296875 -1.375 -1.296875 -3.8125q0 -2.453125 1.203125 -3.90625q1.21875 -1.453125 3.265625 -1.453125q1.90625 0 3.015625 1.265625q1.125 1.25 1.125 3.3125l0 0.96875l-7.015625 0q0.046875 1.796875 0.90625 2.734375q0.859375 0.921875 2.421875 0.921875q1.640625 0 3.25 -0.6875l0 1.375q-0.8125 0.34375 -1.546875 0.5q-0.734375 0.15625 -1.765625 0.15625zm-0.40625 -9.25q-1.234375 0 -1.96875 0.796875q-0.71875 0.796875 -0.84375 2.203125l5.3125 0q0 -1.453125 -0.65625 -2.21875q-0.640625 -0.78125 -1.84375 -0.78125zm12.841797 9.0625l-0.3125 -1.453125l-0.078125 0q-0.75 0.96875 -1.515625 1.3125q-0.75 0.328125 -1.890625 0.328125q-1.5 0 -2.359375 -0.78125q-0.859375 -0.78125 -0.859375 -2.21875q0 -3.078125 4.921875 -3.234375l1.734375 -0.046875l0 -0.625q0 -1.203125 -0.515625 -1.765625q-0.515625 -0.578125 -1.65625 -0.578125q-1.265625 0 -2.875 0.78125l-0.46875 -1.1875q0.75 -0.40625 1.640625 -0.625q0.90625 -0.234375 1.796875 -0.234375q1.828125 0 2.703125 0.8125q0.875 0.796875 0.875 2.578125l0 6.9375l-1.140625 0zm-3.484375 -1.078125q1.4375 0 2.25 -0.78125q0.828125 -0.796875 0.828125 -2.21875l0 -0.921875l-1.53125 0.0625q-1.84375 0.0625 -2.65625 0.578125q-0.8125 0.5 -0.8125 1.5625q0 0.84375 0.5 1.28125q0.515625 0.4375 1.421875 0.4375zm14.156982 -1.703125q0 1.421875 -1.0625 2.203125q-1.046875 0.765625 -2.953125 0.765625q-2.03125 0 -3.15625 -0.640625l0 -1.4375q0.734375 0.375 1.5625 0.59375q0.84375 0.21875 1.625 0.21875q1.203125 0 1.84375 -0.390625q0.65625 -0.390625 0.65625 -1.171875q0 -0.59375 -0.515625 -1.015625q-0.515625 -0.421875 -2.0 -1.0q-1.421875 -0.53125 -2.03125 -0.921875q-0.59375 -0.390625 -0.890625 -0.890625q-0.28125 -0.515625 -0.28125 -1.203125q0 -1.25 1.0 -1.96875q1.015625 -0.71875 2.78125 -0.71875q1.640625 0 3.21875 0.671875l-0.546875 1.25q-1.53125 -0.625 -2.78125 -0.625q-1.09375 0 -1.65625 0.34375q-0.546875 0.34375 -0.546875 0.9375q0 0.421875 0.203125 0.703125q0.203125 0.28125 0.671875 0.546875q0.46875 0.265625 1.78125 0.75q1.8125 0.65625 2.4375 1.328125q0.640625 0.671875 0.640625 1.671875zm3.7905884 -7.390625l0 6.59375q0 1.25 0.5625 1.859375q0.578125 0.609375 1.78125 0.609375q1.59375 0 2.328125 -0.859375q0.734375 -0.875 0.734375 -2.859375l0 -5.34375l1.546875 0l0 10.171875l-1.265625 0l-0.234375 -1.359375l-0.078125 0q-0.46875 0.75 -1.3125 1.15625q-0.84375 0.390625 -1.921875 0.390625q-1.84375 0 -2.78125 -0.875q-0.921875 -0.890625 -0.921875 -2.828125l0 -6.65625l1.5625 0zm14.638123 -0.1875q0.6875 0 1.21875 0.109375l-0.203125 1.4375q-0.640625 -0.140625 -1.125 -0.140625q-1.234375 0 -2.109375 1.0q-0.875 1.0 -0.875 2.5l0 5.453125l-1.53125 0l0 -10.171875l1.265625 0l0.171875 1.890625l0.078125 0q0.5625 -1.0 1.359375 -1.53125q0.796875 -0.546875 1.75 -0.546875zm7.2717896 10.546875q-2.25 0 -3.5625 -1.375q-1.296875 -1.375 -1.296875 -3.8125q0 -2.453125 1.203125 -3.90625q1.21875 -1.453125 3.265625 -1.453125q1.90625 0 3.015625 1.265625q1.125 1.25 1.125 3.3125l0 0.96875l-7.015625 0q0.046875 1.796875 0.90625 2.734375q0.859375 0.921875 2.421875 0.921875q1.640625 0 3.25 -0.6875l0 1.375q-0.8125 0.34375 -1.546875 0.5q-0.734375 0.15625 -1.765625 0.15625zm-0.40625 -9.25q-1.234375 0 -1.96875 0.796875q-0.71875 0.796875 -0.84375 2.203125l5.3125 0q0 -1.453125 -0.65625 -2.21875q-0.640625 -0.78125 -1.84375 -0.78125zm13.498108 7.703125l-0.078125 0q-1.0625 1.546875 -3.1875 1.546875q-2.0 0 -3.109375 -1.359375q-1.109375 -1.375 -1.109375 -3.890625q0 -2.515625 1.109375 -3.90625q1.125 -1.390625 3.109375 -1.390625q2.0625 0 3.171875 1.515625l0.125 0l-0.078125 -0.734375l-0.03125 -0.71875l0 -4.140625l1.546875 0l0 14.4375l-1.25 0l-0.21875 -1.359375zm-3.078125 0.25q1.578125 0 2.28125 -0.859375q0.71875 -0.859375 0.71875 -2.765625l0 -0.328125q0 -2.15625 -0.71875 -3.078125q-0.71875 -0.921875 -2.296875 -0.921875q-1.359375 0 -2.078125 1.0625q-0.71875 1.046875 -0.71875 2.96875q0 1.9375 0.71875 2.9375q0.71875 0.984375 2.09375 0.984375z" fill-rule="nonzero"></path><path fill="#a4c2f4" d="m486.28873 84.409l28.346466 0l0 26.614174l-28.346466 0z" fill-rule="nonzero"></path><path fill="#ff9900" d="m486.28873 20.408995l28.346466 0l0 26.614172l-28.346466 0z" fill-rule="nonzero"></path><path fill="#000000" fill-opacity="0.0" d="m516.61945 18.015295l236.31494 0l0 31.401575l-236.31494 0z" fill-rule="nonzero"></path><path fill="#000000" d="m535.6976 40.636078l-9.3125 0l0 -1.234375l7.1875 -10.906248l-6.96875 0l0 -1.421875l8.890625 0l0 1.234375l-7.1875 10.906248l7.390625 0l0 1.421875zm6.492737 0.1875q-2.25 0 -3.5625 -1.375q-1.296875 -1.375 -1.296875 -3.8125q0 -2.453125 1.203125 -3.906248q1.21875 -1.453125 3.265625 -1.453125q1.90625 0 3.015625 1.265625q1.125 1.2499981 1.125 3.312498l0 0.96875l-7.015625 0q0.046875 1.796875 0.90625 2.734375q0.859375 0.921875 2.421875 0.921875q1.640625 0 3.25 -0.6875l0 1.375q-0.8125 0.34375 -1.546875 0.5q-0.734375 0.15625 -1.765625 0.15625zm-0.40625 -9.249998q-1.234375 0 -1.96875 0.7968731q-0.71875 0.796875 -0.84375 2.203125l5.3125 0q0 -1.453125 -0.65625 -2.21875q-0.640625 -0.7812481 -1.84375 -0.7812481zm11.216797 -1.296875q0.6875 0 1.21875 0.109375l-0.203125 1.4375q-0.640625 -0.140625 -1.125 -0.140625q-1.234375 0 -2.109375 0.9999981q-0.875 1.0 -0.875 2.5l0 5.453125l-1.53125 0l0 -10.171873l1.265625 0l0.171875 1.8906231l0.078125 0q0.5625 -0.9999981 1.359375 -1.5312481q0.796875 -0.546875 1.75 -0.546875zm11.756165 5.265623q0 2.484375 -1.25 3.890625q-1.25 1.390625 -3.453125 1.390625q-1.375 0 -2.4375 -0.640625q-1.046875 -0.640625 -1.625 -1.828125q-0.578125 -1.203125 -0.578125 -2.8125q0 -2.484375 1.234375 -3.874998q1.25 -1.390625 3.46875 -1.390625q2.125 0 3.375 1.421875q1.265625 1.4218731 1.265625 3.843748zm-7.75 0q0 1.953125 0.78125 2.96875q0.78125 1.015625 2.296875 1.015625q1.515625 0 2.296875 -1.015625q0.78125 -1.015625 0.78125 -2.96875q0 -1.9375 -0.78125 -2.9375q-0.78125 -1.0156231 -2.3125 -1.0156231q-1.515625 0 -2.296875 0.9999981q-0.765625 0.984375 -0.765625 2.953125zm16.63031 5.09375l-1.53125 0l0 -10.171873l1.53125 0l0 10.171873zm-1.671875 -12.921873q0 -0.53125 0.25 -0.765625q0.265625 -0.25 0.65625 -0.25q0.375 0 0.640625 0.25q0.28125 0.25 0.28125 0.765625q0 0.515625 -0.28125 0.78125q-0.265625 0.25 -0.640625 0.25q-0.390625 0 -0.65625 -0.25q-0.25 -0.265625 -0.25 -0.78125zm17.8125 12.921873l0 -6.609375q0 -1.21875 -0.53125 -1.828125q-0.515625 -0.6093731 -1.609375 -0.6093731q-1.4375 0 -2.125 0.8281231q-0.671875 0.828125 -0.671875 2.546875l0 5.671875l-1.546875 0l0 -6.609375q0 -1.21875 -0.53125 -1.828125q-0.515625 -0.6093731 -1.609375 -0.6093731q-1.453125 0 -2.125 0.8749981q-0.671875 0.859375 -0.671875 2.84375l0 5.328125l-1.53125 0l0 -10.171873l1.25 0l0.25 1.390625l0.0625 0q0.4375 -0.734375 1.234375 -1.15625q0.796875 -0.421875 1.78125 -0.421875q2.375 0 3.109375 1.7343731l0.078125 0q0.453125 -0.7968731 1.3125 -1.2656231q0.875 -0.46875 1.96875 -0.46875q1.734375 0 2.59375 0.890625q0.859375 0.8906231 0.859375 2.828123l0 6.640625l-1.546875 0zm9.119202 0.1875q-0.984375 0 -1.8125 -0.359375q-0.8125 -0.375 -1.375 -1.140625l-0.109375 0q0.109375 0.890625 0.109375 1.6875l0 4.1875l-1.53125 0l0 -14.734373l1.25 0l0.203125 1.390625l0.078125 0q0.59375 -0.828125 1.375 -1.203125q0.796875 -0.375 1.8125 -0.375q2.03125 0 3.125 1.390625q1.09375 1.3749981 1.09375 3.874998q0 2.5 -1.125 3.890625q-1.109375 1.390625 -3.09375 1.390625zm-0.21875 -9.234373q-1.5625 0 -2.265625 0.8749981q-0.6875 0.859375 -0.703125 2.734375l0 0.34375q0 2.140625 0.71875 3.0625q0.71875 0.921875 2.28125 0.921875q1.328125 0 2.0625 -1.0625q0.75 -1.0625 0.75 -2.9375q0 -1.90625 -0.75 -2.921875q-0.734375 -1.0156231 -2.09375 -1.0156231zm8.369934 -1.125l0 6.593748q0 1.25 0.5625 1.859375q0.578125 0.609375 1.78125 0.609375q1.59375 0 2.328125 -0.859375q0.734375 -0.875 0.734375 -2.859375l0 -5.343748l1.546875 0l0 10.171873l-1.265625 0l-0.234375 -1.359375l-0.078125 0q-0.46875 0.75 -1.3125 1.15625q-0.84375 0.390625 -1.921875 0.390625q-1.84375 0 -2.78125 -0.875q-0.921875 -0.890625 -0.921875 -2.828125l0 -6.656248l1.5625 0zm13.294373 9.093748q0.40625 0 0.78125 -0.0625q0.390625 -0.0625 0.609375 -0.125l0 1.171875q-0.25 0.125 -0.75 0.203125q-0.484375 0.078125 -0.875 0.078125q-2.9375 0 -2.9375 -3.109375l0 -6.046873l-1.46875 0l0 -0.75l1.46875 -0.640625l0.640625 -2.171875l0.890625 0l0 2.359375l2.953125 0l0 1.203125l-2.953125 0l0 5.984373q0 0.921875 0.4375 1.421875q0.4375 0.484375 1.203125 0.484375zm7.5861816 1.265625q-2.25 0 -3.5625 -1.375q-1.296875 -1.375 -1.296875 -3.8125q0 -2.453125 1.203125 -3.906248q1.21875 -1.453125 3.265625 -1.453125q1.90625 0 3.015625 1.265625q1.125 1.2499981 1.125 3.312498l0 0.96875l-7.015625 0q0.046875 1.796875 0.90625 2.734375q0.859375 0.921875 2.421875 0.921875q1.640625 0 3.25 -0.6875l0 1.375q-0.8125 0.34375 -1.546875 0.5q-0.734375 0.15625 -1.765625 0.15625zm-0.40625 -9.249998q-1.234375 0 -1.96875 0.7968731q-0.71875 0.796875 -0.84375 2.203125l5.3125 0q0 -1.453125 -0.65625 -2.21875q-0.640625 -0.7812481 -1.84375 -0.7812481zm13.498047 7.703123l-0.078125 0q-1.0625 1.546875 -3.1875 1.546875q-2.0 0 -3.109375 -1.359375q-1.109375 -1.375 -1.109375 -3.890625q0 -2.515625 1.109375 -3.906248q1.125 -1.390625 3.109375 -1.390625q2.0625 0 3.171875 1.515625l0.125 0l-0.078125 -0.734375l-0.03125 -0.71875l0 -4.140625l1.546875 0l0 14.437498l-1.25 0l-0.21875 -1.359375zm-3.078125 0.25q1.578125 0 2.28125 -0.859375q0.71875 -0.859375 0.71875 -2.765625l0 -0.328125q0 -2.15625 -0.71875 -3.078125q-0.71875 -0.9218731 -2.296875 -0.9218731q-1.359375 0 -2.078125 1.0624981q-0.71875 1.046875 -0.71875 2.96875q0 1.9375 0.71875 2.9375q0.71875 0.984375 2.09375 0.984375z" fill-rule="nonzero"></path><path fill="#000000" fill-opacity="0.0" d="m516.61945 82.0153l147.1496 0l0 31.401573l-147.1496 0z" fill-rule="nonzero"></path><path fill="#000000" d="m529.05695 104.63608l-1.578125 0l0 -13.5625l7.5625 0l0 1.40625l-5.984375 0l0 4.953125l5.625 0l0 1.40625l-5.625 0l0 5.796875zm16.597473 -5.09375q0 2.484375 -1.25 3.890625q-1.25 1.390625 -3.453125 1.390625q-1.375 0 -2.4375 -0.640625q-1.046875 -0.640625 -1.625 -1.828125q-0.578125 -1.203125 -0.578125 -2.8125q0 -2.484375 1.234375 -3.875q1.25 -1.390625 3.46875 -1.390625q2.125 0 3.375 1.421875q1.265625 1.421875 1.265625 3.84375zm-7.75 0q0 1.953125 0.78125 2.96875q0.78125 1.015625 2.296875 1.015625q1.515625 0 2.296875 -1.015625q0.78125 -1.015625 0.78125 -2.96875q0 -1.9375 -0.78125 -2.9375q-0.78125 -1.015625 -2.3125 -1.015625q-1.515625 0 -2.296875 1.0q-0.765625 0.984375 -0.765625 2.953125zm14.877808 -5.265625q0.6875 0 1.21875 0.109375l-0.203125 1.4375q-0.640625 -0.140625 -1.125 -0.140625q-1.234375 0 -2.109375 1.0q-0.875 1.0 -0.875 2.5l0 5.453125l-1.53125 0l0 -10.171875l1.265625 0l0.171875 1.890625l0.078125 0q0.5625 -1.0 1.359375 -1.53125q0.796875 -0.546875 1.75 -0.546875zm11.287415 10.359375l-1.859375 -5.96875q-0.1875 -0.546875 -0.671875 -2.484375l-0.0625 0q-0.375 1.625 -0.65625 2.5l-1.921875 5.953125l-1.78125 0l-2.765625 -10.171875l1.609375 0q0.984375 3.828125 1.5 5.84375q0.515625 2.0 0.59375 2.6875l0.0625 0q0.109375 -0.515625 0.328125 -1.359375q0.234375 -0.84375 0.40625 -1.328125l1.859375 -5.84375l1.671875 0l1.8125 5.84375q0.515625 1.59375 0.703125 2.671875l0.078125 0q0.03125 -0.328125 0.1875 -1.015625q0.171875 -0.703125 1.953125 -7.5l1.59375 0l-2.8125 10.171875l-1.828125 0zm12.464539 0l-0.3125 -1.453125l-0.078125 0q-0.75 0.96875 -1.515625 1.3125q-0.75 0.328125 -1.890625 0.328125q-1.5 0 -2.359375 -0.78125q-0.859375 -0.78125 -0.859375 -2.21875q0 -3.078125 4.921875 -3.234375l1.734375 -0.046875l0 -0.625q0 -1.203125 -0.515625 -1.765625q-0.515625 -0.578125 -1.65625 -0.578125q-1.265625 0 -2.875 0.78125l-0.46875 -1.1875q0.75 -0.40625 1.640625 -0.625q0.90625 -0.234375 1.796875 -0.234375q1.828125 0 2.703125 0.8125q0.875 0.796875 0.875 2.578125l0 6.9375l-1.140625 0zm-3.484375 -1.078125q1.4375 0 2.25 -0.78125q0.828125 -0.796875 0.828125 -2.21875l0 -0.921875l-1.53125 0.0625q-1.84375 0.0625 -2.65625 0.578125q-0.8125 0.5 -0.8125 1.5625q0 0.84375 0.5 1.28125q0.515625 0.4375 1.421875 0.4375zm12.235107 -9.28125q0.6875 0 1.21875 0.109375l-0.203125 1.4375q-0.640625 -0.140625 -1.125 -0.140625q-1.234375 0 -2.109375 1.0q-0.875 1.0 -0.875 2.5l0 5.453125l-1.53125 0l0 -10.171875l1.265625 0l0.171875 1.890625l0.078125 0q0.5625 -1.0 1.359375 -1.53125q0.796875 -0.546875 1.75 -0.546875zm9.89679 9.0l-0.078125 0q-1.0625 1.546875 -3.1875 1.546875q-2.0 0 -3.109375 -1.359375q-1.109375 -1.375 -1.109375 -3.890625q0 -2.515625 1.109375 -3.90625q1.125 -1.390625 3.109375 -1.390625q2.0625 0 3.171875 1.515625l0.125 0l-0.078125 -0.734375l-0.03125 -0.71875l0 -4.140625l1.546875 0l0 14.4375l-1.25 0l-0.21875 -1.359375zm-3.078125 0.25q1.578125 0 2.28125 -0.859375q0.71875 -0.859375 0.71875 -2.765625l0 -0.328125q0 -2.15625 -0.71875 -3.078125q-0.71875 -0.921875 -2.296875 -0.921875q-1.359375 0 -2.078125 1.0625q-0.71875 1.046875 -0.71875 2.96875q0 1.9375 0.71875 2.9375q0.71875 0.984375 2.09375 0.984375zm17.028687 -7.859375l-2.59375 0l0 8.96875l-1.53125 0l0 -8.96875l-1.828125 0l0 -0.703125l1.828125 -0.546875l0 -0.578125q0 -3.734375 3.265625 -3.734375q0.8125 0 1.890625 0.3125l-0.390625 1.234375q-0.890625 -0.28125 -1.53125 -0.28125q-0.859375 0 -1.28125 0.578125q-0.421875 0.578125 -0.421875 1.859375l0 0.65625l2.59375 0l0 1.203125zm3.2750854 8.96875l-1.53125 0l0 -10.171875l1.53125 0l0 10.171875zm-1.671875 -12.921875q0 -0.53125 0.25 -0.765625q0.265625 -0.25 0.65625 -0.25q0.375 0 0.640625 0.25q0.28125 0.25 0.28125 0.765625q0 0.515625 -0.28125 0.78125q-0.265625 0.25 -0.640625 0.25q-0.390625 0 -0.65625 -0.25q-0.25 -0.265625 -0.25 -0.78125zm6.390625 12.921875l-1.53125 0l0 -14.4375l1.53125 0l0 14.4375zm4.718689 0l-1.53125 0l0 -14.4375l1.53125 0l0 14.4375zm7.46875 0.1875q-2.25 0 -3.5625 -1.375q-1.296875 -1.375 -1.296875 -3.8125q0 -2.453125 1.203125 -3.90625q1.21875 -1.453125 3.265625 -1.453125q1.90625 0 3.015625 1.265625q1.125 1.25 1.125 3.3125l0 0.96875l-7.015625 0q0.046875 1.796875 0.90625 2.734375q0.859375 0.921875 2.421875 0.921875q1.640625 0 3.25 -0.6875l0 1.375q-0.8125 0.34375 -1.546875 0.5q-0.734375 0.15625 -1.765625 0.15625zm-0.40625 -9.25q-1.234375 0 -1.96875 0.796875q-0.71875 0.796875 -0.84375 2.203125l5.3125 0q0 -1.453125 -0.65625 -2.21875q-0.640625 -0.78125 -1.84375 -0.78125zm13.498047 7.703125l-0.078125 0q-1.0625 1.546875 -3.1875 1.546875q-2.0 0 -3.109375 -1.359375q-1.109375 -1.375 -1.109375 -3.890625q0 -2.515625 1.109375 -3.90625q1.125 -1.390625 3.109375 -1.390625q2.0625 0 3.171875 1.515625l0.125 0l-0.078125 -0.734375l-0.03125 -0.71875l0 -4.140625l1.546875 0l0 14.4375l-1.25 0l-0.21875 -1.359375zm-3.078125 0.25q1.578125 0 2.28125 -0.859375q0.71875 -0.859375 0.71875 -2.765625l0 -0.328125q0 -2.15625 -0.71875 -3.078125q-0.71875 -0.921875 -2.296875 -0.921875q-1.359375 0 -2.078125 1.0625q-0.71875 1.046875 -0.71875 2.96875q0 1.9375 0.71875 2.9375q0.71875 0.984375 2.09375 0.984375z" fill-rule="nonzero"></path><path fill="#000000" fill-opacity="0.0" d="m476.9265 13.075662l201.79529 0l0 105.95276l-201.79529 0z" fill-rule="nonzero"></path><path stroke="#595959" stroke-width="1.0" stroke-linejoin="round" stroke-linecap="butt" d="m476.9265 13.075662l201.79529 0l0 105.95276l-201.79529 0z" fill-rule="nonzero"></path><path fill="#000000" fill-opacity="0.0" d="m11.259843 13.312137l455.9055 0l0 220.94489l-455.9055 0z" fill-rule="nonzero"></path><path stroke="#595959" stroke-width="1.0" stroke-linejoin="round" stroke-linecap="butt" d="m11.259843 13.312137l455.9055 0l0 220.94489l-455.9055 0z" fill-rule="nonzero"></path></g></svg>

